<svg width="1440" height="840" viewBox="0 0 1440 840" fill="none" xmlns="http://www.w3.org/2000/svg">
<g id="Frame 1">
<rect width="1440" height="840" fill="white"/>
<path id="new1" d="M747.058 371.453C745.843 381.595 748.238 391.865 753.835 400.523C759.432 409.181 767.888 415.694 777.77 418.959" stroke="#97C354" stroke-width="5" stroke-miterlimit="10" stroke-linecap="round"/>
<path id="Vector" d="M702.28 382.6C694.778 385.988 688.07 390.914 682.592 397.058C677.114 403.203 672.988 410.429 670.48 418.27C669.584 421.034 668.899 423.862 668.43 426.73C667.612 431.623 667.424 436.6 667.87 441.54" stroke="#DF3589" stroke-width="10" stroke-miterlimit="10" stroke-linecap="round"/>
<path id="Vector_2" d="M745.97 378.84C735.403 375.448 724.094 375.105 713.341 377.85C702.588 380.595 692.827 386.318 685.18 394.36C681.722 397.993 678.748 402.056 676.33 406.45" stroke="#2A358D" stroke-width="10" stroke-miterlimit="10" stroke-linecap="round"/>
<path id="Vector_3" d="M781.12 409.58C774.484 395.641 762.641 384.864 748.139 379.569C733.637 374.275 717.636 374.885 703.58 381.27" stroke="#00A159" stroke-width="10" stroke-miterlimit="10" stroke-linecap="round"/>
<path id="Vector_4" d="M769.66 476.66C775.343 470.974 779.804 464.186 782.769 456.714C785.734 449.242 787.141 441.243 786.903 433.207C786.665 425.171 784.788 417.269 781.386 409.986C777.984 402.702 773.129 396.19 767.12 390.85" stroke="#E13A30" stroke-width="10" stroke-miterlimit="10" stroke-linecap="round"/>
<path id="Vector_5" d="M709.47 492.1C713.269 493.324 717.182 494.162 721.15 494.6C734.652 496.062 748.245 492.818 759.632 485.415C771.018 478.012 779.498 466.904 783.64 453.97" stroke="#00ABEA" stroke-width="10" stroke-miterlimit="10" stroke-linecap="round"/>
<path id="Vector_6" d="M681.61 473.89C689.246 482.994 699.458 489.576 710.903 492.771C722.348 495.966 734.492 495.624 745.74 491.79" stroke="#E13A30" stroke-width="10" stroke-miterlimit="10" stroke-linecap="round"/>
<path id="Vector_7" d="M667.79 441.2C668.881 453.227 673.623 464.634 681.38 473.89" stroke="#FFF047" stroke-width="10" stroke-miterlimit="10" stroke-linecap="round"/>
<path id="Vector_8" d="M668 441C669.233 454.578 675.123 467.312 684.671 477.044C694.219 486.776 706.838 492.908 720.39 494.4" stroke="#97C354" stroke-width="10" stroke-miterlimit="10" stroke-linecap="round"/>
<path id="new8" d="M781.715 333.892C775.68 335.182 769.986 337.721 765.004 341.343C760.022 344.965 755.861 349.589 752.793 354.917C751.702 356.793 750.756 358.749 749.963 360.769C748.596 364.211 747.678 367.814 747.231 371.49" stroke="#DF3589" stroke-width="5" stroke-miterlimit="10" stroke-linecap="round"/>
<path id="new7" d="M817.622 339.488C810.201 334.995 801.657 332.596 792.971 332.567C784.286 332.539 775.811 334.882 768.52 339.327C765.224 341.334 762.217 343.749 759.573 346.512" stroke="#2A358D" stroke-width="5" stroke-miterlimit="10" stroke-linecap="round"/>
<path id="new6" d="M836.18 366.041C833.505 354.854 826.528 345.151 816.75 339.02C806.971 332.889 795.174 330.821 783.896 333.261" stroke="#00A159" stroke-width="5" stroke-miterlimit="10" stroke-linecap="round"/>
<path id="new5" d="M816.599 414C821.711 410.692 826.093 406.374 829.476 401.311C832.86 396.249 835.174 390.548 836.275 384.559C837.377 378.57 837.243 372.419 835.883 366.484C834.523 360.549 831.964 354.954 828.364 350.044" stroke="#E13A30" stroke-width="5" stroke-miterlimit="10" stroke-linecap="round"/>
<path id="new4" d="M770.19 416.154C772.75 417.651 775.454 418.88 778.261 419.822C787.818 423.005 798.188 422.721 807.619 419.017C817.05 415.314 824.963 408.417 830.02 399.494" stroke="#00ABEA" stroke-width="5" stroke-miterlimit="10" stroke-linecap="round"/>
<path id="new3" d="M752.565 398.205C756.7 406.171 763.123 412.667 770.989 416.84C778.855 421.012 787.796 422.666 796.639 421.585" stroke="#E13A30" stroke-width="5" stroke-miterlimit="10" stroke-linecap="round"/>
<path id="new11" d="M746.99 372.278C745.991 381.603 747.825 390.884 752.25 398.902C756.675 406.92 763.485 413.3 771.784 417.205" stroke="#874062" stroke-width="5" stroke-miterlimit="10" stroke-linecap="round"/>
<path id="Vectorrr4" d="M827.455 351.895C828.805 352.185 830.135 351.325 830.424 349.975C830.714 348.625 829.855 347.296 828.505 347.006C827.155 346.716 825.826 347.576 825.536 348.926C825.246 350.276 826.105 351.605 827.455 351.895Z" fill="#8691C3"/>
<path id="Vectorrr3" d="M827.455 351.895C828.805 352.185 830.135 351.325 830.424 349.975C830.714 348.625 829.855 347.296 828.505 347.006C827.155 346.716 825.826 347.576 825.536 348.926C825.246 350.276 826.105 351.605 827.455 351.895Z" fill="#4E5376"/>
<path id="Vector_9" d="M717.873 171L718.213 693.27" stroke="#4D5275" stroke-miterlimit="10"/>
<path id="Cool" d="M723.23 497.12C724.324 497.12 725.21 496.234 725.21 495.14C725.21 494.046 724.324 493.16 723.23 493.16C722.136 493.16 721.25 494.046 721.25 495.14C721.25 496.234 722.136 497.12 723.23 497.12Z" fill="#4D5275"/>
<path id="bird2" d="M747 370.035C775.268 383.362 793.025 408.515 792.22 434.603C791.616 454.212 780.724 468.295 775.69 474C782.058 471.181 787.804 467.266 792.633 462.458C805.72 449.367 807.521 433.895 807.864 429.021C808.424 421.299 807.25 413.553 804.417 406.284C801.584 399.015 797.155 392.385 791.417 386.824C785.679 381.264 778.761 376.896 771.109 374.003C763.458 371.111 755.244 369.759 747 370.035Z" stroke="#848EC2" stroke-width="3" stroke-miterlimit="10" stroke-linejoin="round"/>
<path id="bird1" d="M684 440C695.327 444.294 706.897 447.917 718.65 450.85C727.45 453.03 733.22 454.03 739.98 454.24C746.014 454.516 752.059 454.052 757.98 452.86C767.796 450.785 777.052 446.625 785.12 440.66C783.398 450.603 779.491 460.04 773.68 468.29C770.57 472.69 765.25 480.02 755.87 485.37C751.35 487.95 747.65 489.06 740.23 491.28C734.718 492.931 729.107 494.23 723.43 495.17C724.78 494.76 732.82 492.17 736.43 484.25C737.916 480.853 738.455 477.118 737.99 473.44C737.773 470.685 736.887 468.025 735.41 465.69C734.312 464.106 732.961 462.714 731.41 461.57C729.41 459.97 727.34 458.89 723.13 456.71C719.919 454.98 716.551 453.56 713.07 452.47V452.47C709.105 451.236 705.216 449.774 701.42 448.09C693.56 444.72 685.36 440.72 684 440Z" stroke="#4E5376" stroke-width="3" stroke-miterlimit="10" stroke-linejoin="round"/>
<path id="new9" d="M801.605 420.305C807.569 419.082 813.221 416.652 818.213 413.165C823.205 409.679 827.433 405.209 830.636 400.03C833.839 394.851 835.95 389.072 836.84 383.048C837.73 377.024 837.38 370.883 835.811 365" stroke="#36664C" stroke-width="5" stroke-miterlimit="10" stroke-linecap="round"/>
<path id="new10" d="M765.049 412.433C772.305 417.884 781.069 421.027 790.189 421.448C799.308 421.87 808.357 419.552 816.147 414.797" stroke="#9E30E1" stroke-width="5" stroke-miterlimit="10" stroke-linecap="round"/>
<path id="fill2" d="M748 370.035C776.268 383.362 794.025 408.515 793.22 434.603C792.616 454.212 781.724 468.295 776.69 474C783.058 471.181 788.804 467.266 793.633 462.458C806.72 449.367 808.521 433.895 808.864 429.021C809.424 421.299 808.25 413.553 805.417 406.284C802.584 399.015 798.155 392.385 792.417 386.824C786.679 381.264 779.761 376.896 772.109 374.003C764.458 371.111 756.244 369.759 748 370.035V370.035Z" fill="#848EC2"/>
<path id="fill1" d="M684 440.007C695.327 444.301 706.897 447.924 718.65 450.857C727.45 453.037 733.22 454.037 739.98 454.247C746.014 454.523 752.059 454.059 757.98 452.867C767.796 450.792 777.052 446.632 785.12 440.667C783.398 450.61 779.491 460.047 773.68 468.297C770.57 472.697 765.25 480.027 755.87 485.377C751.35 487.957 747.65 489.067 740.23 491.287C734.718 492.938 729.107 494.237 723.43 495.177C724.78 494.767 732.82 492.177 736.43 484.257C737.916 480.86 738.455 477.125 737.99 473.447C737.773 470.692 736.887 468.032 735.41 465.697C734.312 464.113 732.961 462.721 731.41 461.577C729.41 459.977 727.34 458.897 723.13 456.717C719.919 454.987 716.551 453.567 713.07 452.477V452.477C709.105 451.243 705.216 449.781 701.42 448.097C693.56 444.727 685.36 440.727 684 440.007Z" fill="#4E5376"/>
<path id="dot" d="M815.98 416.96C817.074 416.96 817.96 416.074 817.96 414.98C817.96 413.886 817.074 413 815.98 413C814.886 413 814 413.886 814 414.98C814 416.074 814.886 416.96 815.98 416.96Z" fill="#4E5376"/>
<path id="beak" d="M809.102 406.34C812.054 410.401 813.903 415.158 814.469 420.146C814.619 421.591 814.652 423.045 814.567 424.494L826.333 409.534L809.102 406.34Z" fill="#4D5275"/>
<path id="earth" d="M725.76 377C714.13 377.01 702.764 380.468 693.1 386.936C683.435 393.405 675.905 402.594 671.461 413.341C667.018 424.089 665.861 435.913 668.137 447.318C670.413 458.723 676.019 469.197 684.246 477.416C692.474 485.635 702.954 491.231 714.361 493.495C725.769 495.759 737.591 494.59 748.334 490.136C759.077 485.682 768.258 478.142 774.717 468.471C781.176 458.799 784.622 447.43 784.62 435.8C784.619 428.074 783.095 420.423 780.136 413.286C777.177 406.149 772.84 399.664 767.374 394.204C761.908 388.743 755.419 384.413 748.279 381.461C741.138 378.509 733.486 376.993 725.76 377ZM724.22 458.8C723.65 460.98 722.04 460.8 719.57 464.07C717.84 466.34 718.43 466.67 716.01 470.89C713.59 475.11 712.58 475.44 712.75 476.89C713.11 479.79 717.17 480.82 716.75 482.89C716.619 483.329 716.381 483.729 716.056 484.052C715.731 484.375 715.33 484.612 714.89 484.74C711.89 485.74 706.89 481.14 704.37 476.23C701.31 470.28 703.98 468.07 700.96 463.37C697.67 458.27 693.21 458.89 692.29 454.85C691.37 450.81 695.68 448.53 694.45 444.79C693.71 442.52 691.74 442.15 686.09 438.6C680.94 435.36 678.37 433.74 677.24 432.21C671.96 425.06 677.24 411.76 681.14 405.78C683.184 402.813 685.461 400.015 687.95 397.41C689.352 395.779 690.951 394.328 692.71 393.09C694.558 391.624 696.727 390.616 699.04 390.15C702.72 389.59 707.59 390.82 708.04 392.93C708.58 395.63 701.45 397.25 701.04 402.22C700.87 404.56 702.25 407.22 703.83 407.47C706.16 407.86 707.32 402.78 710.48 402.67C713.39 402.58 716.61 406.82 715.89 409.17C715.49 410.49 714.12 410.31 712.49 412.41C710.86 414.51 711.72 415.26 710.4 416.92C708.47 419.34 706.4 418.08 703.58 420.8C701.99 422.32 702.1 423.24 700.48 424.04C698.58 424.97 697.48 424.2 696.62 425.13C695.31 426.58 697.44 429.27 696.15 430.7C695.28 431.7 693.36 431.53 692.15 431.02C689.89 430.02 690.15 427.91 688.28 427.14C686.15 426.25 682.28 427.59 681.78 430.23C681.637 431.222 681.841 432.234 682.359 433.092C682.876 433.951 683.675 434.604 684.62 434.94C686.37 435.41 687.62 433.72 689.26 434.48C689.91 434.77 690.11 435.22 690.96 436.48C693.47 440.18 693.7 440.35 694.06 440.48C695.63 441.25 696.82 439.61 699.79 438.94C701.492 438.591 703.246 438.589 704.948 438.932C706.651 439.276 708.267 439.959 709.7 440.94C712.5 442.94 711.44 444.26 714.7 447.13C718.08 450.13 720 449.33 722.28 452.25C722.62 452.94 724.98 455.84 724.22 458.8ZM775.68 438.41C774.03 440.54 774.81 441.88 773.37 444.3C772.05 446.52 770.72 446.54 769.26 448.15C766.46 451.24 768.39 454.39 767.21 459.15C765.77 464.94 760.53 468.31 750.04 475.03C748.72 475.88 745.98 477.59 745.17 476.84C744.06 475.84 748.17 471.63 747.22 466.58C746.7 463.93 745.39 464.21 743.88 460.94C740.88 454.43 744.57 450.02 741.32 446.33C740.21 445.07 738.7 444.46 735.68 443.25C731.63 441.62 730.58 442.3 729.01 441.25C725.36 438.67 724.47 430.4 728.01 425.87C730.62 422.51 733.4 424.08 739.01 419.97C740.01 419.27 747.21 413.97 746.19 409.46C745.47 406.25 741.33 406.36 740.8 403.31C740.21 399.77 744.98 394.83 749.8 394.59C751.8 394.49 753.3 395.27 756.72 397.41C766.72 403.7 771.82 406.93 774.63 411.41C776.296 414.109 777.541 417.046 778.32 420.12C779.04 423.03 778.32 421.97 779.32 429.67C779.67 432.39 779.92 433.81 779.06 435.31C778.2 436.81 777.06 436.61 775.68 438.41Z" fill="#4D5275"/>
<path id="path" d="M819 414C821.833 411.833 836.3 399.7 839.5 390.5C842.7 381.3 846 373.5 846 358.5C846 343.5 837.321 326.046 828.5 316C810.5 295.5 790 287 749.5 287C717 287 696.833 305.333 684.5 316C664.5 333.297 650.8 405.4 708 413C748 414 790.5 443 795.5 474.5C805 514 779.2 558.3 740 563.5C700.8 568.7 674.5 562.5 647.5 539.5C634.5 528.426 614.3 503.5 625.5 455.5C636.7 407.5 685.667 392.167 708 406.5" stroke="black" stroke-width="0.2"/>
<path id="point" d="M707.5 371C714.403 371 720 378.093 720 386.854C720 392.192 717.751 397.432 714.028 402.402C712.805 404.039 711.472 405.589 710.039 407.04C709.555 407.519 709.108 407.948 708.709 408.267C708.31 408.586 708.298 408.648 708.189 408.734C707.997 408.905 707.75 409 707.494 409C707.238 409 706.991 408.905 706.799 408.734C706.702 408.648 706.521 408.5 706.279 408.267C706.037 408.034 705.445 407.482 704.961 407.04C703.524 405.589 702.187 404.039 700.96 402.402C697.249 397.493 695 392.192 695 386.854C695.024 378.093 700.597 371 707.5 371Z" fill="#848EC2"/>
<path id="drop1" d="M705.111 309C716.771 309 726.231 320.81 726.231 335.37C726.231 344.26 722.421 352.97 716.151 361.25C714.082 363.97 711.827 366.543 709.401 368.95C708.591 369.75 707.841 370.46 707.171 371.07L706.281 371.84C705.957 372.125 705.541 372.282 705.111 372.282C704.68 372.282 704.264 372.125 703.941 371.84C703.771 371.7 703.471 371.44 703.061 371.07C702.391 370.46 701.641 369.75 700.831 368.95C698.405 366.543 696.149 363.97 694.081 361.25C687.811 352.97 684.001 344.25 684.001 335.37C684.031 320.81 693.481 309 705.111 309Z" fill="#848EC2"/>
<path id="drop2" d="M645.941 352.3C652.381 345.8 664.181 347.04 672.311 355.08C677.311 359.98 680.031 366.92 681.181 374.98C681.559 377.63 681.752 380.303 681.761 382.98C681.761 383.88 681.761 384.68 681.761 385.4C681.761 385.83 681.761 386.14 681.711 386.32C681.687 386.657 681.543 386.974 681.304 387.213C681.065 387.452 680.748 387.596 680.411 387.62L679.501 387.69C678.781 387.69 677.971 387.76 677.081 387.76C674.406 387.782 671.733 387.621 669.081 387.28C661.001 386.21 654.081 383.53 649.081 378.62C640.881 370.61 639.511 358.81 645.941 352.3Z" fill="#A4AACA"/>
<path id="drop3" d="M625.563 403.669C627.956 396.526 637.25 393.121 646.319 396.051C651.848 397.853 656.501 401.944 660.355 407.45C661.61 409.27 662.736 411.173 663.727 413.145C664.064 413.797 664.356 414.394 664.592 414.936L664.896 415.632C665.016 415.887 665.033 416.178 664.943 416.445C664.853 416.712 664.664 416.936 664.412 417.07L663.749 417.446C663.232 417.744 662.625 418.054 661.974 418.385C659.975 419.385 657.91 420.249 655.793 420.973C649.353 423.184 643.15 423.715 637.61 421.924C628.586 418.982 623.18 410.812 625.563 403.669Z" fill="#B7BDDF"/>
<path id="drop4" d="M629.216 460.403C628.181 454.248 633.62 448.161 641.353 446.882C646.07 446.107 651.03 447.363 655.979 449.965C657.613 450.821 659.185 451.793 660.682 452.872C661.175 453.23 661.61 453.561 661.998 453.867L662.487 454.264C662.66 454.417 662.774 454.626 662.81 454.853C662.847 455.081 662.804 455.315 662.688 455.515C662.587 455.699 662.476 455.878 662.355 456.051C662.097 456.464 661.784 456.922 661.426 457.415C660.361 458.917 659.191 460.342 657.925 461.678C654.085 465.732 649.794 468.518 645.078 469.283C637.34 470.521 630.241 466.558 629.216 460.403Z" fill="#D2D7F3"/>
<path id="drop5" d="M651.743 493.637C649.049 490.715 649.832 485.609 653.479 482.246C655.967 480.179 659.063 478.983 662.294 478.841C663.453 478.732 664.619 478.7 665.782 478.747C666.167 478.824 666.521 478.791 666.836 478.828L667.221 478.904C667.367 478.918 667.504 478.985 667.604 479.093C667.704 479.201 667.76 479.342 667.762 479.489C667.747 479.564 667.723 479.688 667.773 479.891C667.822 480.095 667.771 480.549 667.759 480.933C667.718 482.102 667.59 483.266 667.376 484.416C666.964 487.629 665.504 490.616 663.223 492.914C659.577 496.2 654.438 496.558 651.743 493.637Z" fill="#DDE2FC"/>
<path id="drop6" d="M678.56 506.095C675.818 505.159 674.545 501.615 675.714 498.192C676.59 496.003 678.158 494.16 680.179 492.946C680.884 492.473 681.62 492.048 682.382 491.674C682.655 491.589 682.871 491.445 683.086 491.359L683.359 491.275C683.457 491.232 683.568 491.228 683.67 491.262C683.771 491.297 683.857 491.368 683.909 491.461C683.925 491.514 683.953 491.602 684.055 491.715C684.158 491.828 684.283 492.137 684.409 492.388C684.788 493.151 685.111 493.942 685.374 494.753C686.226 496.955 686.329 499.376 685.666 501.642C684.472 505.015 681.302 507.031 678.56 506.095Z" fill="#ECEFFE"/>
<g id="clip path">
<g id="map">
<path id="Vector_10" d="M836 362H600V502H836V362Z" fill="#4D5275"/>
<path id="Vector_11" d="M628.402 384.946C627.692 384.824 627.153 384.499 626.927 384.544C626.7 384.589 626.033 384.098 625.542 384.053C625.051 384.008 623.62 384.454 622.369 384.053C621.118 383.651 619.695 383.235 618.064 383.592C616.634 383.904 616.261 383.592 615.353 383.875C614.543 384.124 614.592 384.231 614.161 384.335C613.73 384.439 613.208 384.425 612.984 384.648C612.76 384.871 611.003 385.11 610.675 385.169C610.347 385.228 610.009 385.436 609.796 386.314C609.583 387.192 607.785 387.251 607.085 387.34C606.385 387.429 606.19 387.575 606.057 388.338C605.938 389.023 606.206 388.814 606.683 388.77C607.159 388.726 607.547 388.651 607.16 389.05C606.603 389.626 606.489 389.364 606.235 389.528C605.982 389.692 605.923 389.752 605.61 389.752C605.297 389.752 604.225 390.495 603.688 390.599C603.152 390.703 602.527 390.611 602.527 391.671C602.527 391.82 602.452 391.7 602.288 391.82C602.124 391.939 602.057 392.752 602.586 393.128C602.795 393.277 602.452 393.366 602.795 393.47C603.138 393.574 603.688 393.426 603.554 393.858C603.42 394.289 603.092 394.259 602.944 394.333C602.796 394.407 600.605 395.509 600.188 395.687C599.771 395.865 600.083 396.401 600.783 396.252C601.484 396.103 603.375 395.062 604.151 394.825C604.926 394.587 608.009 393.232 608.425 393.188C608.842 393.144 609.319 393.039 609.707 393.158C610.094 393.277 612.567 392.533 612.642 392.265C612.717 391.998 613.252 391.492 613.699 391.626C614.146 391.76 614.667 392.013 614.865 392.161C615.062 392.31 615.448 392.161 615.832 392.235C616.217 392.309 617.561 392.414 617.799 393.009C618.037 393.605 618.395 393.841 618.469 394.065C618.543 394.29 618.719 394.542 618.648 394.691C618.577 394.84 618.961 394.884 618.961 395.033C618.961 395.181 618.617 397.463 618.782 398.32C618.856 398.707 618.484 399.138 618.395 399.466C618.306 399.794 618.484 399.942 618.008 400.209C617.532 400.477 618.395 401.444 618.591 401.772C618.786 402.099 618.725 403.435 616.509 406.026C615.63 407.051 615.362 407.529 615.317 408.022C615.272 408.515 614.423 408.944 614.408 409.242C614.393 409.539 614.512 409.599 614.453 409.777C614.394 409.955 614.208 410.6 614.527 411.206C614.707 411.545 614.617 411.771 614.572 411.964C614.528 412.157 614.453 412.712 614.662 413.035C614.87 413.358 614.542 413.898 614.692 414.282C614.841 414.666 615.407 414.506 615.6 414.669C615.793 414.832 616.509 415.085 616.449 415.621C616.389 416.157 616.762 417.823 616.732 418.314C616.702 418.806 617.373 419.251 617.373 419.593C617.373 419.935 617.358 420.009 617.089 420.129C616.821 420.25 616.777 421.155 617.403 421.438C618.028 421.721 617.999 421.676 617.999 421.9C617.999 422.123 617.984 423.178 618.297 423.297C618.631 423.44 618.916 423.678 619.116 423.982C619.294 424.264 619.711 424.979 620.099 424.339C620.486 423.699 619.547 423.104 619.458 423.044C619.369 422.985 619.577 422.658 619.413 422.405C619.249 422.152 619.294 421.914 619.145 421.378C618.996 420.843 618.579 420.158 618.562 419.623C618.546 419.087 618.427 419.221 618.338 418.686C618.249 418.15 618.13 417.258 618.696 417.183C619.263 417.108 619.099 418.15 619.113 418.418C619.127 418.686 618.889 419.117 619.783 420.01C619.974 420.232 620.093 420.507 620.125 420.799C620.14 421.036 620.572 421.453 620.616 421.721C620.661 421.988 620.393 422.42 620.959 422.673C621.526 422.926 622.107 424.011 622.166 424.354C622.225 424.697 622.732 424.979 622.749 425.201C622.765 425.424 622.957 425.99 622.823 426.183C622.689 426.376 622.362 427.374 622.764 427.846C623.166 428.319 623.285 428.096 623.596 428.323C623.908 428.55 623.745 428.905 624.49 429.111C625.234 429.317 625.101 429.349 625.205 429.513C625.309 429.676 627.231 430.554 627.663 430.658C628.095 430.762 628.437 431.24 629.614 431.073C630.485 430.952 630.464 430.709 631.059 431.107C631.654 431.504 632.296 432.71 633.339 433.007C634.382 433.303 634.128 433.438 634.709 433.483C635.29 433.528 635.886 433.602 636.125 434.108C636.364 434.615 636.393 434.703 636.557 434.94C636.721 435.177 636.483 435.475 636.676 435.818C636.869 436.16 637.197 436.517 637.675 436.561C638.153 436.605 638.271 436.785 638.42 437.127C638.569 437.468 638.792 437.945 639.508 437.945C640.223 437.945 640.044 438.45 640.371 438.569C640.698 438.688 641.573 438.7 641.354 438.02C641.22 437.604 641.488 437.707 641.503 437.558C641.518 437.409 641.682 436.844 641.087 436.859C640.492 436.874 640.238 437.052 639.866 436.8C639.493 436.548 638.391 435.877 638.748 434.717C639.105 433.557 639.076 433.586 639.091 433.333C639.131 432.994 639.238 432.665 639.404 432.366C639.553 432.128 639.434 431.384 639.046 431.31C638.659 431.236 638.599 430.804 638.272 430.79C637.945 430.776 635.724 431.087 635.784 430.358C635.844 429.63 635.933 429.019 636.439 428.573C636.946 428.127 636.902 427.086 636.902 426.91C636.902 426.735 637.378 426.449 637.363 426.271C637.348 426.093 637.438 425.586 636.364 425.705C635.29 425.824 635.198 425.764 634.978 425.943C634.758 426.122 634.65 426.077 634.546 426.092C634.442 426.107 633.995 426.821 633.92 427.549C633.845 428.278 633.414 428.381 633.176 428.398C632.937 428.414 631.76 428.383 631.51 428.487C631.261 428.592 629.679 428.665 629.231 426.032C629.01 424.73 629.604 422.744 629.976 422.314C630.348 421.883 630.155 421.168 630.226 420.959C630.296 420.75 630.688 420.067 631.209 419.844C631.73 419.621 633.086 418.981 633.235 418.832C633.384 418.683 633.965 418.594 634.203 418.743C634.441 418.892 634.829 418.936 635.007 418.877C635.186 418.818 635.174 418.877 635.276 419.011C635.379 419.145 635.842 419.07 636.066 419.07C636.29 419.07 636.721 419.319 636.795 419.204C636.86 419.083 636.905 418.952 636.929 418.817C636.959 418.698 637.345 418.297 637.512 418.327C637.678 418.357 638.599 418.252 638.808 418.088C639.017 417.924 639.538 418.222 639.687 418.549C639.836 418.877 640.238 418.832 640.402 418.743C640.566 418.654 641.474 418.909 641.325 419.575C641.176 420.24 641.549 421.642 641.772 421.91C641.995 422.177 642.219 422.446 642.174 422.609C642.13 422.772 642.577 422.775 642.711 422.639C642.845 422.502 643.664 421.657 643.426 420.363C643.188 419.069 642.935 417.997 643.307 417.522C643.679 417.046 643.649 416.644 644.156 416.346C644.663 416.048 645.393 415.469 645.72 415.275C646.047 415.081 646.539 414.888 646.912 414.665C647.285 414.441 647.597 414.561 647.805 414.308C648.014 414.055 647.984 413.758 648.119 413.654C648.253 413.55 648.64 413.222 648.759 412.389C648.878 411.556 649.697 410.946 649.935 410.753C650.173 410.559 650.472 409.875 650.83 409.727C651.187 409.578 651.289 408.895 651.857 408.685C652.468 408.462 652.364 408.402 652.766 408.402C653.091 408.401 653.409 408.315 653.69 408.153C653.856 408.049 654.226 407.903 654.256 407.677C654.286 407.451 654.056 406.621 655.388 406.189C655.983 405.996 655.819 406.189 656.192 405.773C656.565 405.357 657.458 405.699 657.667 405.803C657.876 405.907 657.786 406.385 657.995 406.398C658.204 406.411 658.456 406.502 658.813 406.115C659.171 405.729 659.348 405.491 660.125 405.491C660.527 405.491 660.497 405.342 660.616 405.312C660.735 405.282 661.629 405.282 661.865 405.103C662.101 404.925 662.178 404.39 661.615 404.315C661.052 404.24 659.903 404.077 660.141 403.244C660.316 402.628 660.662 402.113 660.856 401.95C661.05 401.786 660.885 401.236 660.871 401.072C660.857 400.909 661.198 400.73 661.422 400.641C661.646 400.552 662.897 400.522 663.225 400.656C663.553 400.79 663.969 400.611 664.088 400.552C664.207 400.493 665.011 400.447 664.818 401.042C664.625 401.638 664.118 401.653 663.969 402.054C663.82 402.456 663.627 402.709 663.775 402.873C663.923 403.036 665.024 403.051 665.205 403.006C665.387 402.962 666.197 402.994 666.561 403.256C666.949 403.539 667.588 403.628 667.81 403.584C668.031 403.539 668.42 403.152 668.435 402.898C668.45 402.645 668.093 402.095 668.242 401.664C668.391 401.234 668.644 401.188 668.331 400.935C668.018 400.682 667.542 400.742 667.542 400.072C667.542 399.403 668.019 398.6 668.004 398.347C667.989 398.094 668.004 397.484 667.588 397.246C667.171 397.008 667.693 396.874 667.469 396.681C667.245 396.487 666.068 396.547 666.068 395.357C666.068 394.167 665.935 392.779 665.562 392.381C665.189 391.983 665.056 391.95 664.817 392.131C664.579 392.313 663.089 393.604 662.569 393.396C662.05 393.188 661.737 392.831 661.944 392.504C662.151 392.177 662.42 391.626 662.122 391.447C661.824 391.268 660.957 390.302 660.693 390.227C660.429 390.153 658.622 389.767 657.937 390.183C657.252 390.6 657.58 390.793 657.49 390.942C657.401 391.09 657.013 391.269 656.983 391.417C656.953 391.565 656.998 392.518 656.656 392.581C656.314 392.644 655.449 393.087 655.553 393.33C655.657 393.572 656.136 393.894 655.956 394.252C655.776 394.609 655.42 395.62 653.974 396.081C652.529 396.542 652.768 396.765 652.738 397.079C652.708 397.392 652.322 397.808 652.381 398.031C652.44 398.254 652.276 398.745 651.919 398.894C651.561 399.043 650.608 399.578 650.637 398.492C650.666 397.406 651.039 397.362 651.144 397.124C651.249 396.886 651.651 396.588 651.561 396.394C651.471 396.201 650.934 395.963 650.487 395.993C650.04 396.023 649.162 395.785 648.775 395.442C648.387 395.1 648.238 394.728 647.866 394.624C647.494 394.52 646.659 394.49 646.555 394.134C646.451 393.777 646.451 393.152 646.305 393.077C646.159 393.002 646.097 392.482 646.379 392.245C646.661 392.008 648.525 390.431 650.118 390.222C651.712 390.014 651.284 389.404 651.683 389.33C652.082 389.256 653.307 389.092 653.784 389.643C654.261 390.193 654.692 389.508 654.93 389.434C655.168 389.36 655.466 389.077 655.913 389.226C656.361 389.375 656.807 389.583 656.971 389.27C657.135 388.958 656.971 388.78 656.748 388.676C656.525 388.572 656.569 388.154 656.45 388.08C656.331 388.006 656.435 387.415 656.956 387.455C657.477 387.495 658.878 386.548 658.938 386.221C658.997 385.894 659.548 385.581 659.697 385.402C659.846 385.223 659.831 384.82 660.174 384.793C660.517 384.765 660.814 384.704 661.127 384.763C661.44 384.822 661.753 384.718 661.932 384.704C662.111 384.69 662.736 384.808 662.751 385.149C662.766 385.491 663.197 385.731 663.421 385.775C663.645 385.818 663.778 386.44 663.406 386.606C663.034 386.773 662.2 387.201 662.066 387.677C661.932 388.154 660.933 387.975 660.606 387.856C660.279 387.737 659.652 387.677 659.357 388.138C659.062 388.598 658.97 388.912 659.476 388.886C659.982 388.86 660.4 389.005 660.609 388.99C660.818 388.975 661.368 389.005 661.487 388.901C661.606 388.797 661.949 389.05 662.142 389.437C662.335 389.823 662.975 390.434 663.528 390.552C664.081 390.671 664.005 390.954 664.482 390.984C664.959 391.014 666.075 390.153 666.21 389.942C666.345 389.732 667.059 389.333 666.776 388.737C666.493 388.142 666.15 387.503 666.463 387.444C666.776 387.384 667.342 387.994 667.416 388.232C667.49 388.47 668.16 388.588 668.384 388.321C668.608 388.053 669.55 387.562 669.55 387.399C669.55 387.235 669.668 386.774 669.4 386.551C669.132 386.327 669.058 385.836 668.626 385.896C668.194 385.956 668.001 385.242 668.06 385.123C668.119 385.004 668.226 384.23 667.926 384.007C667.625 383.784 666.677 383.176 666.198 383.159C665.719 383.142 665.141 382.117 665.032 381.924C664.924 381.731 663.587 381.404 662.649 381.508C661.71 381.613 661.516 381.731 661.054 381.731C660.592 381.731 658.909 381.746 658.507 381.731C658.105 381.716 656.749 382.862 656.645 383.071C656.541 383.279 656.183 383.457 656.421 383.993C656.66 384.528 656.466 384.662 656.255 384.751C656.043 384.84 655.033 384.87 654.914 384.394C654.794 383.919 654.884 383.115 654.377 383.041C653.871 382.967 652.828 383.29 652.546 383.576C652.263 383.862 651.726 384.112 651.816 384.365C651.906 384.617 652.024 385.406 651.741 385.539C651.458 385.673 650.818 385.837 650.416 385.674C650.014 385.511 649.224 385.659 649.194 385.808C649.164 385.957 647.034 386.001 646.691 385.912C646.348 385.823 644.994 384.975 643.087 385.554C641.18 386.134 640.226 385.332 639.958 385.168C639.69 385.004 639.02 385.049 638.722 385.124C638.424 385.199 638.096 384.394 637.173 384.32C636.25 384.245 635.591 384.276 635.206 384.172C634.822 384.068 634.045 383.922 633.624 384.172C633.204 384.421 632.432 384.305 631.941 384.261C631.45 384.216 631.256 384.157 630.674 384.439C630.093 384.722 629.587 384.689 629.14 384.707C628.693 384.725 628.661 385.002 628.411 384.957L628.402 384.946Z" fill="#E9F3F1"/>
<path id="Vector_12" d="M638.825 425.401C639.095 425.088 639.718 424.588 640.294 424.486C640.871 424.385 641.566 424.071 642.002 424.347C642.438 424.624 643.493 424.942 643.711 424.962C643.929 424.982 644.803 425.676 645.043 425.914C645.283 426.152 646.135 426.648 646.354 426.707C646.573 426.766 647.208 427.224 646.854 427.441C646.5 427.659 646.636 427.857 646.298 427.798C645.96 427.739 645.798 427.421 645.404 427.382C645.01 427.343 644.867 427.521 644.689 427.521C644.511 427.521 644.153 427.621 644.189 427.189C644.226 426.756 644.011 426.613 643.673 426.534C643.335 426.455 643.435 426.296 643.174 426.197C642.912 426.098 643.035 425.899 642.776 425.781C642.518 425.663 641.843 425.464 641.465 425.464C641.087 425.464 641.187 425.325 640.79 425.325C640.692 425.325 640.402 425.242 640.224 425.339C639.732 425.607 638.883 425.921 638.824 425.801C638.741 425.642 638.658 425.596 638.824 425.404L638.825 425.401Z" fill="#E9F3F1"/>
<path id="Vector_13" d="M647.564 427.268C647.731 427.158 648.497 427.467 648.676 427.427C648.855 427.387 649.054 427.169 649.252 427.268C649.45 427.367 649.61 427.586 649.729 427.646C649.848 427.706 650.543 427.804 650.702 427.963C650.861 428.122 651.079 428.161 651.099 428.3C651.119 428.439 651.377 428.716 651.099 428.816C650.821 428.916 650.285 428.995 650.1 428.975C649.915 428.955 649.534 429.024 649.445 429.113C649.356 429.203 649.098 429.363 648.945 429.302C648.793 429.242 646.281 429.212 646.492 428.657C646.704 428.102 647.585 428.479 647.741 428.399C647.898 428.319 647.9 428.122 647.732 427.984C647.564 427.845 647.166 427.537 647.566 427.269L647.564 427.268Z" fill="#E9F3F1"/>
<path id="Vector_14" d="M644.624 436.165C644.416 436.523 644.029 436.88 643.612 436.939C643.194 436.998 642.628 436.791 642.363 436.939C642.097 437.087 642.124 437.713 642.363 437.862C642.462 437.917 642.543 437.999 642.596 438.1C642.649 438.2 642.672 438.314 642.661 438.427C642.631 438.606 643.614 439.674 643.197 440.956C642.78 442.237 642.364 442.831 641.948 443.068C641.532 443.306 640.756 444.497 640.578 444.972C640.399 445.448 640.071 446.847 640.429 447.384C640.56 447.586 640.615 447.828 640.586 448.067C640.557 448.306 640.445 448.528 640.269 448.693C640.041 448.871 639.773 449.823 640.102 450.479C640.431 451.134 641.741 452.025 641.801 452.829C641.861 453.633 642.966 454.409 643.111 454.852C643.256 455.295 644.244 456.515 644.304 456.931C644.363 457.347 644.929 458.511 645.495 458.745C646.061 458.98 645.852 459.192 646.328 459.37C646.803 459.548 649.277 460.617 649.545 461.691C649.628 462.039 649.832 462.492 649.903 463.354C650.049 465.157 650.04 467.844 650.141 468.77C650.29 470.138 650.23 470.048 650.141 470.316C650.052 470.584 650.141 472.518 650.469 473.024C650.797 473.531 651.154 475.553 650.469 477.636C650.148 478.61 651.094 479.511 651.094 480.284C651.094 481.057 651.452 482.28 651.72 482.456C651.988 482.632 652.942 484.3 653.031 485.431C653.12 486.562 653.388 486.294 653.537 486.918C653.612 487.231 653.689 487.948 653.964 488.654C654.24 489.36 654.714 490.057 654.88 490.311C655.208 490.816 656.053 492.522 656.748 492.562C657.443 492.602 657.601 492.483 657.82 492.423C658.039 492.363 658.952 492.662 659.032 493.017C659.112 493.373 659.052 493.831 659.568 493.831C660.055 493.846 660.537 493.933 660.998 494.089C661.176 494.172 662.508 494.248 662.488 493.871C662.468 493.493 662.368 493.335 662.131 493.256C661.893 493.177 660.898 493.077 660.144 492.383C659.39 491.689 659.644 491.907 659.568 491.59C659.491 491.272 659.33 491.134 659.131 490.994C658.932 490.855 658.396 490.34 658.416 490.102C658.436 489.864 658.555 489.388 658.654 489.329C658.754 489.27 658.774 488.951 658.754 488.675C658.734 488.398 659.41 488.138 659.489 487.861C659.568 487.583 659.549 486.988 659.231 486.889C658.913 486.789 658.694 486.731 658.674 486.572C658.649 486.428 658.579 486.296 658.475 486.194C658.376 486.076 658.277 485.62 658.455 485.421C658.634 485.222 658.893 484.846 658.833 484.548C658.774 484.25 658.734 483.854 659.092 483.517C659.45 483.179 659.549 482.625 659.508 482.426C659.467 482.227 660.045 481.772 660.124 481.375C660.203 480.978 660.363 480.065 660.957 479.966C661.55 479.867 662.795 479.099 662.843 478.102C662.883 477.289 663.638 476.813 663.759 476.595C663.881 476.377 664.733 475.563 664.992 474.829C665.25 474.096 665.865 472.786 666.24 472.549C666.385 472.465 666.506 472.347 666.593 472.205C666.68 472.063 666.731 471.901 666.74 471.735C666.76 471.477 667.216 470.922 667.474 470.724C667.732 470.526 667.534 469.037 667.375 468.681C667.216 468.324 667.276 466.974 668.885 466.578C670.493 466.181 670.217 466.022 670.334 465.923C670.452 465.824 671.845 465.923 672.043 465.685C672.241 465.446 672.202 465.169 672.459 465.07C672.717 464.971 672.995 464.515 672.916 464.177C672.837 463.84 673.174 463.346 673.373 463.067C673.571 462.789 673.631 462.313 673.612 461.996C673.592 461.68 673.612 461.321 673.87 461.183C674.128 461.045 673.87 460.052 674.068 459.775C674.266 459.497 674.009 458.902 673.949 458.704C673.889 458.506 673.651 457.692 673.91 457.156C674.169 456.621 674.882 455.609 675.359 454.954C675.836 454.3 677.742 452.654 676.531 449.877C676.139 448.979 675.498 449.659 675.021 449.242C674.544 448.826 673.453 447.695 672.995 447.556C672.538 447.417 671.447 447.576 670.914 447.298C670.381 447.02 667.32 445.414 666.783 445.374C666.247 445.334 665.075 444.601 664.877 443.788C664.678 442.974 664.141 442.637 664.161 442.24C664.181 441.844 663.784 440.97 663.486 440.931C663.188 440.892 662.791 440.078 662.175 439.979C661.559 439.879 661.321 439.582 660.926 439.622C660.53 439.662 659.357 439.705 658.92 439.123C658.483 438.541 658.004 437.576 657.51 437.556C657.015 437.536 656.437 436.683 656.715 436.157C656.993 435.632 656.596 435.295 655.961 435.315C655.326 435.335 654.511 435.193 654.054 435.315C653.598 435.436 653.796 435.673 653.538 435.713C653.28 435.753 652.544 435.732 652.346 435.454C652.148 435.177 652.048 435.197 651.651 435.266C651.253 435.335 650.402 434.919 650.3 434.741C650.198 434.563 649.863 434.622 649.684 434.403C649.505 434.185 648.234 433.689 647.579 434.245C646.924 434.8 646.487 434.88 646.247 434.78C646.007 434.68 645.831 434.88 645.532 435.038C645.234 435.196 644.757 435.474 644.718 435.673C644.679 435.872 644.635 436.159 644.635 436.159L644.624 436.165Z" fill="#E9F3F1"/>
<path id="Vector_15" d="M694.319 387.263C693.514 387.243 693.291 387.352 692.71 387.084C692.129 386.817 691.593 387.441 691.593 387.666C691.593 387.892 691.817 387.845 692.04 388.425C692.263 389.004 691.906 389.589 692.623 389.589C693.34 389.589 693.65 389.321 694.141 389.768C694.633 390.214 695.215 389.455 695.528 389.276C695.841 389.097 697.002 388.546 697.449 388.465C697.896 388.383 698.165 387.799 697.628 387.536C697.091 387.272 696.689 386.824 695.751 387.024C694.812 387.223 694.723 387.278 694.32 387.268L694.319 387.263Z" fill="#E9F3F1"/>
<path id="Vector_16" d="M686.186 375.794C685.25 375.907 683.996 376.15 683.281 376.016C682.566 375.883 681.404 375.517 680.866 375.923C680.328 376.329 680.062 376.552 679.213 376.505C678.365 376.459 678.409 376.55 676.621 376.863C674.834 377.175 674.521 377.22 674.387 377.528C674.253 377.837 673.269 378.11 672.51 378.11C671.751 378.11 670.051 378.288 670.095 378.601C670.14 378.913 670.364 379.895 671.168 380.029C671.971 380.163 674.386 379.761 675.414 380.386C676.442 381.01 676.398 382.126 676.04 382.662C675.683 383.197 675.951 384.001 676.308 384.403C676.666 384.804 676.934 385.206 676.353 385.295C675.771 385.384 674.342 385.877 674.566 387.883C674.79 389.89 675.057 390.651 675.37 391.052C675.683 391.454 675.906 391.543 676.442 391.454C676.979 391.365 677.202 391.409 677.381 391.811C677.56 392.214 678.185 392.481 678.721 392.079C679.258 391.677 679.839 390.606 680.241 390.25C680.643 389.894 681.269 389.937 681.358 389.313C681.447 388.688 681.76 388.065 682.476 388.065C683.191 388.065 683.459 388.021 683.861 387.932C684.263 387.843 686.542 386.995 686.989 386.548C687.436 386.101 687.481 386.057 688.375 386.013C689.268 385.968 691.324 385.656 691.816 385.209C692.308 384.763 693.022 384.763 693.38 384.627C693.737 384.492 694.229 383.645 694.095 382.976C693.961 382.307 694.542 382.084 695.123 381.95C695.704 381.816 696.732 380.388 696.91 379.807C697.088 379.227 696.598 378.643 697.268 378.379C697.938 378.116 698.608 377.531 699.1 377.442C699.591 377.353 701.245 377.085 701.379 376.772C701.513 376.46 701.468 376.371 700.887 376.371C700.306 376.371 699.114 376.504 697.922 376.193C696.731 375.881 694.229 375.077 693.066 375.3C691.904 375.522 689.938 376.193 689 375.835C688.062 375.478 686.9 375.704 686.185 375.791L686.186 375.794Z" fill="#E9F3F1"/>
<path id="Vector_17" d="M699.682 396.412C699.95 396.189 700.931 396.054 701.201 396.189C701.472 396.324 701.961 396.814 701.648 397.126C701.336 397.439 701.157 397.438 701.112 398.063C701.067 398.689 701.347 399.134 700.716 399.134C700.085 399.134 699.279 399.179 699.19 399.491C699.101 399.803 698.251 399.715 698.251 399.491C698.251 399.267 697.984 398.465 698.251 398.286C698.518 398.107 698.877 397.662 698.609 397.438C698.341 397.214 698.118 396.856 698.698 396.773C699.046 396.72 699.381 396.599 699.682 396.416V396.412Z" fill="#E9F3F1"/>
<path id="Vector_18" d="M703.347 393.332C702.865 393.332 702.81 393.064 702.363 393.332C701.917 393.6 701.984 393.6 701.749 393.957C701.514 394.315 701.372 394.27 701.443 394.672C701.513 395.073 701.015 395.296 701.443 395.698C701.871 396.099 702.632 396.68 702.632 396.903C702.632 397.125 703.214 397.26 703.034 397.617C702.853 397.973 701.96 397.884 702.05 398.199C702.14 398.513 701.717 399.091 701.749 399.446C701.781 399.801 701.403 400.606 701.749 400.651C702.095 400.696 702.945 400.472 703.347 400.338C703.749 400.204 704.821 400.294 705.223 400.026C705.624 399.757 705.983 399.624 705.849 399.444C705.715 399.263 705.76 399.131 706.072 399.042C706.384 398.953 706.564 397.941 706.072 397.911C705.58 397.881 705.358 397.926 705.358 397.346C705.358 396.765 705.358 396.721 704.955 396.498C704.553 396.274 704.508 396.542 704.419 395.649C704.33 394.756 704.329 393.329 703.347 393.329V393.332Z" fill="#E9F3F1"/>
<path id="Vector_19" d="M741.243 457.821C740.796 458.625 740.17 459.069 739.277 459.16C738.383 459.252 738.111 460.856 738.294 461.303C738.477 461.749 738.636 463.266 738.242 463.534C737.847 463.801 736.953 465.319 737.492 466.122C738.032 466.925 738.309 468.265 739.286 468.175C740.263 468.085 740.979 466.928 741.247 466.033C741.515 465.139 742.14 462.642 742.587 462.016C743.034 461.391 742.855 460.856 743.212 460.231C743.57 459.606 743.57 458.178 743.212 457.018C742.854 455.858 742.587 455.59 742.23 456.036C741.873 456.483 741.247 457.821 741.247 457.821H741.243Z" fill="#E9F3F1"/>
<path id="Vector_20" d="M696.464 418.012C696.106 418.771 695.347 419.485 694.9 419.709C694.453 419.932 694.275 419.842 694.007 420.467C693.738 421.091 693.067 421.359 692.934 421.939C692.801 422.52 692.532 423.279 692.085 423.591C691.638 423.903 690.836 425.242 691.012 425.733C691.189 426.225 690.923 427.027 691.28 427.697C691.637 428.366 691.638 429.928 691.28 430.374C690.922 430.82 689.895 432.613 690.744 433.993C691.594 435.372 692.755 435.507 693.159 436.444C693.563 437.381 693.918 439.032 695.126 439.479C696.333 439.925 697.315 441.085 697.623 441.308C697.931 441.531 698.831 441.174 699.233 440.951C699.635 440.727 700.349 440.415 700.886 440.594C701.422 440.773 702.45 441.039 702.763 440.995C703.076 440.951 703.612 440.413 704.193 440.281C704.773 440.149 705.802 439.389 706.785 439.567C707.767 439.745 708.215 440.37 708.304 440.731C708.393 441.092 708.751 441.713 709.735 441.579C710.718 441.445 711.745 441.713 711.7 442.784C711.655 443.855 711.567 444.257 711.388 444.837C711.209 445.417 710.628 446.398 712.014 447.604C713.399 448.81 713.444 449.836 713.533 450.099C713.622 450.361 714.199 451.125 714.248 451.884C714.297 452.642 714.739 454.249 714.914 454.919C715.089 455.588 714.467 456.212 714.199 456.57C713.931 456.928 713.797 458.846 713.44 459.114C713.083 459.383 713.127 460.81 713.261 461.033C713.395 461.257 714.396 464.201 714.946 464.559C715.496 464.916 715.362 465.764 715.362 466.165C715.362 466.567 715.585 467.504 715.63 467.817C715.674 468.129 715.854 470.45 716.747 470.673C717.64 470.896 717.239 471.7 717.418 472.101C717.597 472.503 717.954 473.127 717.865 473.663C717.776 474.198 717.954 475.716 718.266 475.85C718.579 475.984 719.742 476.385 721.305 475.85C722.869 475.314 722.736 475.85 723.45 475.627C724.165 475.404 726.892 474.511 727.741 472.503C728.59 470.495 729.171 471.03 729.305 469.959C729.439 468.888 729.752 468.45 730.065 468.178C730.379 467.905 732.255 466.567 731.808 464.648C731.361 462.729 731.763 462.64 732.299 462.237C732.836 461.833 733.596 460.585 734.489 460.495C735.383 460.406 736.367 458.398 736.188 457.639C736.009 456.88 736.096 456.211 736.208 455.631C736.321 455.052 735.607 453.757 735.383 453.132C735.159 452.507 735.651 451.124 735.07 450.365C734.489 449.605 735.338 449.294 735.696 448.49C736.054 447.687 736.143 447.467 736.679 447.064C737.215 446.66 738.869 443.804 739.405 443.625C739.941 443.447 742.042 442.072 742.533 440.279C742.854 439.108 744.232 437.11 744.276 435.95C744.32 434.79 745.036 434.031 743.472 434.477C741.909 434.924 739.003 436.039 738.69 435.191C738.377 434.343 738.69 434.433 738.243 433.944C737.797 433.455 736.143 431.355 735.607 431.532C735.07 431.709 734.623 430.639 734.668 429.881C734.713 429.123 734.444 428.587 733.819 428.186C733.194 427.784 733.372 426.133 732.97 425.686C732.567 425.24 732.522 424.57 732.031 424.439C731.54 424.307 730.11 421.446 730.155 420.868C730.2 420.291 730.199 418.816 729.488 418.012C728.778 417.209 728.415 416.629 727.209 417.12C726.002 417.612 725.377 417.071 725.064 416.939C724.751 416.807 723.768 416.856 723.321 416.54C722.874 416.224 722.382 416.45 722.156 416.182C721.929 415.914 720.99 415.469 720.681 415.647C720.372 415.825 718.983 415.959 719.206 416.674C719.43 417.388 719.34 417.745 718.983 417.789C718.627 417.834 718.008 417.254 717.445 417.03C716.882 416.807 716.301 417.03 716.122 416.365C715.943 415.7 715.184 415.436 714.693 415.61C714.202 415.785 712.861 415.651 712.726 414.937C712.591 414.224 712.235 414.58 712.592 414.223C712.949 413.867 712.637 413.241 712.771 412.795C712.905 412.348 712.949 411.322 711.386 411.679C709.822 412.036 709.732 411.858 708.928 412.08C708.124 412.303 708.302 411.947 707.586 411.992C706.871 412.036 705.934 412.438 705.487 412.304C705.04 412.17 704.726 412.348 704.503 412.751C704.28 413.153 704.503 413.018 703.699 413.241C702.895 413.465 701.732 413.823 701.284 413.643C700.836 413.462 700.882 413.061 700.391 413.196C699.9 413.332 699.765 413.152 699.765 413.688C699.765 414.223 699.721 414.446 699.363 414.669C699.005 414.892 697.843 415.339 697.487 415.964C697.13 416.588 696.459 418.016 696.459 418.016L696.464 418.012Z" fill="#E9F3F1"/>
<path id="Vector_21" d="M779.274 439.969C778.962 440.148 779.006 440.416 779.274 440.818C779.542 441.219 780.927 441.888 780.883 442.558C780.839 443.227 781.549 443.228 781.733 443.763C781.916 444.299 783.206 445.816 783.385 446.575C783.564 447.334 783.877 448.316 784.458 448.316C785.038 448.316 785.041 449.119 785.665 449.563C786.29 450.007 786.603 450.991 787.14 451.214C787.677 451.436 788.301 451.66 788.301 451.66C788.301 451.66 789.106 452.062 789.777 452.062C790.447 452.062 790.982 452.644 792.144 452.727C793.307 452.81 793.218 452.459 793.619 452.727C794.02 452.995 794.513 452.801 794.647 452.742C794.781 452.683 794.781 452.825 795.094 452.865C795.406 452.905 795.676 452.147 795.094 452.058C794.511 451.968 793.709 451.567 793.709 451.254C793.709 450.942 793.172 450.63 792.726 450.808C792.279 450.986 791.429 450.54 791.027 450.763C790.625 450.986 790.444 450.942 790.179 450.898C789.913 450.854 788.659 450.763 788.48 450.451C788.301 450.139 787.452 448.844 787.765 448.309C788.078 447.775 788.078 446.926 787.587 446.836C787.095 446.746 787.14 446.479 786.827 445.899C786.513 445.318 786.111 444.337 785.173 443.98C784.235 443.622 782.983 442.462 782.536 441.838C782.089 441.213 781.37 440.99 781.33 440.722C781.289 440.454 780.346 439.963 779.81 439.963L779.274 439.969Z" fill="#E9F3F1"/>
<path id="Vector_22" d="M795.437 439.479C795.094 439.969 794.468 440.684 794.111 440.773C793.754 440.861 793.664 441.085 793.441 441.487C793.218 441.888 791.742 442.781 791.206 442.959C790.67 443.137 789.866 443.625 789.957 444.075C790.049 444.526 790.225 444.968 790.181 445.281C790.137 445.594 790.27 446.352 790.717 446.842C791.164 447.333 790.761 447.958 791.209 448.007C791.656 448.055 791.969 447.962 792.147 448.229C792.325 448.497 792.683 448.14 792.951 448.229C793.219 448.318 793.8 448.407 794.248 448.721C794.695 449.034 795.022 448.765 795.439 448.721C795.856 448.677 796.035 448.542 795.99 448.139C795.945 447.735 795.735 446.975 795.997 446.665C796.258 446.356 796.213 446.041 796.663 445.952C797.113 445.863 797.199 445.416 797.246 445.148C797.292 444.879 797.693 444.791 797.871 444.566C798.049 444.341 798.184 444.119 797.871 443.901C797.558 443.682 796.889 442.622 797.157 442.079C797.425 441.536 797.112 441.669 797.604 441.267C798.096 440.866 798.765 440.464 798.363 440.241C797.961 440.018 797.38 439.884 797.023 439.482C796.665 439.081 796.307 438.322 796.084 438.679C795.891 438.963 795.677 439.231 795.443 439.482L795.437 439.479Z" fill="#E9F3F1"/>
<path id="Vector_23" d="M801.485 444.031C800.859 443.942 800.591 444.254 800.319 444.031C800.047 443.808 799.694 443.462 799.426 443.724C799.158 443.986 798.71 443.986 798.666 444.433C798.622 444.879 798.287 445.281 798.476 445.597C798.666 445.913 798.174 446.272 798.085 446.428C797.996 446.585 798.129 446.805 798.085 447.162C798.041 447.518 797.459 447.563 797.683 447.965C797.907 448.367 798.266 448.531 798.266 448.873C798.266 449.215 797.998 450.018 798.176 450.152C798.354 450.286 798.936 450.42 799.07 450.152C799.204 449.884 799.472 449.304 800.008 449.57C800.545 449.836 800.5 450.37 800.902 450.304C801.304 450.238 801.84 449.926 801.485 449.301C801.129 448.677 800.319 447.499 800.769 446.973C801.22 446.447 801.186 446.308 801.602 446.134C802.018 445.96 801.709 445.469 801.798 445.241C801.887 445.013 802.021 444.928 802.468 444.482C802.915 444.035 803.228 443.278 802.914 443.278C802.6 443.278 802.379 443.423 802.155 443.729C801.931 444.036 801.485 444.036 801.485 444.036V444.031Z" fill="#E9F3F1"/>
<path id="Vector_24" d="M798.48 428.411C797.836 428.557 797.763 428.545 797.635 429.393C797.506 430.241 797.052 430.999 797.635 431.847C798.218 432.696 798.893 433.095 799.295 433.052C799.502 433.035 799.709 433.076 799.893 433.171C800.078 433.266 800.232 433.41 800.338 433.588C800.546 433.945 801.395 434.034 801.574 433.9C801.753 433.766 801.664 433.23 801.574 432.874C801.484 432.518 800.949 432.204 800.725 432.292C800.501 432.38 799.965 432.158 799.697 432.247C799.429 432.337 799.161 432.113 799.206 431.712C799.251 431.31 799.323 430.775 799.511 430.685C799.698 430.595 799.965 430.417 799.875 429.793C799.785 429.168 799.854 428.097 798.48 428.409V428.411Z" fill="#E9F3F1"/>
<path id="Vector_25" d="M798.58 461.571C797.775 462.374 797.239 462.642 796.569 462.686C795.899 462.73 795.228 463.268 794.647 463.4C794.066 463.532 793.482 463.668 793.441 463.982C793.4 464.296 792.592 464.517 792.275 464.564C791.959 464.611 792.186 465.59 791.65 466.037C791.114 466.483 790.219 468.625 790.935 469.339C791.65 470.053 791.024 472.508 791.293 473.043C791.562 473.579 791.293 474.471 790.89 474.873C790.487 475.274 789.509 475.855 790.668 476.345C791.827 476.836 792.543 476.748 792.9 476.345C793.258 475.943 794.143 475.855 794.348 475.763C794.554 475.672 794.881 475.347 795.431 475.555C795.98 475.763 796.965 475.362 797.367 474.96C797.77 474.558 798.753 473.796 799.289 473.978C799.825 474.16 801.121 473.889 801.524 473.71C801.927 473.532 802.819 473.045 803.49 473.443C804.16 473.84 804.83 473.889 804.965 474.424C805.1 474.958 805.367 474.781 805.277 475.272C805.187 475.762 805.764 476.345 806.728 476.679C807.691 477.012 807.601 477.681 807.512 478.441C807.423 479.2 810.327 480.538 811.981 480.137C813.634 479.735 813.009 479.735 813.679 479.468C814.35 479.2 814.144 478.843 814.783 478.753C815.423 478.663 815.109 478.843 815.825 477.771C816.541 476.699 816.408 477.012 816.762 476.7C817.117 476.389 816.673 475.718 817.701 475.183C818.728 474.647 819.444 474.201 819.489 473.754C819.534 473.308 819.981 473.264 820.16 472.906C820.339 472.549 820.249 472.193 820.874 471.434C821.499 470.675 821.433 469.426 821.801 468.979C822.17 468.533 822.081 466.792 821.321 466.525C820.561 466.257 819.399 462.508 818.729 462.241C818.328 462.08 817.791 461.883 817.791 461.883C817.662 461.56 818.077 461.072 818.148 460.767C818.327 460.009 817.565 458.804 817.482 458.313C817.399 457.821 816.409 456.082 816.409 455.68C816.409 455.279 815.827 454.743 815.471 455.189C815.116 455.635 814.935 456.305 814.98 456.617C815.025 456.93 814.488 457.782 814.577 458.269C814.666 458.756 813.994 459.25 813.862 459.964C813.731 460.678 813.28 460.411 812.923 460.277C812.567 460.143 811.851 459.385 811.36 459.25C810.868 459.115 810.6 458.046 810.912 457.643C811.225 457.241 811.181 456.978 811.271 456.751C811.36 456.524 811.494 455.903 811.226 455.769C810.957 455.635 809.304 455.591 808.902 455.323C808.5 455.055 807.653 454.54 807.382 455.02C807.112 455.501 805.997 456.215 805.774 456.573C805.55 456.93 805.013 457.732 805.058 457.956C805.103 458.18 804.567 458.269 804.432 457.867C804.297 457.466 803.583 456.93 803.003 457.285C802.422 457.64 800.813 458.356 800.634 458.981C800.455 459.605 799.74 459.563 799.427 459.874C799.114 460.185 798.578 461.57 798.578 461.57L798.58 461.571Z" fill="#E9F3F1"/>
<path id="Vector_26" d="M783.967 438.582C784.549 438.854 785.575 440.238 785.665 440.595C785.755 440.951 785.888 441.888 785.932 442.335C785.976 442.782 786.558 443.462 786.379 443.724C786.2 443.986 785.654 443.942 785.19 443.54C784.727 443.137 783.608 442.201 783.43 441.487C783.347 441.141 783.249 440.578 782.983 440.119C782.702 439.632 782.251 439.251 782.179 439.032C782.03 438.582 781.709 438.367 781.375 438.051C781.208 437.897 781.434 436.471 781.474 436.29C781.514 436.109 781.315 435.557 781.434 435.279C781.553 435.001 781.454 433.633 781.176 433.315C780.897 432.997 780.321 431.629 780.343 431.351C780.365 431.073 779.866 430.598 779.548 430.717C779.23 430.836 778.754 430.955 778.715 431.193C778.677 431.431 778.278 431.173 778.199 431.014C778.12 430.855 777.544 431.43 777.564 430.796C777.584 430.161 777.961 429.785 776.709 427.603C776.429 427.113 776.626 427.999 776.21 427.325C775.794 426.651 775.294 426.353 775.377 426.135C775.461 425.917 775.139 425.282 774.345 425.5C773.55 425.718 772.577 425.739 772.359 425.857C772.141 425.976 771.664 426.293 771.723 426.71C771.782 427.126 771.247 427.444 771.028 427.583C770.81 427.722 770.214 427.979 769.995 428.476C769.776 428.972 769.419 428.852 769.379 429.269C769.339 429.686 768.463 429.768 768.463 430.184C768.463 430.599 767.589 430.838 767.272 431.354C766.955 431.869 767.331 432.623 767.272 433.139C767.213 433.654 766.835 435.083 766.974 435.479C767.113 435.876 767.013 435.956 766.795 436.035C766.577 436.114 766.855 436.411 766.437 436.749C766.112 437.003 765.812 437.289 765.543 437.602C765.266 437.92 764.829 438.213 764.352 437.263C763.875 436.313 763.696 435.184 763.378 435.024C763.06 434.863 762.703 433.776 762.643 433.337C762.583 432.898 762.028 431.79 761.75 431.611C761.472 431.433 760.677 429.192 760.796 428.736C760.916 428.28 760.697 427.982 760.538 427.724C760.379 427.466 760.717 427.169 760.538 426.951C760.359 426.733 760.161 426.434 759.843 426.514C759.525 426.594 759.011 427.07 758.511 426.296C758.011 425.521 757.776 425.899 757.657 425.701C757.538 425.503 757.157 424.908 757.26 424.59C757.362 424.273 756.405 424.194 756.306 423.956C756.207 423.718 755.651 423.041 755.373 422.845C755.095 422.649 753.982 422.467 753.541 422.706C753.1 422.945 751.163 423.661 748.379 422.27C748.14 422.151 747.982 421.337 747.803 421.238C747.624 421.138 747.147 421.06 747.187 421.337C747.226 421.615 746.511 421.654 746.333 421.575C746.155 421.496 744.501 420.957 744.202 420.661C743.924 420.383 743.786 420.452 743.666 420.437C743.546 420.422 743.16 419.649 743.13 419.439C743.1 419.23 742.534 418.352 742.162 418.367C741.79 418.382 741.104 418.367 741.208 419.023C741.312 419.678 741.864 420.569 742.386 420.718C742.908 420.867 743.309 421.313 743.398 421.506C743.487 421.699 743.919 421.655 743.981 422.088C744.043 422.521 744.204 423.01 744.011 423.055C743.818 423.1 743.966 423.353 744.085 423.398C744.204 423.443 745.251 423.666 745.709 423.413C746.167 423.16 746.349 422.951 746.468 422.714C746.587 422.476 747.348 422.148 747.66 422.609C747.973 423.069 748.301 423.829 748.748 423.829C749.194 423.829 749.537 423.918 749.776 424.305C750.015 424.692 750.49 424.87 750.446 425.257C750.402 425.644 750.073 426.626 749.746 426.967C749.419 427.309 749.21 427.831 749.299 428.172C749.388 428.514 749.001 428.455 748.852 428.605C748.703 428.754 748.167 429.452 747.749 429.452C747.332 429.452 747.228 429.735 747.213 429.898C747.198 430.062 746.99 430.047 746.811 430.065C746.632 430.082 746.066 430.54 745.754 430.555C745.441 430.57 745.202 430.853 745.127 431.017C745.053 431.181 745.142 431.225 744.993 431.418C744.844 431.612 744.174 431.969 743.966 431.969C743.758 431.969 743.341 431.984 742.983 432.267C742.625 432.549 742.193 432.802 741.984 432.772C741.774 432.742 741.209 433.01 741.046 433.204C740.883 433.397 740.077 433.411 739.928 433.515C739.779 433.619 739.481 434.23 738.885 433.724C738.289 433.218 738.259 432.787 738.126 432.326C737.993 431.864 737.619 431.865 737.441 430.927C737.263 429.989 736.651 429.264 736.472 429.128C736.293 428.991 736.502 428.621 736.338 428.428C736.174 428.235 735.519 427.264 735.116 427.181C734.713 427.098 734.312 425.827 734.327 425.292C734.342 424.757 733.612 423.804 733.358 423.712C733.105 423.62 732.807 423.028 732.733 422.79C732.659 422.552 731.869 421.362 731.567 421.139C731.266 420.916 731.255 420.395 731.151 420.276C731.047 420.156 730.901 419.487 730.794 419.413C730.687 419.339 729.975 417.464 730.273 417.063C730.571 416.661 730.523 416.289 730.631 416.036C730.73 415.785 730.776 415.517 730.764 415.248C730.75 415.025 731.137 414.638 731.151 414.355C731.165 414.073 731.018 413.358 731.092 413.27C731.166 413.181 731.002 412.585 730.69 412.629C730.378 412.673 729.826 412.614 729.632 412.912C729.438 413.21 728.783 413.078 728.633 412.987C728.482 412.895 728.483 412.808 728.483 412.749C728.483 412.69 727.664 412.838 727.396 412.54C727.128 412.243 727.307 412.838 727.083 412.808C726.859 412.778 726.417 412.912 725.907 412.57C725.396 412.228 725.31 412.522 725.074 412.457C724.837 412.392 723.897 411.618 723.808 410.877C723.718 410.136 723.957 409.464 723.673 409.241C723.39 409.018 723.007 408.839 722.779 408.839C722.551 408.839 722.196 408.958 722.139 409.271C722.081 409.584 722.094 410.297 722.258 410.625C722.422 410.952 722.328 411.488 722.107 411.518C721.887 411.548 721.961 411.978 721.886 412.291C721.811 412.603 721.38 412.707 721.082 412.574C720.783 412.441 720.396 412.158 720.366 411.607C720.336 411.055 719.384 410.64 719.22 409.97C719.056 409.301 718.951 409.45 718.832 409.375C718.713 409.3 718.937 408.543 718.758 408.23C718.579 407.916 718.008 406.965 717.443 406.861C716.878 406.757 717.342 406.682 716.943 406.504C716.545 406.325 715.811 406.013 715.722 405.626C715.633 405.24 715.112 405.016 714.784 404.927C714.456 404.838 714.083 404.585 713.951 405.031C713.895 405.231 713.904 405.444 713.976 405.639C714.048 405.834 714.18 406.001 714.353 406.117C714.651 406.296 714.844 406.608 714.875 406.831C714.906 407.055 715.679 407.635 715.843 407.62C716.007 407.605 716.439 407.753 716.633 407.947C716.827 408.141 717.943 408.661 718.077 408.899C718.211 409.138 718.45 409.465 718.256 409.599C718.063 409.732 717.734 409.584 717.645 409.479C717.556 409.374 717.169 409.229 717.109 409.36C717.049 409.49 716.87 409.702 717.034 409.806C717.198 409.91 717.436 410.312 717.184 410.551C716.932 410.789 717.018 410.981 716.901 411.086C716.784 411.191 716.126 411.577 716.068 411.502C716.011 411.427 715.902 411.77 715.963 412.037C716.025 412.305 715.651 412.543 715.279 412.32C714.907 412.097 714.727 411.947 714.415 411.858C714.103 411.77 713.416 411.397 713.804 411.085C714.192 410.773 715.16 411.114 715.338 411.055C715.516 410.996 715.963 411.025 716.053 410.817C716.143 410.61 716.232 410.49 716.232 410.192C716.232 409.895 715.635 409.076 715.323 408.987C715.011 408.898 712.761 407.485 712.463 407.068C712.165 406.652 712.061 406.086 711.688 405.967C711.315 405.848 711.242 405.655 710.899 405.982C710.556 406.31 710.452 406.265 710.124 406.369C709.797 406.473 709.856 406.845 709.648 406.86C709.44 406.875 708.754 406.694 708.482 406.593C708.211 406.491 707.317 406.518 707.261 407.083C707.205 407.649 707.236 408.239 706.606 408.392C706.363 408.451 706.233 408.779 705.592 408.779C705.413 408.779 705.176 409.508 704.996 409.611C704.816 409.714 704.58 409.909 704.609 410.132C704.638 410.356 704.877 410.578 704.699 410.802C704.521 411.025 704.237 411.128 704.222 411.367C704.207 411.606 704.282 411.798 703.972 411.873C703.662 411.947 703.376 412.408 703.093 412.512C702.81 412.616 702.094 412.751 701.886 412.661C701.679 412.571 701.35 412.691 701.276 412.827C701.202 412.964 700.427 412.916 700.293 412.782C700.159 412.648 699.757 412.262 699.533 412.2C699.309 412.139 698.505 412.185 698.311 412.185C698.117 412.185 697.88 411.724 697.909 411.143C697.938 410.563 697.581 410.728 697.567 410.608C697.553 410.488 697.909 409.894 698.073 409.448C698.237 409.002 698.251 408.168 698.251 407.856C698.251 407.543 698.326 407.544 698.341 407.32C698.356 407.097 698.013 406.681 698.43 406.547C698.847 406.413 698.937 406.249 698.996 406.16C699.056 406.071 699.369 405.937 699.623 406.085C699.876 406.234 701.082 406.026 701.276 406.189C701.47 406.352 702.617 406.219 702.81 406.323C703.003 406.427 703.302 406.592 703.525 406.413C703.748 406.234 703.868 405.818 703.808 405.61C703.748 405.402 704.106 405.141 704.058 404.773C704.01 404.404 703.731 403.378 703.284 403.214C702.836 403.051 702.687 402.59 702.166 402.664C701.645 402.738 701.846 402.322 701.746 402.188C701.645 402.054 701.258 401.757 701.809 401.682C702.36 401.607 703.373 401.697 703.596 401.206C703.819 400.716 704.461 400.701 704.609 400.85C704.757 400.998 705.041 401.206 705.294 400.894C705.547 400.581 705.741 400.756 705.86 400.662C706.031 400.514 706.147 400.312 706.189 400.09C706.218 399.853 706.739 399.585 707.021 399.451C707.303 399.317 707.692 399.227 707.96 398.841C708.228 398.454 708.884 397.547 709.361 397.621C709.838 397.695 710.239 397.455 710.492 397.1C710.745 396.746 710.597 396.222 710.566 395.985C710.536 395.747 710.447 394.899 710.954 394.691C711.461 394.483 711.537 394.125 711.834 394.275C712.13 394.425 712.131 394.394 712.176 394.751C712.221 395.107 712.28 395.465 712.146 395.852C712.012 396.238 712.191 396.913 712.519 396.941C712.847 396.968 713.01 397.122 713.248 396.941C713.486 396.76 714.023 396.506 714.217 396.7C714.41 396.893 714.53 397.146 714.738 397.22C714.946 397.294 715.275 397.309 715.781 397.041C716.287 396.774 716.988 396.521 717.434 396.566C717.88 396.611 718.864 396.581 718.998 395.673C719.132 394.765 718.968 393.977 720.247 394.021C721.526 394.065 720.932 393.084 720.724 392.847C720.516 392.609 719.413 392.326 719.324 392.058C719.235 391.791 718.847 391.672 718.922 391.404C718.997 391.136 718.907 391.18 718.862 390.957C718.817 390.735 718.728 390.66 718.743 390.303C718.758 389.946 719.13 389.336 719.666 389.246C720.202 389.156 720.039 388.741 720.411 388.592C720.783 388.443 720.783 388.458 720.843 388.235C720.903 388.012 720.932 387.907 720.605 387.922C720.278 387.937 719.696 387.848 719.428 388.041C719.16 388.234 718.762 388.592 718.762 388.963C718.762 389.335 718.434 389.44 717.973 389.648C717.511 389.856 716.23 390.124 716.661 391.046C717.092 391.968 716.855 391.538 717.108 391.672C717.361 391.806 717.958 392.445 717.644 392.609C717.331 392.773 717.555 392.921 717.421 393.069C717.223 393.301 716.963 393.471 716.672 393.561C716.285 393.68 716.256 394.364 716.195 394.899C716.134 395.435 716.27 395.718 715.555 395.718C714.839 395.718 715.048 395.673 714.914 395.896C714.78 396.12 713.455 396.447 713.112 396.402C712.769 396.357 712.725 395.82 712.945 395.748C713.166 395.675 713.377 395.361 713.571 395.332C713.765 395.303 713.869 394.9 713.496 394.633C713.123 394.365 712.767 393.621 712.603 393.547C712.439 393.473 712.275 393.085 712.007 393.131C711.739 393.177 711.516 393.235 711.247 393.592C710.979 393.95 709.296 394.381 709.073 393.071C708.85 391.761 708.823 391.97 708.73 391.613C708.636 391.257 708.536 390.528 709.608 390.215C710.68 389.902 710.457 389.62 710.774 389.501C711.09 389.381 712.234 388.995 712.755 388.356C713.277 387.716 714.364 385.99 715.466 385.499C716.569 385.009 716.331 384.77 716.584 384.636C716.771 384.551 716.923 384.404 717.016 384.221C717.12 384.042 718.118 384.206 718.475 384.102C718.833 383.998 718.818 383.596 719.399 383.581C719.979 383.566 723.094 383.625 723.465 383.819C723.837 384.013 724.151 383.985 724.315 384.162C724.478 384.338 724.822 384.176 725.064 384.429C725.306 384.683 725.183 384.711 726.3 384.86C727.418 385.009 729.249 385.442 729.608 385.827C729.966 386.212 730.773 386.363 731.142 386.185C731.511 386.007 731.677 385.678 732.125 385.455C732.572 385.233 732.676 385.233 733.078 385.485C733.48 385.738 733.328 385.723 733.54 385.887C733.752 386.051 734.289 386.125 734.865 385.917C735.442 385.709 735.581 385.667 735.894 385.634C736.207 385.601 736.371 385.084 736.862 385.114C737.353 385.144 738.605 385.084 738.888 385.233C739.171 385.381 739.812 385.203 740.168 384.983C740.525 384.764 740.675 384.194 741.242 384.284C741.808 384.374 742.061 384.358 742.582 384.403C743.103 384.448 743.581 384.016 743.774 383.674C743.966 383.331 744.161 383.198 744.296 383.168C744.431 383.138 743.953 382.707 744.296 382.454C744.639 382.201 745.695 381.858 746.351 382.246C747.006 382.633 746.843 382.692 747.171 382.692C747.499 382.692 747.885 382.499 748.303 382.442C748.721 382.386 748.719 382.427 749.181 382.412C749.644 382.397 750.269 382.391 750.343 382.075C750.417 381.758 750.373 381.576 750.954 381.594C751.535 381.612 751.505 381.416 752.28 381.326C753.054 381.236 752.696 380.661 753.799 380.583C754.902 380.505 753.844 380.181 754.588 380.151C755.333 380.121 756.495 380.091 756.587 379.914C756.678 379.736 757.659 379.646 757.882 379.735C758.105 379.824 758.12 379.735 758.538 379.485C758.956 379.236 760.31 378.771 761.011 378.994C761.712 379.217 762.218 379.243 762.888 379.455C763.558 379.667 763.632 379.604 764.199 379.622C764.765 379.639 766.537 379.871 767.119 380.753C767.7 381.634 767.701 381.584 768.087 381.63C768.472 381.675 769.472 381.764 769.994 381.809C770.515 381.853 770.545 381.541 770.887 381.571C771.229 381.601 773.182 381.317 773.986 381.585C774.79 381.853 776.861 382.031 777.293 381.957C777.725 381.883 778.768 382.284 779.304 382.657C779.84 383.029 781.106 383.415 782.209 382.879C783.311 382.344 783.937 382.21 784.89 382.374C785.843 382.538 788.54 382.523 788.97 382.731C789.399 382.939 790.043 383.102 790.355 383.117C790.667 383.132 791.234 383.594 791.711 383.594C792.187 383.594 792.679 383.76 793.334 383.609C793.99 383.457 795.316 383.475 795.749 383.743C796.182 384.01 796.345 383.802 796.598 383.861C796.851 383.921 796.97 384.099 797.149 384.277C797.328 384.455 799.994 384.813 801.305 384.527C802.615 384.241 802.214 384.289 802.958 384.304C803.703 384.319 807.949 384.304 808.649 384.764C809.348 385.225 809.856 385.166 810.466 385.151C811.076 385.136 813.654 385.899 814.205 386.193C814.757 386.486 815.07 386.58 815.755 386.595C816.44 386.61 818.362 387.07 818.645 387.547C818.928 388.023 819.24 388.529 818.957 388.751C818.674 388.974 817.781 389.153 817.587 388.974C817.393 388.796 817.438 388.781 816.916 388.662C816.395 388.544 815.353 388.395 815.353 388.247C815.353 388.099 815.412 388.038 814.802 388.157C814.191 388.276 813.446 388.946 814.683 389.288C815.919 389.629 816.902 390.076 815.931 390.434C814.961 390.791 815.099 390.285 814.397 390.894C813.695 391.504 813.116 392.531 812.281 392.412C811.447 392.293 811.194 392.353 810.986 392.531C810.778 392.708 810.032 392.635 810.136 393.052C810.241 393.468 810.479 394.138 810.763 394.242C811.046 394.346 811.804 395.149 811.864 395.804C811.924 396.459 812.415 395.759 812.46 396.607C812.505 397.455 812.341 398.615 812.211 399.166C812.08 399.716 811.852 400.207 811.346 399.748C810.84 399.289 809.455 398.245 809.231 397.799C809.007 397.352 808.694 397.134 808.203 396.892C807.712 396.65 806.088 394.973 806.52 393.898C806.951 392.824 807.071 392.59 806.997 392.382C806.923 392.174 807.384 392.188 807.13 391.979C806.876 391.771 806.699 391.667 806.311 391.73C805.924 391.792 805.849 391.671 805.805 391.611C805.761 391.551 805.328 391.777 805.222 391.477C805.117 391.177 803.428 390.366 803.464 391.671C803.479 392.206 803.807 392.295 803.911 392.474C804.015 392.653 804.149 392.95 803.911 393.098C803.673 393.247 802.451 393.514 802.198 393.366C801.945 393.218 801.692 393.117 801.379 392.965C801.066 392.812 800.485 392.891 800.009 392.906C799.532 392.921 798.906 392.739 798.742 392.98C798.578 393.22 798.117 392.891 797.685 392.891C797.253 392.891 795.837 392.742 795.912 393.962C795.987 395.181 795.614 394.884 795.45 395.285C795.286 395.687 794.735 395.583 795.331 396.044C795.927 396.506 796.716 397.219 797.029 397.1C797.342 396.982 797.834 396.934 798.549 397.056C799.264 397.177 799.353 397.189 799.68 397.07C800.008 396.952 800.247 396.669 800.575 397.264C800.903 397.86 800.887 398.067 801.289 398.141C801.691 398.215 801.393 398.067 801.84 398.663C802.287 399.258 802.481 399.005 802.749 399.585C803.018 400.165 802.749 399.972 803.256 400.403C803.762 400.835 803.658 400.582 804.12 400.985C804.582 401.388 804.492 401.431 804.596 401.714C804.7 401.996 804.983 402.592 805.207 403.112C805.431 403.633 806.027 403.9 805.374 404.153C804.721 404.406 804.541 404.347 804.182 403.707C803.824 403.068 803.169 401.476 802.38 402.011C801.59 402.547 802.141 404.256 801.769 404.808C801.396 405.36 801.486 406.296 801.232 406.727C800.979 407.159 799.966 407.471 799.534 407.393C799.102 407.314 798.879 407.63 798.819 408.241C798.759 408.851 797.687 409.668 797.94 409.936C798.193 410.204 799.445 410.955 799.549 411.419C799.653 411.884 800.979 412.956 800.756 413.477C800.533 413.997 800.219 414.072 799.847 414.142C799.475 414.212 799.46 414.677 799.058 414.514C798.656 414.351 798.475 414.276 798.372 413.711C798.27 413.146 797.865 412.223 797.255 411.926C796.645 411.629 796.034 411.227 796.034 410.616C796.034 410.006 795.497 409.753 795.065 409.813C794.633 409.873 794.037 410.051 793.9 410.378C793.762 410.706 793.244 410.705 793.2 410.349C793.156 409.992 793.006 409.843 793.096 409.709C793.186 409.575 792.872 409.084 792.336 409.278C791.8 409.471 791.696 410.586 792.086 410.941C792.477 411.295 792.443 411.535 792.637 411.523C792.826 411.518 793.012 411.481 793.189 411.414C793.337 411.344 793.784 411.359 793.948 411.523C794.112 411.686 794.544 411.701 794.797 411.701C795.05 411.701 795.557 412.087 794.901 412.355C794.246 412.623 793.71 413.186 793.844 413.546C793.978 413.905 794.395 414.26 794.723 414.71C795.051 415.159 795.229 415.989 795.527 416.078C795.825 416.167 797.478 417.566 796.957 419.604C796.436 421.642 796.51 421.255 796.347 421.3C796.183 421.345 796.123 421.702 796.153 422.073C796.183 422.445 795.929 422.891 795.661 423.085C795.393 423.279 795.029 423.972 794.574 424.171C794.041 424.405 794.528 424.618 794.127 424.662C793.726 424.706 793.263 425.004 793.055 425.064C792.846 425.124 792.92 425.242 792.816 425.376C792.712 425.51 791.832 425.748 791.356 426.254C790.88 426.76 789.553 427.444 789.108 426.953C788.662 426.463 788.318 426.122 787.859 426.254C787.4 426.386 786.235 427.236 786.578 428.158C786.92 429.08 788.992 430.643 789.065 431.103C789.139 431.564 789.691 431.877 789.648 432.443C789.606 433.008 790.021 433.108 790.035 433.514C790.05 433.92 789.961 434.971 789.663 435.076C789.365 435.181 789.157 435.686 788.606 435.864C788.055 436.043 788.234 436.623 787.593 436.831C786.953 437.04 787.623 437.322 787.146 437.441C786.67 437.56 786.431 437.916 786.118 437.025C785.805 436.134 785.493 435.79 785.299 435.778C785.105 435.765 784.986 435.113 784.956 434.99C784.927 434.867 784.196 433.903 783.854 433.978C783.512 434.053 782.99 433.74 782.841 434.26C782.692 434.781 782.425 434.766 782.335 435.376C782.245 435.987 782.156 435.972 782.231 436.298C782.305 436.625 782.275 436.76 782.439 436.656C782.603 436.552 782.618 436.433 782.767 436.716C782.916 436.999 783.154 436.953 783.016 437.37C782.879 437.788 782.942 437.504 783.183 437.906C783.424 438.307 783.495 438.727 783.733 438.664L783.972 438.601L783.967 438.582Z" fill="#E9F3F1"/>
<path id="Vector_27" d="M802.914 413.49C802.512 413.669 802.304 413.966 802.111 414.321C801.918 414.676 801.872 414.932 801.709 415.095C801.546 415.258 801.5 415.705 801.709 416.032C801.918 416.358 802.274 416.97 802.541 417.074C802.809 417.178 802.884 417.311 802.914 417.46C802.943 417.609 803.674 417.371 803.674 416.984C803.674 416.596 803.867 416.107 804.106 416.032C804.345 415.957 805.029 415.482 805.461 415.616C805.893 415.75 806.623 415.289 806.728 414.873C806.833 414.456 807.204 414.382 807.56 414.337C807.917 414.292 808.424 414.248 808.678 414.01C808.932 413.771 809.139 413.668 809.005 413.117C808.871 412.567 809.005 411.108 808.603 410.812C808.201 410.515 808.231 410.171 808.231 409.919C808.231 409.666 808.022 409.309 807.784 409.056C807.545 408.802 807.277 408.089 807.545 407.955C807.814 407.82 808.291 407.658 808.528 407.3C808.765 406.943 809.094 406.691 808.871 406.469C808.648 406.247 808.395 405.874 808.365 405.725C808.335 405.577 808.186 405.502 807.635 405.532C807.083 405.562 805.787 405.026 805.594 404.788C805.401 404.551 804.67 404.431 804.761 405.175C804.852 405.919 805.118 405.74 805.011 406.127C804.903 406.514 804.549 406.945 804.937 407.213C805.32 407.463 805.62 407.819 805.801 408.239C805.979 408.671 806.486 409.206 806.411 409.579C806.336 409.951 806.754 409.876 806.694 410.244C806.635 410.611 806.829 411.092 805.89 411.612C804.952 412.133 805.307 412.222 804.967 412.594C804.626 412.967 804.134 413.398 803.595 413.219C803.057 413.04 802.91 413.487 802.91 413.487L802.914 413.49Z" fill="#E9F3F1"/>
</g>
<circle id="Ellipse 1" cx="725.5" cy="431.5" r="65.5" fill="#C4C4C4"/>
</g>
</g>
</svg>
