<svg width="1440" height="840" viewBox="0 0 1440 840" fill="none" xmlns="http://www.w3.org/2000/svg">
<g id="Frame 1">
<rect width="1440" height="840" fill="white"/>
<path id="new1" d="M747.058 371.453C745.843 381.595 748.238 391.865 753.835 400.523C759.432 409.181 767.888 415.694 777.77 418.959" stroke="#97C354" stroke-width="5" stroke-miterlimit="10" stroke-linecap="round"/>
<path id="Vector" d="M702.28 382.6C694.778 385.988 688.07 390.914 682.592 397.058C677.114 403.203 672.988 410.429 670.48 418.27C669.584 421.034 668.899 423.862 668.43 426.73C667.612 431.623 667.424 436.6 667.87 441.54" stroke="#DF3589" stroke-width="10" stroke-miterlimit="10" stroke-linecap="round"/>
<path id="Vector_2" d="M745.97 378.84C735.403 375.448 724.094 375.105 713.341 377.85C702.588 380.595 692.827 386.318 685.18 394.36C681.722 397.993 678.748 402.056 676.33 406.45" stroke="#2A358D" stroke-width="10" stroke-miterlimit="10" stroke-linecap="round"/>
<path id="Vector_3" d="M781.12 409.58C774.484 395.641 762.641 384.864 748.139 379.569C733.637 374.275 717.636 374.885 703.58 381.27" stroke="#00A159" stroke-width="10" stroke-miterlimit="10" stroke-linecap="round"/>
<path id="Vector_4" d="M769.66 476.66C775.343 470.974 779.804 464.186 782.769 456.714C785.734 449.242 787.141 441.243 786.903 433.207C786.665 425.171 784.788 417.269 781.386 409.986C777.984 402.702 773.129 396.19 767.12 390.85" stroke="#E13A30" stroke-width="10" stroke-miterlimit="10" stroke-linecap="round"/>
<path id="Vector_5" d="M709.47 492.1C713.269 493.324 717.182 494.162 721.15 494.6C734.652 496.062 748.245 492.818 759.632 485.415C771.018 478.012 779.498 466.904 783.64 453.97" stroke="#00ABEA" stroke-width="10" stroke-miterlimit="10" stroke-linecap="round"/>
<path id="Vector_6" d="M681.61 473.89C689.246 482.994 699.458 489.576 710.903 492.771C722.348 495.966 734.492 495.624 745.74 491.79" stroke="#E13A30" stroke-width="10" stroke-miterlimit="10" stroke-linecap="round"/>
<path id="Vector_7" d="M667.79 441.2C668.881 453.227 673.623 464.634 681.38 473.89" stroke="#FFF047" stroke-width="10" stroke-miterlimit="10" stroke-linecap="round"/>
<path id="Vector_8" d="M668 441C669.233 454.578 675.123 467.312 684.671 477.044C694.219 486.776 706.838 492.908 720.39 494.4" stroke="#97C354" stroke-width="10" stroke-miterlimit="10" stroke-linecap="round"/>
<path id="new8" d="M781.715 333.892C775.68 335.182 769.986 337.721 765.004 341.343C760.022 344.965 755.861 349.589 752.793 354.917C751.702 356.793 750.756 358.749 749.963 360.769C748.596 364.211 747.678 367.814 747.231 371.49" stroke="#DF3589" stroke-width="5" stroke-miterlimit="10" stroke-linecap="round"/>
<path id="new7" d="M817.622 339.488C810.201 334.995 801.657 332.596 792.971 332.567C784.286 332.539 775.811 334.882 768.52 339.327C765.224 341.334 762.217 343.749 759.573 346.512" stroke="#2A358D" stroke-width="5" stroke-miterlimit="10" stroke-linecap="round"/>
<path id="new6" d="M836.18 366.041C833.505 354.854 826.528 345.151 816.75 339.02C806.971 332.889 795.174 330.821 783.896 333.261" stroke="#00A159" stroke-width="5" stroke-miterlimit="10" stroke-linecap="round"/>
<path id="new5" d="M816.599 414C821.711 410.692 826.093 406.374 829.476 401.311C832.86 396.249 835.174 390.548 836.275 384.559C837.377 378.57 837.243 372.419 835.883 366.484C834.523 360.549 831.964 354.954 828.364 350.044" stroke="#E13A30" stroke-width="5" stroke-miterlimit="10" stroke-linecap="round"/>
<path id="new4" d="M770.19 416.154C772.75 417.651 775.454 418.88 778.261 419.822C787.818 423.005 798.188 422.721 807.619 419.017C817.05 415.314 824.963 408.417 830.02 399.494" stroke="#00ABEA" stroke-width="5" stroke-miterlimit="10" stroke-linecap="round"/>
<path id="new3" d="M752.565 398.205C756.7 406.171 763.123 412.667 770.989 416.84C778.855 421.012 787.796 422.666 796.639 421.585" stroke="#E13A30" stroke-width="5" stroke-miterlimit="10" stroke-linecap="round"/>
<path id="new11" d="M746.99 372.278C745.991 381.603 747.825 390.884 752.25 398.902C756.675 406.92 763.485 413.3 771.784 417.205" stroke="#874062" stroke-width="5" stroke-miterlimit="10" stroke-linecap="round"/>
<path id="Vectorrr4" d="M827.455 351.895C828.805 352.185 830.135 351.325 830.424 349.975C830.714 348.625 829.855 347.296 828.505 347.006C827.155 346.716 825.826 347.576 825.536 348.926C825.246 350.276 826.105 351.605 827.455 351.895Z" fill="#8691C3"/>
<path id="Vectorrr3" d="M827.455 351.895C828.805 352.185 830.135 351.325 830.424 349.975C830.714 348.625 829.855 347.296 828.505 347.006C827.155 346.716 825.826 347.576 825.536 348.926C825.246 350.276 826.105 351.605 827.455 351.895Z" fill="#4E5376"/>
<path id="Vector_9" d="M717.873 171L718.213 693.27" stroke="#4D5275" stroke-miterlimit="10"/>
<path id="Cool" d="M723.23 497.12C724.324 497.12 725.21 496.234 725.21 495.14C725.21 494.046 724.324 493.16 723.23 493.16C722.136 493.16 721.25 494.046 721.25 495.14C721.25 496.234 722.136 497.12 723.23 497.12Z" fill="#4D5275"/>
<path id="bird2" d="M747 370.035C775.268 383.362 793.025 408.515 792.22 434.603C791.616 454.212 780.724 468.295 775.69 474C782.058 471.181 787.804 467.266 792.633 462.458C805.72 449.367 807.521 433.895 807.864 429.021C808.424 421.299 807.25 413.553 804.417 406.284C801.584 399.015 797.155 392.385 791.417 386.824C785.679 381.264 778.761 376.896 771.109 374.003C763.458 371.111 755.244 369.759 747 370.035Z" stroke="#848EC2" stroke-width="3" stroke-miterlimit="10" stroke-linejoin="round"/>
<path id="bird1" d="M684 440C695.327 444.294 706.897 447.917 718.65 450.85C727.45 453.03 733.22 454.03 739.98 454.24C746.014 454.516 752.059 454.052 757.98 452.86C767.796 450.785 777.052 446.625 785.12 440.66C783.398 450.603 779.491 460.04 773.68 468.29C770.57 472.69 765.25 480.02 755.87 485.37C751.35 487.95 747.65 489.06 740.23 491.28C734.718 492.931 729.107 494.23 723.43 495.17C724.78 494.76 732.82 492.17 736.43 484.25C737.916 480.853 738.455 477.118 737.99 473.44C737.773 470.685 736.887 468.025 735.41 465.69C734.312 464.106 732.961 462.714 731.41 461.57C729.41 459.97 727.34 458.89 723.13 456.71C719.919 454.98 716.551 453.56 713.07 452.47V452.47C709.105 451.236 705.216 449.774 701.42 448.09C693.56 444.72 685.36 440.72 684 440Z" stroke="#4E5376" stroke-width="3" stroke-miterlimit="10" stroke-linejoin="round"/>
<path id="new9" d="M801.605 420.305C807.569 419.082 813.221 416.652 818.213 413.165C823.205 409.679 827.433 405.209 830.636 400.03C833.839 394.851 835.95 389.072 836.84 383.048C837.73 377.024 837.38 370.883 835.811 365" stroke="#36664C" stroke-width="5" stroke-miterlimit="10" stroke-linecap="round"/>
<path id="new10" d="M765.049 412.433C772.305 417.884 781.069 421.027 790.189 421.448C799.308 421.87 808.357 419.552 816.147 414.797" stroke="#9E30E1" stroke-width="5" stroke-miterlimit="10" stroke-linecap="round"/>
<path id="fill2" d="M748 370.035C776.268 383.362 794.025 408.515 793.22 434.603C792.616 454.212 781.724 468.295 776.69 474C783.058 471.181 788.804 467.266 793.633 462.458C806.72 449.367 808.521 433.895 808.864 429.021C809.424 421.299 808.25 413.553 805.417 406.284C802.584 399.015 798.155 392.385 792.417 386.824C786.679 381.264 779.761 376.896 772.109 374.003C764.458 371.111 756.244 369.759 748 370.035V370.035Z" fill="#848EC2"/>
<path id="fill1" d="M684 440.007C695.327 444.301 706.897 447.924 718.65 450.857C727.45 453.037 733.22 454.037 739.98 454.247C746.014 454.523 752.059 454.059 757.98 452.867C767.796 450.792 777.052 446.632 785.12 440.667C783.398 450.61 779.491 460.047 773.68 468.297C770.57 472.697 765.25 480.027 755.87 485.377C751.35 487.957 747.65 489.067 740.23 491.287C734.718 492.938 729.107 494.237 723.43 495.177C724.78 494.767 732.82 492.177 736.43 484.257C737.916 480.86 738.455 477.125 737.99 473.447C737.773 470.692 736.887 468.032 735.41 465.697C734.312 464.113 732.961 462.721 731.41 461.577C729.41 459.977 727.34 458.897 723.13 456.717C719.919 454.987 716.551 453.567 713.07 452.477V452.477C709.105 451.243 705.216 449.781 701.42 448.097C693.56 444.727 685.36 440.727 684 440.007Z" fill="#4E5376"/>
<path id="dot" d="M815.98 416.96C817.074 416.96 817.96 416.074 817.96 414.98C817.96 413.886 817.074 413 815.98 413C814.886 413 814 413.886 814 414.98C814 416.074 814.886 416.96 815.98 416.96Z" fill="#4E5376"/>
<path id="beak" d="M809.102 406.34C812.054 410.401 813.903 415.158 814.469 420.146C814.619 421.591 814.652 423.045 814.567 424.494L826.333 409.534L809.102 406.34Z" fill="#4D5275"/>
<path id="earth" d="M725.76 377C714.13 377.01 702.764 380.468 693.1 386.936C683.435 393.405 675.905 402.594 671.461 413.341C667.018 424.089 665.861 435.913 668.137 447.318C670.413 458.723 676.019 469.197 684.246 477.416C692.474 485.635 702.954 491.231 714.361 493.495C725.769 495.759 737.591 494.59 748.334 490.136C759.077 485.682 768.258 478.142 774.717 468.471C781.176 458.799 784.622 447.43 784.62 435.8C784.619 428.074 783.095 420.423 780.136 413.286C777.177 406.149 772.84 399.664 767.374 394.204C761.908 388.743 755.419 384.413 748.279 381.461C741.138 378.509 733.486 376.993 725.76 377ZM724.22 458.8C723.65 460.98 722.04 460.8 719.57 464.07C717.84 466.34 718.43 466.67 716.01 470.89C713.59 475.11 712.58 475.44 712.75 476.89C713.11 479.79 717.17 480.82 716.75 482.89C716.619 483.329 716.381 483.729 716.056 484.052C715.731 484.375 715.33 484.612 714.89 484.74C711.89 485.74 706.89 481.14 704.37 476.23C701.31 470.28 703.98 468.07 700.96 463.37C697.67 458.27 693.21 458.89 692.29 454.85C691.37 450.81 695.68 448.53 694.45 444.79C693.71 442.52 691.74 442.15 686.09 438.6C680.94 435.36 678.37 433.74 677.24 432.21C671.96 425.06 677.24 411.76 681.14 405.78C683.184 402.813 685.461 400.015 687.95 397.41C689.352 395.779 690.951 394.328 692.71 393.09C694.558 391.624 696.727 390.616 699.04 390.15C702.72 389.59 707.59 390.82 708.04 392.93C708.58 395.63 701.45 397.25 701.04 402.22C700.87 404.56 702.25 407.22 703.83 407.47C706.16 407.86 707.32 402.78 710.48 402.67C713.39 402.58 716.61 406.82 715.89 409.17C715.49 410.49 714.12 410.31 712.49 412.41C710.86 414.51 711.72 415.26 710.4 416.92C708.47 419.34 706.4 418.08 703.58 420.8C701.99 422.32 702.1 423.24 700.48 424.04C698.58 424.97 697.48 424.2 696.62 425.13C695.31 426.58 697.44 429.27 696.15 430.7C695.28 431.7 693.36 431.53 692.15 431.02C689.89 430.02 690.15 427.91 688.28 427.14C686.15 426.25 682.28 427.59 681.78 430.23C681.637 431.222 681.841 432.234 682.359 433.092C682.876 433.951 683.675 434.604 684.62 434.94C686.37 435.41 687.62 433.72 689.26 434.48C689.91 434.77 690.11 435.22 690.96 436.48C693.47 440.18 693.7 440.35 694.06 440.48C695.63 441.25 696.82 439.61 699.79 438.94C701.492 438.591 703.246 438.589 704.948 438.932C706.651 439.276 708.267 439.959 709.7 440.94C712.5 442.94 711.44 444.26 714.7 447.13C718.08 450.13 720 449.33 722.28 452.25C722.62 452.94 724.98 455.84 724.22 458.8ZM775.68 438.41C774.03 440.54 774.81 441.88 773.37 444.3C772.05 446.52 770.72 446.54 769.26 448.15C766.46 451.24 768.39 454.39 767.21 459.15C765.77 464.94 760.53 468.31 750.04 475.03C748.72 475.88 745.98 477.59 745.17 476.84C744.06 475.84 748.17 471.63 747.22 466.58C746.7 463.93 745.39 464.21 743.88 460.94C740.88 454.43 744.57 450.02 741.32 446.33C740.21 445.07 738.7 444.46 735.68 443.25C731.63 441.62 730.58 442.3 729.01 441.25C725.36 438.67 724.47 430.4 728.01 425.87C730.62 422.51 733.4 424.08 739.01 419.97C740.01 419.27 747.21 413.97 746.19 409.46C745.47 406.25 741.33 406.36 740.8 403.31C740.21 399.77 744.98 394.83 749.8 394.59C751.8 394.49 753.3 395.27 756.72 397.41C766.72 403.7 771.82 406.93 774.63 411.41C776.296 414.109 777.541 417.046 778.32 420.12C779.04 423.03 778.32 421.97 779.32 429.67C779.67 432.39 779.92 433.81 779.06 435.31C778.2 436.81 777.06 436.61 775.68 438.41Z" fill="#4D5275"/>
<path id="path" d="M819 414C821.833 411.833 836.3 399.7 839.5 390.5C842.7 381.3 846 373.5 846 358.5C846 343.5 837.321 326.046 828.5 316C810.5 295.5 790 287 749.5 287C717 287 696.833 305.333 684.5 316C664.5 333.297 650.8 405.4 708 413C748 414 790.5 443 795.5 474.5C805 514 779.2 558.3 740 563.5C700.8 568.7 674.5 562.5 647.5 539.5C634.5 528.426 614.3 503.5 625.5 455.5C636.7 407.5 685.667 392.167 708 406.5" stroke="black" stroke-width="0.2"/>
<path id="point" d="M707.5 371C714.403 371 720 378.093 720 386.854C720 392.192 717.751 397.432 714.028 402.402C712.805 404.039 711.472 405.589 710.039 407.04C709.555 407.519 709.108 407.948 708.709 408.267C708.31 408.586 708.298 408.648 708.189 408.734C707.997 408.905 707.75 409 707.494 409C707.238 409 706.991 408.905 706.799 408.734C706.702 408.648 706.521 408.5 706.279 408.267C706.037 408.034 705.445 407.482 704.961 407.04C703.524 405.589 702.187 404.039 700.96 402.402C697.249 397.493 695 392.192 695 386.854C695.024 378.093 700.597 371 707.5 371Z" fill="#848EC2"/>
<path id="drop1" d="M705.111 309C716.771 309 726.231 320.81 726.231 335.37C726.231 344.26 722.421 352.97 716.151 361.25C714.082 363.97 711.827 366.543 709.401 368.95C708.591 369.75 707.841 370.46 707.171 371.07L706.281 371.84C705.957 372.125 705.541 372.282 705.111 372.282C704.68 372.282 704.264 372.125 703.941 371.84C703.771 371.7 703.471 371.44 703.061 371.07C702.391 370.46 701.641 369.75 700.831 368.95C698.405 366.543 696.149 363.97 694.081 361.25C687.811 352.97 684.001 344.25 684.001 335.37C684.031 320.81 693.481 309 705.111 309Z" fill="#848EC2"/>
<path id="drop2" d="M645.941 352.3C652.381 345.8 664.181 347.04 672.311 355.08C677.311 359.98 680.031 366.92 681.181 374.98C681.559 377.63 681.752 380.303 681.761 382.98C681.761 383.88 681.761 384.68 681.761 385.4C681.761 385.83 681.761 386.14 681.711 386.32C681.687 386.657 681.543 386.974 681.304 387.213C681.065 387.452 680.748 387.596 680.411 387.62L679.501 387.69C678.781 387.69 677.971 387.76 677.081 387.76C674.406 387.782 671.733 387.621 669.081 387.28C661.001 386.21 654.081 383.53 649.081 378.62C640.881 370.61 639.511 358.81 645.941 352.3Z" fill="#A4AACA"/>
<path id="drop3" d="M625.563 403.669C627.956 396.526 637.25 393.121 646.319 396.051C651.848 397.853 656.501 401.944 660.355 407.45C661.61 409.27 662.736 411.173 663.727 413.145C664.064 413.797 664.356 414.394 664.592 414.936L664.896 415.632C665.016 415.887 665.033 416.178 664.943 416.445C664.853 416.712 664.664 416.936 664.412 417.07L663.749 417.446C663.232 417.744 662.625 418.054 661.974 418.385C659.975 419.385 657.91 420.249 655.793 420.973C649.353 423.184 643.15 423.715 637.61 421.924C628.586 418.982 623.18 410.812 625.563 403.669Z" fill="#B7BDDF"/>
<path id="drop4" d="M629.216 460.403C628.181 454.248 633.62 448.161 641.353 446.882C646.07 446.107 651.03 447.363 655.979 449.965C657.613 450.821 659.185 451.793 660.682 452.872C661.175 453.23 661.61 453.561 661.998 453.867L662.487 454.264C662.66 454.417 662.774 454.626 662.81 454.853C662.847 455.081 662.804 455.315 662.688 455.515C662.587 455.699 662.476 455.878 662.355 456.051C662.097 456.464 661.784 456.922 661.426 457.415C660.361 458.917 659.191 460.342 657.925 461.678C654.085 465.732 649.794 468.518 645.078 469.283C637.34 470.521 630.241 466.558 629.216 460.403Z" fill="#D2D7F3"/>
<path id="drop5" d="M651.743 493.637C649.049 490.715 649.832 485.609 653.479 482.246C655.967 480.179 659.063 478.983 662.294 478.841C663.453 478.732 664.619 478.7 665.782 478.747C666.167 478.824 666.521 478.791 666.836 478.828L667.221 478.904C667.367 478.918 667.504 478.985 667.604 479.093C667.704 479.201 667.76 479.342 667.762 479.489C667.747 479.564 667.723 479.688 667.773 479.891C667.822 480.095 667.771 480.549 667.759 480.933C667.718 482.102 667.59 483.266 667.376 484.416C666.964 487.629 665.504 490.616 663.223 492.914C659.577 496.2 654.438 496.558 651.743 493.637Z" fill="#DDE2FC"/>
<path id="drop6" d="M678.56 506.095C675.818 505.159 674.545 501.615 675.714 498.192C676.59 496.003 678.158 494.16 680.179 492.946C680.884 492.473 681.62 492.048 682.382 491.674C682.655 491.589 682.871 491.445 683.086 491.359L683.359 491.275C683.457 491.232 683.568 491.228 683.67 491.262C683.771 491.297 683.857 491.368 683.909 491.461C683.925 491.514 683.953 491.602 684.055 491.715C684.158 491.828 684.283 492.137 684.409 492.388C684.788 493.151 685.111 493.942 685.374 494.753C686.226 496.955 686.329 499.376 685.666 501.642C684.472 505.015 681.302 507.031 678.56 506.095Z" fill="#ECEFFE"/>
<g id="clippp">
<g id="Group 1">
<path id="Vector_10" d="M880 364H654V498.188H880V364Z" fill="#4D5275"/>
<path id="Vector_11" d="M681.199 385.993C680.519 385.877 680.003 385.565 679.786 385.608C679.569 385.651 678.93 385.18 678.46 385.137C677.989 385.094 676.62 385.522 675.421 385.137C674.223 384.752 672.86 384.354 671.298 384.696C669.929 384.994 669.572 384.696 668.702 384.967C667.927 385.206 667.974 385.308 667.561 385.408C667.148 385.508 666.648 385.494 666.434 385.708C666.219 385.921 664.537 386.15 664.223 386.207C663.908 386.263 663.585 386.463 663.381 387.305C663.177 388.146 661.455 388.203 660.785 388.288C660.114 388.374 659.927 388.513 659.801 389.245C659.687 389.901 659.943 389.701 660.399 389.658C660.855 389.616 661.227 389.544 660.857 389.927C660.324 390.479 660.214 390.228 659.971 390.385C659.728 390.542 659.672 390.6 659.372 390.6C659.073 390.6 658.046 391.312 657.532 391.412C657.019 391.511 656.42 391.424 656.42 392.439C656.42 392.582 656.348 392.467 656.191 392.582C656.034 392.696 655.97 393.475 656.477 393.836C656.677 393.979 656.348 394.064 656.677 394.164C657.005 394.263 657.532 394.121 657.404 394.535C657.275 394.949 656.961 394.92 656.819 394.991C656.677 395.062 654.58 396.118 654.18 396.288C653.781 396.459 654.08 396.973 654.75 396.83C655.421 396.688 657.232 395.69 657.975 395.462C658.717 395.234 661.67 393.936 662.068 393.893C662.467 393.851 662.925 393.751 663.295 393.865C663.666 393.979 666.034 393.265 666.106 393.009C666.178 392.752 666.69 392.268 667.119 392.396C667.547 392.524 668.046 392.766 668.235 392.909C668.424 393.052 668.793 392.909 669.161 392.98C669.53 393.051 670.817 393.151 671.045 393.722C671.273 394.293 671.616 394.519 671.686 394.734C671.757 394.949 671.926 395.191 671.858 395.334C671.79 395.476 672.158 395.518 672.158 395.661C672.158 395.804 671.828 397.991 671.986 398.812C672.057 399.183 671.701 399.596 671.616 399.91C671.53 400.224 671.701 400.366 671.245 400.623C670.789 400.88 671.616 401.806 671.803 402.12C671.99 402.434 671.931 403.714 669.81 406.199C668.968 407.18 668.711 407.639 668.668 408.111C668.625 408.584 667.812 408.995 667.798 409.28C667.784 409.566 667.898 409.623 667.841 409.794C667.784 409.964 667.606 410.582 667.912 411.163C668.084 411.488 667.997 411.705 667.955 411.89C667.913 412.075 667.841 412.607 668.04 412.916C668.24 413.225 667.926 413.743 668.069 414.112C668.212 414.48 668.754 414.326 668.939 414.482C669.124 414.638 669.81 414.881 669.752 415.395C669.695 415.909 670.052 417.505 670.023 417.976C669.995 418.447 670.636 418.874 670.636 419.202C670.636 419.529 670.622 419.6 670.365 419.716C670.109 419.831 670.066 420.699 670.665 420.97C671.264 421.241 671.236 421.198 671.236 421.413C671.236 421.627 671.222 422.638 671.521 422.752C671.842 422.889 672.115 423.117 672.306 423.408C672.477 423.679 672.876 424.365 673.247 423.751C673.618 423.137 672.719 422.567 672.634 422.51C672.548 422.453 672.748 422.139 672.591 421.897C672.434 421.655 672.477 421.426 672.334 420.913C672.191 420.4 671.792 419.744 671.776 419.231C671.76 418.717 671.647 418.846 671.561 418.332C671.476 417.819 671.362 416.964 671.904 416.892C672.446 416.82 672.289 417.819 672.303 418.076C672.316 418.332 672.088 418.745 672.945 419.601C673.128 419.814 673.242 420.078 673.272 420.357C673.287 420.585 673.701 420.985 673.743 421.241C673.785 421.498 673.529 421.912 674.071 422.154C674.614 422.396 675.17 423.437 675.227 423.765C675.283 424.094 675.769 424.364 675.785 424.577C675.801 424.791 675.984 425.334 675.856 425.519C675.727 425.703 675.414 426.66 675.799 427.113C676.184 427.565 676.298 427.352 676.596 427.569C676.895 427.787 676.739 428.127 677.452 428.325C678.165 428.522 678.037 428.553 678.137 428.71C678.237 428.867 680.077 429.707 680.491 429.807C680.904 429.907 681.232 430.365 682.36 430.206C683.194 430.089 683.173 429.856 683.743 430.237C684.313 430.618 684.927 431.774 685.926 432.058C686.925 432.343 686.682 432.472 687.239 432.515C687.795 432.558 688.365 432.629 688.594 433.114C688.823 433.6 688.851 433.684 689.008 433.911C689.165 434.139 688.937 434.425 689.122 434.753C689.307 435.081 689.621 435.423 690.079 435.466C690.536 435.508 690.65 435.68 690.792 436.007C690.935 436.335 691.149 436.792 691.834 436.792C692.518 436.792 692.347 437.276 692.66 437.39C692.974 437.504 693.812 437.515 693.602 436.863C693.474 436.465 693.73 436.564 693.745 436.421C693.759 436.278 693.916 435.736 693.346 435.751C692.776 435.765 692.533 435.936 692.176 435.694C691.82 435.453 690.764 434.81 691.106 433.698C691.448 432.586 691.421 432.614 691.435 432.372C691.473 432.046 691.575 431.731 691.734 431.445C691.877 431.217 691.763 430.504 691.392 430.433C691.021 430.362 690.964 429.947 690.65 429.934C690.337 429.92 688.21 430.218 688.268 429.52C688.325 428.822 688.411 428.236 688.895 427.809C689.38 427.382 689.338 426.383 689.338 426.215C689.338 426.047 689.794 425.773 689.78 425.602C689.765 425.432 689.851 424.946 688.823 425.06C687.794 425.174 687.707 425.117 687.496 425.288C687.286 425.46 687.182 425.417 687.082 425.431C686.983 425.445 686.554 426.13 686.483 426.828C686.411 427.526 685.998 427.625 685.77 427.641C685.542 427.657 684.414 427.627 684.175 427.727C683.936 427.827 682.421 427.898 681.993 425.374C681.781 424.125 682.349 422.222 682.706 421.809C683.062 421.397 682.877 420.711 682.945 420.511C683.013 420.311 683.387 419.656 683.887 419.443C684.386 419.229 685.684 418.615 685.826 418.473C685.969 418.33 686.526 418.245 686.754 418.387C686.982 418.53 687.353 418.572 687.524 418.516C687.695 418.459 687.683 418.516 687.781 418.644C687.88 418.772 688.323 418.701 688.537 418.701C688.752 418.701 689.165 418.94 689.236 418.829C689.298 418.713 689.341 418.588 689.364 418.458C689.393 418.344 689.763 417.959 689.922 417.988C690.082 418.017 690.964 417.916 691.164 417.759C691.364 417.602 691.862 417.888 692.005 418.202C692.148 418.516 692.533 418.473 692.69 418.387C692.847 418.302 693.717 418.547 693.574 419.184C693.431 419.822 693.789 421.166 694.002 421.422C694.216 421.679 694.43 421.936 694.387 422.092C694.344 422.249 694.773 422.252 694.901 422.121C695.029 421.99 695.814 421.18 695.586 419.94C695.358 418.7 695.115 417.672 695.472 417.217C695.828 416.761 695.8 416.375 696.285 416.09C696.771 415.804 697.469 415.249 697.782 415.063C698.096 414.877 698.567 414.693 698.924 414.478C699.281 414.264 699.58 414.379 699.78 414.136C699.979 413.894 699.951 413.609 700.08 413.509C700.208 413.409 700.579 413.095 700.693 412.297C700.807 411.498 701.591 410.914 701.819 410.728C702.047 410.543 702.334 409.888 702.676 409.745C703.018 409.602 703.116 408.948 703.66 408.746C704.245 408.533 704.145 408.475 704.53 408.475C704.841 408.474 705.146 408.392 705.415 408.236C705.574 408.137 705.928 407.997 705.957 407.781C705.985 407.564 705.765 406.768 707.041 406.354C707.611 406.169 707.454 406.354 707.811 405.955C708.169 405.557 709.023 405.885 709.223 405.984C709.424 406.084 709.337 406.542 709.538 406.555C709.738 406.568 709.979 406.654 710.321 406.284C710.663 405.913 710.833 405.685 711.577 405.685C711.962 405.685 711.934 405.543 712.048 405.514C712.162 405.485 713.018 405.485 713.244 405.314C713.469 405.143 713.543 404.63 713.004 404.558C712.465 404.487 711.364 404.33 711.592 403.532C711.761 402.941 712.091 402.448 712.277 402.291C712.463 402.134 712.305 401.607 712.292 401.45C712.278 401.293 712.605 401.122 712.819 401.037C713.034 400.951 714.232 400.923 714.546 401.051C714.86 401.179 715.258 401.008 715.372 400.951C715.487 400.895 716.257 400.851 716.072 401.422C715.887 401.992 715.401 402.006 715.258 402.391C715.116 402.776 714.931 403.019 715.073 403.176C715.215 403.333 716.269 403.346 716.443 403.304C716.616 403.262 717.392 403.292 717.741 403.543C718.112 403.814 718.724 403.899 718.937 403.857C719.149 403.815 719.521 403.443 719.535 403.2C719.55 402.957 719.208 402.43 719.35 402.018C719.493 401.605 719.736 401.561 719.436 401.319C719.136 401.076 718.68 401.133 718.68 400.491C718.68 399.85 719.137 399.08 719.122 398.838C719.108 398.595 719.122 398.011 718.724 397.783C718.325 397.555 718.824 397.426 718.61 397.241C718.395 397.055 717.269 397.112 717.269 395.972C717.269 394.831 717.141 393.501 716.784 393.12C716.427 392.738 716.299 392.707 716.071 392.88C715.843 393.054 714.416 394.292 713.918 394.093C713.421 393.893 713.121 393.551 713.319 393.237C713.518 392.924 713.775 392.396 713.49 392.225C713.205 392.053 712.374 391.127 712.121 391.055C711.868 390.984 710.138 390.614 709.482 391.013C708.826 391.412 709.14 391.597 709.054 391.74C708.969 391.883 708.598 392.054 708.569 392.196C708.54 392.338 708.583 393.251 708.255 393.312C707.928 393.372 707.099 393.796 707.199 394.029C707.299 394.262 707.757 394.57 707.585 394.913C707.413 395.255 707.071 396.225 705.687 396.666C704.303 397.108 704.532 397.322 704.503 397.622C704.475 397.923 704.105 398.321 704.161 398.535C704.218 398.749 704.061 399.22 703.719 399.362C703.377 399.505 702.464 400.018 702.492 398.977C702.519 397.936 702.877 397.893 702.977 397.665C703.078 397.437 703.462 397.152 703.376 396.966C703.29 396.781 702.776 396.553 702.348 396.582C701.92 396.61 701.079 396.382 700.708 396.054C700.337 395.726 700.194 395.369 699.838 395.27C699.482 395.17 698.682 395.141 698.582 394.8C698.483 394.458 698.483 393.858 698.343 393.787C698.203 393.715 698.144 393.217 698.414 392.99C698.684 392.762 700.469 391.251 701.995 391.051C703.521 390.851 703.111 390.266 703.493 390.195C703.875 390.125 705.048 389.968 705.505 390.495C705.962 391.023 706.375 390.366 706.603 390.295C706.831 390.224 707.116 389.953 707.544 390.096C707.972 390.239 708.4 390.438 708.557 390.138C708.714 389.838 708.557 389.668 708.343 389.568C708.13 389.469 708.172 389.069 708.058 388.998C707.944 388.927 708.043 388.36 708.543 388.398C709.042 388.437 710.383 387.529 710.44 387.216C710.498 386.902 711.025 386.602 711.167 386.431C711.31 386.259 711.296 385.873 711.624 385.846C711.953 385.82 712.237 385.761 712.537 385.818C712.837 385.874 713.136 385.775 713.307 385.761C713.479 385.748 714.078 385.861 714.092 386.188C714.106 386.516 714.519 386.746 714.734 386.788C714.948 386.829 715.076 387.425 714.719 387.585C714.363 387.744 713.564 388.154 713.436 388.611C713.307 389.068 712.351 388.896 712.038 388.782C711.725 388.668 711.124 388.611 710.842 389.053C710.56 389.494 710.471 389.795 710.956 389.77C711.441 389.745 711.84 389.884 712.04 389.87C712.241 389.855 712.768 389.884 712.882 389.784C712.996 389.685 713.324 389.927 713.509 390.297C713.694 390.668 714.306 391.254 714.836 391.367C715.365 391.48 715.293 391.752 715.75 391.781C716.207 391.809 717.275 390.984 717.404 390.782C717.533 390.58 718.217 390.198 717.946 389.627C717.675 389.057 717.347 388.444 717.646 388.387C717.946 388.331 718.488 388.915 718.559 389.143C718.63 389.371 719.272 389.485 719.487 389.228C719.701 388.971 720.603 388.501 720.603 388.344C720.603 388.187 720.716 387.746 720.459 387.531C720.203 387.317 720.132 386.847 719.718 386.904C719.304 386.961 719.119 386.277 719.176 386.163C719.232 386.049 719.335 385.307 719.047 385.093C718.76 384.88 717.851 384.296 717.393 384.28C716.934 384.264 716.38 383.282 716.277 383.097C716.173 382.912 714.893 382.598 713.994 382.698C713.095 382.799 712.91 382.912 712.467 382.912C712.024 382.912 710.413 382.926 710.028 382.912C709.643 382.898 708.345 383.996 708.245 384.196C708.145 384.396 707.803 384.567 708.031 385.08C708.259 385.593 708.074 385.721 707.871 385.807C707.669 385.892 706.701 385.921 706.587 385.465C706.473 385.009 706.558 384.238 706.073 384.167C705.588 384.096 704.589 384.406 704.319 384.68C704.049 384.955 703.534 385.194 703.621 385.436C703.707 385.678 703.82 386.434 703.549 386.562C703.278 386.69 702.665 386.847 702.279 386.691C701.894 386.535 701.138 386.677 701.11 386.82C701.081 386.962 699.041 387.004 698.713 386.919C698.384 386.834 697.087 386.021 695.261 386.576C693.435 387.132 692.522 386.363 692.265 386.206C692.008 386.049 691.366 386.092 691.081 386.164C690.795 386.235 690.482 385.465 689.598 385.393C688.714 385.321 688.083 385.351 687.715 385.251C687.346 385.151 686.602 385.012 686.2 385.251C685.797 385.49 685.058 385.379 684.587 385.336C684.117 385.293 683.931 385.237 683.375 385.508C682.818 385.779 682.333 385.747 681.905 385.764C681.477 385.782 681.447 386.047 681.207 386.003L681.199 385.993Z" fill="#E9F3F1"/>
<path id="Vector_12" d="M691.18 424.769C691.438 424.469 692.035 423.989 692.587 423.892C693.139 423.795 693.805 423.493 694.222 423.759C694.64 424.024 695.65 424.329 695.859 424.348C696.067 424.367 696.905 425.032 697.134 425.26C697.364 425.488 698.18 425.964 698.39 426.021C698.6 426.077 699.207 426.516 698.868 426.724C698.53 426.933 698.66 427.123 698.336 427.066C698.012 427.01 697.857 426.705 697.48 426.668C697.103 426.63 696.966 426.801 696.795 426.801C696.625 426.801 696.282 426.897 696.317 426.482C696.352 426.068 696.146 425.931 695.823 425.855C695.499 425.779 695.595 425.626 695.344 425.531C695.094 425.436 695.211 425.246 694.964 425.133C694.717 425.02 694.07 424.829 693.708 424.829C693.346 424.829 693.442 424.696 693.061 424.696C692.967 424.696 692.69 424.616 692.519 424.71C692.049 424.966 691.236 425.268 691.179 425.152C691.099 425 691.02 424.956 691.179 424.772L691.18 424.769Z" fill="#E9F3F1"/>
<path id="Vector_13" d="M699.549 426.559C699.708 426.453 700.442 426.749 700.614 426.711C700.785 426.673 700.975 426.464 701.165 426.559C701.355 426.653 701.508 426.863 701.622 426.92C701.736 426.978 702.401 427.072 702.554 427.224C702.706 427.376 702.915 427.415 702.934 427.548C702.953 427.681 703.2 427.946 702.934 428.042C702.668 428.137 702.154 428.213 701.977 428.194C701.8 428.175 701.435 428.241 701.35 428.327C701.264 428.413 701.017 428.566 700.871 428.508C700.725 428.45 698.32 428.422 698.522 427.89C698.725 427.357 699.569 427.719 699.718 427.642C699.868 427.566 699.871 427.376 699.71 427.244C699.549 427.112 699.167 426.816 699.55 426.559L699.549 426.559Z" fill="#E9F3F1"/>
<path id="Vector_14" d="M696.733 435.086C696.534 435.429 696.163 435.771 695.764 435.827C695.364 435.884 694.822 435.685 694.568 435.827C694.313 435.969 694.339 436.569 694.568 436.712C694.663 436.765 694.741 436.844 694.791 436.94C694.842 437.037 694.864 437.146 694.853 437.254C694.824 437.425 695.766 438.449 695.367 439.677C694.967 440.906 694.569 441.475 694.171 441.703C693.772 441.93 693.029 443.072 692.858 443.528C692.688 443.983 692.373 445.324 692.715 445.839C692.841 446.033 692.894 446.265 692.866 446.494C692.838 446.723 692.731 446.935 692.562 447.093C692.345 447.265 692.088 448.177 692.403 448.805C692.718 449.433 693.972 450.287 694.029 451.058C694.087 451.829 695.146 452.572 695.284 452.997C695.423 453.422 696.369 454.591 696.426 454.99C696.484 455.388 697.025 456.504 697.567 456.729C698.109 456.953 697.909 457.157 698.365 457.327C698.82 457.498 701.189 458.523 701.445 459.552C701.525 459.885 701.721 460.32 701.788 461.146C701.928 462.874 701.92 465.45 702.016 466.337C702.159 467.649 702.102 467.562 702.016 467.819C701.931 468.076 702.016 469.929 702.33 470.415C702.645 470.9 702.987 472.838 702.33 474.835C702.023 475.769 702.929 476.632 702.929 477.373C702.929 478.114 703.271 479.286 703.528 479.455C703.785 479.624 704.699 481.222 704.784 482.306C704.869 483.39 705.126 483.134 705.269 483.732C705.34 484.032 705.414 484.719 705.678 485.395C705.942 486.072 706.395 486.741 706.555 486.984C706.869 487.468 707.677 489.103 708.343 489.141C709.009 489.179 709.16 489.065 709.37 489.008C709.58 488.951 710.454 489.237 710.53 489.578C710.607 489.919 710.549 490.357 711.044 490.357C711.51 490.372 711.972 490.456 712.414 490.605C712.584 490.685 713.859 490.757 713.84 490.396C713.821 490.034 713.725 489.882 713.498 489.807C713.271 489.731 712.318 489.635 711.596 488.97C710.873 488.304 711.117 488.514 711.044 488.209C710.97 487.905 710.816 487.773 710.625 487.639C710.435 487.505 709.922 487.012 709.941 486.784C709.96 486.556 710.073 486.099 710.169 486.043C710.265 485.986 710.283 485.681 710.264 485.415C710.245 485.15 710.892 484.901 710.968 484.635C711.044 484.369 711.025 483.799 710.721 483.703C710.416 483.608 710.207 483.552 710.188 483.4C710.164 483.262 710.097 483.136 709.998 483.038C709.903 482.925 709.808 482.487 709.979 482.297C710.149 482.106 710.397 481.745 710.341 481.46C710.284 481.175 710.245 480.795 710.588 480.472C710.931 480.148 711.025 479.617 710.986 479.426C710.947 479.236 711.501 478.799 711.576 478.419C711.652 478.039 711.805 477.164 712.374 477.069C712.942 476.974 714.134 476.237 714.181 475.282C714.219 474.502 714.941 474.046 715.058 473.837C715.174 473.628 715.99 472.848 716.238 472.145C716.485 471.442 717.074 470.186 717.434 469.959C717.572 469.879 717.688 469.765 717.771 469.629C717.855 469.493 717.903 469.338 717.912 469.179C717.931 468.932 718.368 468.399 718.615 468.21C718.862 468.02 718.673 466.593 718.52 466.251C718.368 465.91 718.426 464.616 719.966 464.236C721.506 463.856 721.242 463.704 721.354 463.609C721.467 463.514 722.8 463.609 722.99 463.38C723.18 463.151 723.143 462.886 723.389 462.791C723.635 462.696 723.902 462.259 723.827 461.935C723.751 461.612 724.074 461.138 724.264 460.871C724.453 460.604 724.511 460.148 724.492 459.845C724.474 459.541 724.492 459.198 724.74 459.065C724.987 458.933 724.74 457.981 724.929 457.715C725.119 457.449 724.873 456.878 724.815 456.689C724.758 456.499 724.53 455.719 724.778 455.206C725.026 454.692 725.709 453.722 726.166 453.095C726.623 452.468 728.448 450.89 727.288 448.228C726.912 447.367 726.299 448.019 725.842 447.62C725.385 447.221 724.34 446.137 723.902 446.004C723.465 445.871 722.419 446.023 721.909 445.757C721.399 445.491 718.467 443.951 717.954 443.913C717.44 443.874 716.317 443.171 716.128 442.392C715.938 441.613 715.424 441.289 715.443 440.909C715.462 440.529 715.081 439.692 714.796 439.654C714.511 439.617 714.13 438.837 713.54 438.741C712.95 438.645 712.723 438.361 712.344 438.399C711.966 438.437 710.842 438.479 710.423 437.921C710.005 437.363 709.546 436.438 709.073 436.419C708.599 436.4 708.046 435.582 708.312 435.078C708.578 434.574 708.198 434.252 707.59 434.271C706.981 434.29 706.201 434.154 705.764 434.271C705.327 434.387 705.517 434.614 705.269 434.653C705.022 434.691 704.317 434.671 704.128 434.405C703.938 434.139 703.842 434.158 703.462 434.224C703.082 434.29 702.266 433.891 702.169 433.721C702.071 433.55 701.75 433.607 701.579 433.397C701.407 433.188 700.19 432.713 699.563 433.245C698.935 433.778 698.517 433.854 698.287 433.758C698.058 433.663 697.889 433.854 697.603 434.005C697.318 434.157 696.861 434.424 696.823 434.614C696.786 434.805 696.744 435.08 696.744 435.08L696.733 435.086Z" fill="#E9F3F1"/>
<path id="Vector_15" d="M744.322 388.214C743.551 388.195 743.338 388.299 742.782 388.043C742.225 387.786 741.712 388.385 741.712 388.601C741.712 388.817 741.926 388.772 742.14 389.328C742.354 389.883 742.012 390.443 742.698 390.443C743.385 390.443 743.682 390.187 744.152 390.615C744.623 391.043 745.18 390.315 745.48 390.144C745.78 389.972 746.892 389.444 747.32 389.366C747.748 389.288 748.005 388.728 747.491 388.476C746.977 388.223 746.592 387.793 745.694 387.985C744.795 388.176 744.709 388.229 744.324 388.219L744.322 388.214Z" fill="#E9F3F1"/>
<path id="Vector_16" d="M736.534 377.221C735.638 377.329 734.437 377.563 733.752 377.434C733.067 377.306 731.955 376.956 731.44 377.345C730.925 377.734 730.669 377.948 729.857 377.903C729.044 377.858 729.087 377.946 727.375 378.246C725.663 378.545 725.363 378.588 725.235 378.883C725.106 379.179 724.165 379.441 723.438 379.441C722.71 379.441 721.083 379.612 721.125 379.911C721.168 380.211 721.383 381.152 722.152 381.281C722.922 381.409 725.234 381.024 726.219 381.622C727.203 382.221 727.16 383.291 726.818 383.804C726.476 384.317 726.733 385.088 727.075 385.473C727.417 385.858 727.674 386.242 727.117 386.328C726.561 386.413 725.192 386.886 725.406 388.809C725.621 390.732 725.877 391.461 726.176 391.846C726.476 392.231 726.69 392.316 727.203 392.231C727.717 392.146 727.931 392.188 728.102 392.574C728.273 392.959 728.872 393.215 729.386 392.83C729.899 392.445 730.456 391.418 730.841 391.077C731.226 390.736 731.826 390.777 731.911 390.179C731.996 389.58 732.296 388.983 732.981 388.983C733.666 388.983 733.923 388.94 734.308 388.855C734.693 388.77 736.875 387.957 737.303 387.529C737.731 387.101 737.774 387.059 738.63 387.016C739.486 386.973 741.454 386.674 741.925 386.246C742.397 385.818 743.081 385.818 743.423 385.688C743.765 385.558 744.236 384.747 744.108 384.105C743.979 383.463 744.536 383.25 745.092 383.122C745.649 382.993 746.633 381.624 746.803 381.068C746.974 380.512 746.504 379.952 747.146 379.699C747.788 379.447 748.43 378.887 748.9 378.801C749.371 378.716 750.955 378.459 751.084 378.159C751.212 377.859 751.169 377.774 750.612 377.774C750.056 377.774 748.914 377.902 747.773 377.603C746.632 377.305 744.236 376.534 743.123 376.747C742.01 376.961 740.127 377.603 739.229 377.261C738.33 376.918 737.218 377.135 736.533 377.218L736.534 377.221Z" fill="#E9F3F1"/>
<path id="Vector_17" d="M749.458 396.983C749.715 396.77 750.654 396.641 750.913 396.77C751.172 396.899 751.64 397.368 751.341 397.668C751.042 397.967 750.871 397.967 750.828 398.566C750.785 399.165 751.052 399.592 750.448 399.592C749.844 399.592 749.073 399.636 748.987 399.934C748.902 400.233 748.088 400.149 748.088 399.934C748.088 399.72 747.832 398.951 748.088 398.78C748.344 398.608 748.688 398.181 748.431 397.967C748.174 397.752 747.96 397.409 748.516 397.329C748.85 397.278 749.17 397.162 749.458 396.987V396.983Z" fill="#E9F3F1"/>
<path id="Vector_18" d="M752.968 394.031C752.506 394.031 752.453 393.775 752.026 394.031C751.599 394.288 751.662 394.288 751.438 394.631C751.213 394.973 751.076 394.93 751.144 395.315C751.212 395.7 750.734 395.914 751.144 396.299C751.554 396.684 752.283 397.24 752.283 397.453C752.283 397.667 752.841 397.796 752.668 398.138C752.495 398.48 751.64 398.395 751.726 398.696C751.812 398.997 751.407 399.551 751.438 399.891C751.468 400.232 751.106 401.003 751.438 401.046C751.769 401.089 752.583 400.875 752.968 400.746C753.353 400.618 754.38 400.704 754.764 400.447C755.148 400.189 755.492 400.062 755.364 399.889C755.235 399.716 755.278 399.589 755.577 399.504C755.876 399.419 756.049 398.449 755.577 398.42C755.106 398.391 754.893 398.434 754.893 397.878C754.893 397.322 754.893 397.28 754.508 397.065C754.123 396.851 754.08 397.108 753.995 396.252C753.909 395.396 753.909 394.028 752.968 394.028V394.031Z" fill="#E9F3F1"/>
<path id="Vector_19" d="M789.258 455.843C788.83 456.613 788.231 457.039 787.375 457.126C786.52 457.214 786.259 458.752 786.434 459.18C786.61 459.608 786.762 461.062 786.384 461.318C786.006 461.575 785.15 463.029 785.666 463.799C786.183 464.569 786.449 465.853 787.384 465.767C788.319 465.681 789.005 464.572 789.262 463.714C789.518 462.856 790.117 460.463 790.545 459.864C790.974 459.265 790.802 458.752 791.144 458.153C791.486 457.553 791.487 456.185 791.144 455.073C790.801 453.961 790.545 453.704 790.203 454.132C789.861 454.56 789.262 455.843 789.262 455.843H789.258Z" fill="#E9F3F1"/>
<path id="Vector_20" d="M746.377 417.687C746.034 418.414 745.307 419.098 744.879 419.313C744.451 419.527 744.28 419.441 744.023 420.039C743.766 420.638 743.124 420.895 742.996 421.451C742.869 422.007 742.611 422.735 742.183 423.034C741.755 423.332 740.987 424.616 741.156 425.087C741.325 425.558 741.07 426.327 741.412 426.969C741.754 427.611 741.755 429.108 741.412 429.535C741.069 429.962 740.086 431.682 740.899 433.004C741.713 434.326 742.825 434.455 743.211 435.353C743.598 436.251 743.939 437.834 745.095 438.262C746.251 438.69 747.192 439.802 747.487 440.015C747.782 440.229 748.643 439.887 749.028 439.673C749.413 439.458 750.097 439.159 750.611 439.331C751.124 439.502 752.109 439.758 752.409 439.716C752.709 439.673 753.222 439.158 753.778 439.031C754.334 438.904 755.319 438.176 756.26 438.347C757.201 438.517 757.63 439.116 757.715 439.462C757.8 439.808 758.143 440.403 759.085 440.275C760.027 440.147 761.01 440.403 760.967 441.43C760.924 442.456 760.84 442.841 760.668 443.398C760.497 443.954 759.94 444.894 761.267 446.05C762.594 447.206 762.637 448.189 762.722 448.441C762.808 448.693 763.36 449.425 763.407 450.152C763.454 450.879 763.878 452.419 764.045 453.061C764.213 453.702 763.617 454.301 763.36 454.644C763.103 454.986 762.975 456.825 762.633 457.082C762.291 457.34 762.333 458.707 762.462 458.922C762.59 459.136 763.549 461.958 764.075 462.301C764.602 462.644 764.474 463.456 764.474 463.841C764.474 464.226 764.688 465.124 764.73 465.423C764.772 465.723 764.944 467.947 765.8 468.161C766.656 468.375 766.271 469.145 766.443 469.53C766.614 469.915 766.956 470.514 766.871 471.027C766.786 471.54 766.956 472.995 767.255 473.123C767.554 473.251 768.668 473.636 770.165 473.123C771.663 472.61 771.535 473.123 772.219 472.909C772.903 472.696 775.515 471.84 776.328 469.915C777.141 467.99 777.698 468.504 777.826 467.477C777.955 466.451 778.254 466.031 778.554 465.769C778.855 465.508 780.651 464.226 780.223 462.386C779.795 460.547 780.18 460.462 780.693 460.075C781.207 459.688 781.935 458.492 782.79 458.406C783.646 458.32 784.588 456.396 784.417 455.669C784.246 454.941 784.329 454.299 784.437 453.744C784.545 453.188 783.86 451.948 783.646 451.348C783.431 450.749 783.904 449.424 783.347 448.696C782.79 447.968 783.604 447.669 783.947 446.9C784.289 446.13 784.374 445.918 784.887 445.532C785.401 445.145 786.984 442.408 787.498 442.237C788.011 442.065 790.023 440.748 790.493 439.029C790.801 437.907 792.12 435.991 792.162 434.88C792.205 433.768 792.89 433.04 791.393 433.468C789.895 433.896 787.113 434.965 786.813 434.152C786.513 433.339 786.813 433.425 786.386 432.957C785.958 432.488 784.374 430.476 783.86 430.645C783.347 430.815 782.919 429.79 782.962 429.063C783.005 428.336 782.747 427.823 782.149 427.438C781.55 427.053 781.72 425.47 781.335 425.042C780.95 424.614 780.907 423.972 780.437 423.847C779.966 423.721 778.596 420.977 778.64 420.424C778.683 419.871 778.682 418.457 778.002 417.687C777.322 416.917 776.974 416.361 775.819 416.832C774.663 417.303 774.064 416.785 773.765 416.658C773.465 416.531 772.524 416.578 772.096 416.275C771.668 415.973 771.196 416.189 770.98 415.933C770.763 415.676 769.863 415.249 769.567 415.419C769.272 415.59 767.942 415.719 768.155 416.404C768.369 417.088 768.283 417.43 767.942 417.473C767.6 417.516 767.007 416.96 766.468 416.746C765.929 416.531 765.373 416.746 765.202 416.108C765.031 415.47 764.303 415.217 763.833 415.384C763.363 415.552 762.079 415.423 761.95 414.74C761.821 414.056 761.479 414.397 761.821 414.055C762.163 413.713 761.864 413.114 761.993 412.686C762.121 412.258 762.163 411.274 760.666 411.616C759.169 411.958 759.082 411.788 758.312 412.001C757.542 412.215 757.713 411.873 757.028 411.916C756.343 411.959 755.445 412.344 755.017 412.216C754.589 412.087 754.289 412.258 754.075 412.644C753.862 413.029 754.075 412.899 753.305 413.114C752.535 413.328 751.422 413.672 750.993 413.499C750.564 413.326 750.608 412.941 750.137 413.071C749.667 413.201 749.538 413.029 749.538 413.542C749.538 414.055 749.495 414.269 749.152 414.482C748.81 414.696 747.697 415.125 747.356 415.723C747.015 416.322 746.371 417.691 746.371 417.691L746.377 417.687Z" fill="#E9F3F1"/>
<path id="Vector_21" d="M825.678 438.732C825.379 438.904 825.421 439.16 825.678 439.545C825.934 439.93 827.261 440.572 827.219 441.213C827.177 441.855 827.857 441.856 828.032 442.369C828.207 442.882 829.443 444.336 829.615 445.063C829.786 445.791 830.086 446.732 830.642 446.732C831.197 446.732 831.2 447.502 831.798 447.928C832.396 448.353 832.696 449.296 833.21 449.51C833.724 449.723 834.322 449.938 834.322 449.938C834.322 449.938 835.093 450.323 835.735 450.323C836.377 450.323 836.89 450.88 838.003 450.96C839.116 451.04 839.031 450.703 839.415 450.96C839.799 451.217 840.271 451.031 840.4 450.974C840.528 450.918 840.528 451.054 840.827 451.092C841.126 451.131 841.385 450.405 840.827 450.319C840.269 450.232 839.501 449.848 839.501 449.549C839.501 449.249 838.987 448.95 838.559 449.121C838.132 449.291 837.318 448.864 836.933 449.078C836.548 449.291 836.375 449.249 836.12 449.207C835.866 449.165 834.665 449.078 834.494 448.779C834.322 448.48 833.509 447.238 833.809 446.726C834.109 446.213 834.109 445.4 833.638 445.314C833.168 445.228 833.21 444.972 832.91 444.415C832.61 443.859 832.225 442.919 831.327 442.576C830.428 442.233 829.23 441.122 828.801 440.523C828.373 439.925 827.685 439.71 827.646 439.454C827.607 439.197 826.704 438.726 826.191 438.726L825.678 438.732Z" fill="#E9F3F1"/>
<path id="Vector_22" d="M841.155 438.262C840.827 438.732 840.228 439.418 839.886 439.502C839.544 439.587 839.458 439.802 839.244 440.187C839.03 440.572 837.618 441.428 837.104 441.598C836.591 441.769 835.82 442.236 835.908 442.668C835.996 443.1 836.165 443.524 836.123 443.823C836.08 444.123 836.208 444.85 836.636 445.32C837.064 445.79 836.678 446.389 837.107 446.436C837.535 446.482 837.834 446.393 838.005 446.649C838.176 446.906 838.519 446.564 838.775 446.649C839.032 446.735 839.589 446.82 840.017 447.12C840.445 447.421 840.758 447.163 841.158 447.12C841.557 447.078 841.729 446.949 841.686 446.562C841.643 446.176 841.442 445.447 841.692 445.15C841.942 444.854 841.899 444.552 842.33 444.466C842.76 444.381 842.843 443.953 842.888 443.696C842.933 443.438 843.316 443.354 843.487 443.138C843.657 442.922 843.787 442.71 843.487 442.5C843.187 442.291 842.546 441.275 842.803 440.754C843.059 440.234 842.76 440.361 843.231 439.976C843.702 439.591 844.343 439.206 843.958 438.993C843.573 438.779 843.016 438.65 842.674 438.265C842.332 437.88 841.989 437.153 841.776 437.495C841.591 437.767 841.386 438.025 841.162 438.265L841.155 438.262Z" fill="#E9F3F1"/>
<path id="Vector_23" d="M846.947 442.625C846.348 442.54 846.092 442.839 845.831 442.625C845.57 442.412 845.232 442.08 844.975 442.331C844.719 442.582 844.291 442.582 844.248 443.01C844.206 443.438 843.885 443.823 844.066 444.126C844.248 444.429 843.777 444.773 843.692 444.923C843.606 445.073 843.734 445.284 843.692 445.626C843.649 445.968 843.092 446.011 843.307 446.396C843.521 446.781 843.865 446.939 843.865 447.266C843.865 447.594 843.608 448.364 843.779 448.492C843.949 448.62 844.507 448.749 844.635 448.492C844.763 448.235 845.02 447.679 845.534 447.934C846.047 448.189 846.004 448.701 846.389 448.638C846.774 448.575 847.288 448.275 846.947 447.677C846.607 447.078 845.831 445.949 846.262 445.445C846.694 444.941 846.661 444.808 847.06 444.641C847.458 444.474 847.162 444.003 847.247 443.785C847.332 443.567 847.461 443.485 847.889 443.057C848.317 442.629 848.617 441.903 848.316 441.903C848.016 441.903 847.804 442.042 847.589 442.336C847.375 442.63 846.947 442.63 846.947 442.63V442.625Z" fill="#E9F3F1"/>
<path id="Vector_24" d="M844.07 427.654C843.453 427.794 843.383 427.782 843.26 428.595C843.138 429.408 842.702 430.135 843.26 430.947C843.818 431.76 844.465 432.143 844.85 432.102C845.048 432.086 845.247 432.126 845.423 432.216C845.6 432.307 845.747 432.445 845.849 432.616C846.049 432.958 846.861 433.044 847.033 432.915C847.204 432.787 847.119 432.273 847.033 431.932C846.946 431.591 846.434 431.289 846.219 431.374C846.005 431.458 845.492 431.245 845.235 431.331C844.979 431.417 844.722 431.203 844.765 430.818C844.808 430.433 844.877 429.919 845.057 429.833C845.236 429.747 845.492 429.577 845.406 428.978C845.32 428.38 845.385 427.352 844.07 427.652V427.654Z" fill="#E9F3F1"/>
<path id="Vector_25" d="M844.165 459.437C843.395 460.207 842.882 460.463 842.24 460.505C841.598 460.548 840.956 461.063 840.4 461.19C839.843 461.317 839.283 461.447 839.244 461.748C839.205 462.049 838.431 462.261 838.128 462.306C837.825 462.35 838.043 463.289 837.529 463.717C837.016 464.145 836.159 466.198 836.844 466.883C837.529 467.567 836.93 469.92 837.187 470.433C837.445 470.946 837.187 471.802 836.801 472.186C836.415 472.571 835.479 473.128 836.589 473.598C837.699 474.068 838.385 473.984 838.727 473.598C839.069 473.212 839.916 473.128 840.113 473.04C840.31 472.952 840.624 472.642 841.15 472.841C841.676 473.04 842.619 472.655 843.004 472.27C843.39 471.885 844.331 471.154 844.845 471.329C845.358 471.503 846.599 471.244 846.985 471.072C847.371 470.901 848.225 470.435 848.867 470.816C849.509 471.197 850.151 471.244 850.28 471.756C850.409 472.269 850.665 472.099 850.579 472.569C850.493 473.039 851.046 473.598 851.968 473.917C852.891 474.237 852.805 474.879 852.719 475.606C852.634 476.334 855.415 477.617 856.999 477.232C858.582 476.847 857.983 476.847 858.625 476.591C859.267 476.334 859.07 475.992 859.682 475.906C860.295 475.82 859.994 475.992 860.68 474.965C861.366 473.937 861.238 474.237 861.578 473.938C861.917 473.639 861.492 472.997 862.476 472.484C863.46 471.971 864.146 471.543 864.189 471.115C864.232 470.687 864.659 470.644 864.831 470.302C865.002 469.959 864.916 469.618 865.515 468.89C866.114 468.163 866.05 466.966 866.403 466.538C866.756 466.11 866.671 464.442 865.943 464.185C865.215 463.928 864.103 460.335 863.461 460.079C863.077 459.925 862.562 459.736 862.562 459.736C862.439 459.426 862.837 458.958 862.904 458.667C863.076 457.94 862.346 456.785 862.267 456.314C862.187 455.843 861.24 454.176 861.24 453.791C861.24 453.406 860.681 452.893 860.341 453.32C860 453.747 859.827 454.389 859.871 454.689C859.914 454.989 859.399 455.805 859.485 456.272C859.57 456.739 858.926 457.212 858.8 457.897C858.674 458.581 858.242 458.325 857.901 458.197C857.56 458.068 856.874 457.341 856.404 457.212C855.933 457.083 855.677 456.058 855.976 455.673C856.275 455.287 856.232 455.035 856.318 454.817C856.404 454.6 856.532 454.005 856.275 453.876C856.019 453.748 854.435 453.705 854.05 453.448C853.665 453.192 852.854 452.698 852.595 453.158C852.336 453.619 851.268 454.303 851.054 454.646C850.841 454.989 850.326 455.758 850.369 455.972C850.412 456.187 849.899 456.272 849.77 455.887C849.641 455.502 848.957 454.989 848.401 455.329C847.845 455.669 846.304 456.356 846.132 456.954C845.961 457.553 845.277 457.512 844.977 457.81C844.677 458.108 844.164 459.436 844.164 459.436L844.165 459.437Z" fill="#E9F3F1"/>
<path id="Vector_26" d="M830.171 437.403C830.729 437.663 831.712 438.99 831.798 439.332C831.884 439.674 832.012 440.572 832.054 441C832.096 441.428 832.653 442.08 832.482 442.331C832.311 442.582 831.788 442.54 831.343 442.154C830.899 441.769 829.828 440.871 829.658 440.187C829.578 439.855 829.484 439.316 829.23 438.876C828.96 438.409 828.529 438.044 828.459 437.834C828.317 437.403 828.01 437.197 827.689 436.894C827.53 436.746 827.746 435.379 827.784 435.206C827.822 435.032 827.632 434.503 827.746 434.237C827.86 433.97 827.765 432.659 827.499 432.354C827.232 432.05 826.681 430.738 826.701 430.472C826.722 430.206 826.244 429.75 825.94 429.864C825.635 429.978 825.179 430.092 825.143 430.32C825.106 430.548 824.724 430.301 824.648 430.149C824.572 429.997 824.021 430.547 824.04 429.939C824.059 429.331 824.42 428.97 823.222 426.879C822.953 426.41 823.142 427.259 822.743 426.613C822.345 425.966 821.866 425.681 821.946 425.472C822.026 425.264 821.718 424.655 820.957 424.863C820.197 425.072 819.265 425.092 819.056 425.206C818.847 425.32 818.39 425.624 818.447 426.023C818.503 426.422 817.99 426.727 817.782 426.86C817.573 426.993 817.002 427.24 816.792 427.716C816.582 428.192 816.24 428.077 816.202 428.476C816.164 428.875 815.325 428.954 815.325 429.353C815.325 429.751 814.488 429.98 814.184 430.474C813.88 430.968 814.241 431.691 814.184 432.185C814.127 432.679 813.765 434.049 813.899 434.429C814.032 434.809 813.936 434.885 813.727 434.961C813.518 435.037 813.784 435.322 813.385 435.646C813.073 435.889 812.786 436.163 812.529 436.463C812.263 436.768 811.845 437.049 811.388 436.138C810.931 435.227 810.76 434.146 810.456 433.992C810.151 433.838 809.809 432.796 809.752 432.376C809.694 431.955 809.162 430.893 808.896 430.721C808.63 430.55 807.869 428.402 807.983 427.965C808.097 427.529 807.888 427.242 807.736 426.995C807.584 426.748 807.907 426.463 807.736 426.254C807.564 426.045 807.375 425.759 807.07 425.836C806.766 425.912 806.273 426.368 805.794 425.626C805.316 424.884 805.09 425.246 804.976 425.056C804.862 424.867 804.498 424.296 804.596 423.992C804.694 423.687 803.778 423.611 803.683 423.384C803.588 423.156 803.056 422.507 802.789 422.319C802.523 422.131 801.458 421.957 801.035 422.186C800.612 422.414 798.758 423.101 796.092 421.767C795.863 421.653 795.711 420.874 795.54 420.778C795.368 420.683 794.912 420.608 794.95 420.874C794.987 421.14 794.303 421.178 794.133 421.102C793.962 421.026 792.378 420.51 792.092 420.225C791.826 419.959 791.694 420.025 791.579 420.011C791.464 419.996 791.094 419.255 791.065 419.054C791.037 418.854 790.494 418.013 790.138 418.027C789.781 418.041 789.125 418.027 789.225 418.655C789.325 419.283 789.852 420.137 790.352 420.28C790.852 420.423 791.237 420.851 791.322 421.036C791.407 421.221 791.821 421.178 791.88 421.594C791.939 422.009 792.094 422.477 791.909 422.52C791.724 422.563 791.866 422.806 791.98 422.849C792.094 422.892 793.096 423.105 793.535 422.863C793.973 422.621 794.148 422.421 794.262 422.193C794.376 421.965 795.105 421.651 795.404 422.092C795.703 422.534 796.017 423.262 796.445 423.262C796.872 423.262 797.201 423.348 797.43 423.718C797.658 424.089 798.114 424.26 798.071 424.631C798.029 425.001 797.714 425.943 797.401 426.27C797.087 426.598 796.887 427.097 796.973 427.425C797.058 427.752 796.687 427.696 796.544 427.839C796.402 427.983 795.888 428.651 795.489 428.651C795.089 428.651 794.99 428.922 794.975 429.079C794.961 429.236 794.762 429.222 794.59 429.239C794.419 429.256 793.877 429.695 793.578 429.709C793.279 429.723 793.05 429.994 792.978 430.151C792.906 430.308 792.992 430.351 792.85 430.536C792.707 430.722 792.065 431.064 791.866 431.064C791.666 431.064 791.267 431.078 790.924 431.349C790.581 431.62 790.168 431.862 789.967 431.834C789.766 431.805 789.226 432.062 789.069 432.247C788.913 432.433 788.141 432.447 787.999 432.546C787.856 432.646 787.571 433.232 787 432.746C786.429 432.261 786.401 431.848 786.273 431.406C786.146 430.963 785.788 430.964 785.617 430.065C785.446 429.166 784.861 428.471 784.69 428.341C784.518 428.21 784.718 427.855 784.561 427.67C784.403 427.485 783.777 426.555 783.391 426.475C783.005 426.395 782.621 425.177 782.635 424.664C782.649 424.151 781.951 423.238 781.708 423.15C781.464 423.062 781.18 422.494 781.109 422.266C781.038 422.038 780.281 420.897 779.993 420.683C779.704 420.47 779.694 419.971 779.594 419.856C779.494 419.741 779.355 419.101 779.252 419.03C779.149 418.959 778.467 417.162 778.753 416.777C779.038 416.392 778.992 416.035 779.096 415.792C779.191 415.552 779.234 415.295 779.223 415.037C779.21 414.823 779.58 414.453 779.594 414.182C779.607 413.911 779.466 413.225 779.537 413.141C779.608 413.056 779.451 412.485 779.152 412.527C778.853 412.569 778.325 412.513 778.139 412.798C777.953 413.084 777.326 412.958 777.182 412.87C777.038 412.782 777.039 412.699 777.039 412.642C777.039 412.585 776.255 412.727 775.998 412.442C775.741 412.157 775.913 412.727 775.698 412.699C775.484 412.67 775.06 412.798 774.572 412.471C774.083 412.143 774.001 412.424 773.774 412.362C773.548 412.3 772.647 411.558 772.561 410.848C772.476 410.138 772.704 409.493 772.433 409.28C772.162 409.066 771.795 408.895 771.577 408.895C771.358 408.895 771.019 409.009 770.964 409.308C770.909 409.608 770.921 410.292 771.078 410.606C771.235 410.92 771.145 411.433 770.933 411.462C770.722 411.49 770.793 411.903 770.721 412.203C770.649 412.503 770.236 412.601 769.951 412.474C769.666 412.346 769.295 412.075 769.266 411.547C769.237 411.019 768.325 410.62 768.168 409.979C768.011 409.337 767.911 409.48 767.797 409.408C767.683 409.336 767.897 408.611 767.726 408.311C767.554 408.01 767.008 407.098 766.467 406.999C765.925 406.899 766.37 406.827 765.988 406.656C765.606 406.485 764.904 406.186 764.818 405.815C764.733 405.445 764.234 405.23 763.92 405.145C763.606 405.06 763.249 404.817 763.123 405.245C763.069 405.437 763.077 405.64 763.147 405.827C763.216 406.014 763.342 406.174 763.508 406.285C763.793 406.457 763.978 406.756 764.008 406.97C764.037 407.184 764.777 407.74 764.934 407.726C765.091 407.711 765.505 407.854 765.691 408.04C765.877 408.225 766.946 408.723 767.074 408.952C767.203 409.181 767.431 409.494 767.246 409.622C767.061 409.751 766.746 409.608 766.66 409.508C766.575 409.407 766.204 409.268 766.147 409.394C766.089 409.519 765.918 409.722 766.075 409.822C766.232 409.921 766.46 410.306 766.219 410.535C765.977 410.764 766.059 410.948 765.948 411.048C765.836 411.148 765.205 411.518 765.15 411.447C765.095 411.375 764.991 411.703 765.05 411.96C765.109 412.216 764.751 412.444 764.394 412.231C764.038 412.017 763.866 411.874 763.567 411.788C763.268 411.703 762.61 411.346 762.981 411.047C763.353 410.748 764.28 411.075 764.451 411.019C764.622 410.962 765.05 410.99 765.136 410.791C765.222 410.591 765.307 410.477 765.307 410.191C765.307 409.906 764.736 409.122 764.437 409.037C764.138 408.951 761.983 407.596 761.698 407.197C761.412 406.798 761.313 406.256 760.955 406.142C760.598 406.028 760.528 405.842 760.2 406.156C759.871 406.47 759.771 406.427 759.458 406.527C759.145 406.627 759.201 406.984 759.002 406.998C758.803 407.012 758.146 406.839 757.886 406.741C757.626 406.644 756.769 406.67 756.716 407.211C756.663 407.753 756.692 408.319 756.088 408.466C755.856 408.522 755.732 408.837 755.118 408.837C754.947 408.837 754.719 409.535 754.547 409.634C754.375 409.733 754.149 409.92 754.176 410.134C754.204 410.348 754.433 410.561 754.263 410.776C754.092 410.99 753.82 411.089 753.806 411.317C753.791 411.546 753.863 411.73 753.566 411.802C753.27 411.874 752.996 412.315 752.725 412.415C752.453 412.514 751.768 412.644 751.569 412.558C751.371 412.471 751.056 412.586 750.985 412.717C750.914 412.848 750.171 412.802 750.043 412.674C749.915 412.546 749.53 412.175 749.315 412.116C749.101 412.057 748.331 412.102 748.145 412.102C747.96 412.102 747.732 411.659 747.76 411.103C747.788 410.547 747.446 410.705 747.433 410.59C747.419 410.475 747.76 409.905 747.917 409.478C748.074 409.051 748.088 408.252 748.088 407.952C748.088 407.652 748.16 407.653 748.174 407.439C748.188 407.224 747.86 406.826 748.259 406.697C748.659 406.569 748.745 406.412 748.802 406.327C748.858 406.242 749.158 406.112 749.401 406.255C749.644 406.398 750.799 406.199 750.985 406.355C751.171 406.511 752.268 406.383 752.453 406.483C752.638 406.583 752.925 406.74 753.138 406.569C753.352 406.398 753.467 405.999 753.409 405.799C753.352 405.6 753.695 405.35 753.649 404.997C753.602 404.644 753.335 403.66 752.907 403.503C752.479 403.346 752.336 402.905 751.837 402.976C751.338 403.047 751.531 402.648 751.434 402.52C751.338 402.391 750.967 402.106 751.495 402.034C752.023 401.963 752.992 402.049 753.206 401.579C753.42 401.108 754.035 401.094 754.176 401.237C754.318 401.379 754.59 401.579 754.833 401.279C755.075 400.979 755.261 401.147 755.375 401.057C755.539 400.915 755.649 400.722 755.689 400.509C755.718 400.281 756.216 400.024 756.486 399.896C756.757 399.768 757.129 399.682 757.386 399.311C757.642 398.941 758.27 398.071 758.727 398.142C759.184 398.213 759.568 397.983 759.81 397.643C760.053 397.304 759.911 396.802 759.881 396.574C759.852 396.346 759.767 395.533 760.253 395.333C760.739 395.134 760.811 394.792 761.095 394.935C761.379 395.078 761.38 395.049 761.423 395.391C761.466 395.733 761.522 396.075 761.394 396.446C761.266 396.817 761.437 397.464 761.751 397.49C762.065 397.516 762.222 397.664 762.45 397.49C762.678 397.316 763.192 397.073 763.377 397.259C763.562 397.445 763.677 397.687 763.876 397.758C764.075 397.829 764.39 397.843 764.875 397.587C765.36 397.33 766.03 397.088 766.458 397.131C766.885 397.174 767.828 397.145 767.956 396.275C768.084 395.404 767.927 394.65 769.152 394.692C770.377 394.734 769.808 393.794 769.609 393.566C769.41 393.338 768.353 393.067 768.268 392.81C768.182 392.554 767.811 392.44 767.883 392.183C767.954 391.926 767.868 391.969 767.825 391.755C767.782 391.542 767.697 391.47 767.711 391.128C767.726 390.786 768.082 390.201 768.595 390.115C769.109 390.029 768.953 389.63 769.309 389.488C769.666 389.345 769.666 389.359 769.723 389.146C769.78 388.932 769.808 388.832 769.495 388.846C769.182 388.861 768.624 388.775 768.367 388.96C768.111 389.145 767.73 389.488 767.73 389.844C767.73 390.2 767.415 390.301 766.974 390.5C766.532 390.699 765.305 390.957 765.718 391.84C766.131 392.724 765.904 392.311 766.146 392.44C766.388 392.568 766.959 393.181 766.66 393.338C766.36 393.495 766.574 393.637 766.446 393.779C766.256 394.001 766.007 394.165 765.728 394.25C765.357 394.364 765.33 395.02 765.271 395.534C765.213 396.047 765.343 396.318 764.658 396.318C763.973 396.318 764.173 396.275 764.045 396.489C763.917 396.703 762.647 397.017 762.319 396.974C761.99 396.931 761.948 396.416 762.159 396.346C762.371 396.277 762.573 395.976 762.759 395.948C762.945 395.92 763.044 395.534 762.687 395.278C762.33 395.021 761.989 394.308 761.832 394.237C761.675 394.166 761.518 393.795 761.261 393.838C761.004 393.882 760.79 393.938 760.534 394.281C760.277 394.623 758.665 395.036 758.451 393.781C758.237 392.526 758.212 392.726 758.122 392.384C758.033 392.042 757.937 391.343 758.964 391.043C759.991 390.744 759.777 390.474 760.08 390.359C760.383 390.244 761.478 389.874 761.978 389.261C762.477 388.649 763.518 386.994 764.574 386.524C765.629 386.054 765.401 385.825 765.644 385.697C765.823 385.615 765.969 385.474 766.058 385.298C766.157 385.127 767.113 385.284 767.455 385.184C767.797 385.085 767.784 384.7 768.34 384.685C768.895 384.671 771.878 384.727 772.234 384.913C772.589 385.099 772.891 385.073 773.047 385.242C773.203 385.41 773.533 385.255 773.765 385.498C773.997 385.741 773.879 385.768 774.949 385.911C776.019 386.054 777.773 386.469 778.116 386.838C778.459 387.207 779.232 387.351 779.585 387.181C779.938 387.01 780.098 386.695 780.526 386.482C780.954 386.268 781.054 386.268 781.439 386.51C781.824 386.753 781.678 386.738 781.881 386.895C782.085 387.052 782.599 387.123 783.151 386.924C783.703 386.725 783.836 386.685 784.136 386.653C784.435 386.621 784.592 386.125 785.063 386.154C785.533 386.183 786.732 386.125 787.003 386.268C787.274 386.411 787.888 386.239 788.229 386.029C788.57 385.819 788.715 385.273 789.257 385.359C789.799 385.445 790.041 385.43 790.541 385.473C791.04 385.516 791.497 385.102 791.682 384.774C791.866 384.445 792.052 384.318 792.181 384.289C792.311 384.26 791.853 383.847 792.181 383.605C792.51 383.362 793.522 383.034 794.149 383.405C794.777 383.777 794.621 383.832 794.935 383.832C795.249 383.832 795.619 383.648 796.019 383.593C796.419 383.539 796.418 383.579 796.86 383.565C797.303 383.55 797.902 383.545 797.973 383.241C798.043 382.937 798.001 382.763 798.558 382.78C799.114 382.798 799.086 382.61 799.827 382.524C800.569 382.438 800.226 381.886 801.282 381.811C802.339 381.736 801.325 381.426 802.038 381.398C802.751 381.369 803.864 381.34 803.952 381.17C804.039 380.999 804.979 380.913 805.192 380.998C805.406 381.084 805.42 380.998 805.821 380.759C806.221 380.52 807.517 380.075 808.189 380.288C808.86 380.502 809.344 380.527 809.986 380.731C810.628 380.934 810.699 380.873 811.241 380.89C811.783 380.907 813.481 381.129 814.037 381.974C814.594 382.819 814.595 382.771 814.965 382.815C815.334 382.859 816.291 382.943 816.79 382.986C817.29 383.029 817.318 382.729 817.646 382.758C817.974 382.787 819.843 382.515 820.614 382.772C821.384 383.028 823.367 383.2 823.781 383.129C824.194 383.058 825.193 383.442 825.706 383.799C826.22 384.156 827.432 384.526 828.488 384.013C829.544 383.499 830.143 383.371 831.056 383.528C831.969 383.685 834.551 383.671 834.963 383.87C835.374 384.069 835.99 384.226 836.289 384.241C836.588 384.255 837.131 384.697 837.587 384.697C838.043 384.697 838.515 384.857 839.142 384.712C839.77 384.566 841.04 384.583 841.454 384.84C841.869 385.096 842.025 384.896 842.268 384.954C842.51 385.011 842.624 385.182 842.796 385.352C842.967 385.523 845.52 385.866 846.775 385.591C848.03 385.317 847.646 385.363 848.359 385.378C849.071 385.392 853.138 385.378 853.808 385.819C854.477 386.261 854.964 386.204 855.548 386.19C856.133 386.176 858.601 386.907 859.129 387.189C859.657 387.47 859.957 387.559 860.613 387.573C861.269 387.588 863.109 388.029 863.38 388.486C863.651 388.943 863.95 389.427 863.679 389.641C863.408 389.854 862.553 390.026 862.367 389.854C862.181 389.683 862.224 389.669 861.725 389.555C861.226 389.442 860.228 389.299 860.228 389.157C860.228 389.015 860.284 388.957 859.7 389.071C859.115 389.185 858.402 389.827 859.586 390.155C860.77 390.482 861.712 390.91 860.782 391.253C859.852 391.596 859.985 391.11 859.312 391.695C858.64 392.279 858.085 393.263 857.286 393.149C856.487 393.035 856.245 393.092 856.046 393.263C855.846 393.434 855.133 393.363 855.232 393.763C855.332 394.162 855.561 394.804 855.832 394.903C856.103 395.003 856.829 395.773 856.887 396.401C856.944 397.029 857.415 396.358 857.458 397.171C857.501 397.983 857.344 399.095 857.219 399.623C857.093 400.15 856.876 400.621 856.391 400.181C855.906 399.741 854.579 398.741 854.365 398.313C854.15 397.885 853.851 397.675 853.381 397.443C852.911 397.211 851.356 395.604 851.769 394.574C852.182 393.544 852.297 393.32 852.226 393.12C852.155 392.921 852.596 392.935 852.353 392.735C852.11 392.535 851.94 392.436 851.569 392.496C851.199 392.555 851.127 392.439 851.085 392.382C851.042 392.324 850.628 392.541 850.527 392.253C850.425 391.966 848.808 391.188 848.843 392.439C848.857 392.952 849.171 393.037 849.271 393.209C849.37 393.38 849.499 393.665 849.271 393.807C849.043 393.95 847.873 394.206 847.631 394.064C847.388 393.922 847.146 393.825 846.846 393.679C846.546 393.533 845.99 393.608 845.534 393.622C845.078 393.637 844.478 393.463 844.321 393.693C844.164 393.924 843.722 393.608 843.308 393.608C842.894 393.608 841.539 393.465 841.611 394.635C841.682 395.804 841.325 395.518 841.168 395.903C841.011 396.288 840.483 396.189 841.054 396.631C841.625 397.073 842.381 397.757 842.681 397.643C842.981 397.529 843.451 397.484 844.136 397.6C844.821 397.716 844.906 397.728 845.219 397.614C845.533 397.5 845.762 397.229 846.076 397.8C846.39 398.371 846.375 398.57 846.76 398.641C847.145 398.712 846.86 398.57 847.288 399.141C847.716 399.711 847.902 399.468 848.158 400.024C848.415 400.581 848.158 400.395 848.643 400.809C849.128 401.222 849.028 400.98 849.471 401.367C849.913 401.753 849.827 401.794 849.927 402.065C850.027 402.336 850.298 402.906 850.512 403.405C850.727 403.904 851.297 404.161 850.672 404.403C850.047 404.645 849.874 404.589 849.531 403.976C849.187 403.363 848.56 401.837 847.804 402.35C847.049 402.863 847.576 404.502 847.219 405.031C846.863 405.56 846.948 406.457 846.706 406.87C846.463 407.284 845.493 407.583 845.079 407.508C844.665 407.433 844.452 407.736 844.394 408.321C844.337 408.906 843.311 409.689 843.553 409.946C843.795 410.203 844.994 410.922 845.093 411.368C845.193 411.813 846.463 412.84 846.25 413.339C846.036 413.838 845.735 413.91 845.379 413.977C845.023 414.044 845.008 414.49 844.623 414.334C844.238 414.178 844.065 414.105 843.967 413.564C843.869 413.023 843.481 412.138 842.897 411.853C842.312 411.568 841.727 411.183 841.727 410.598C841.727 410.013 841.214 409.771 840.8 409.828C840.386 409.885 839.815 410.056 839.684 410.37C839.552 410.684 839.056 410.683 839.014 410.341C838.972 409.999 838.828 409.857 838.914 409.728C839 409.6 838.7 409.129 838.186 409.315C837.673 409.5 837.573 410.569 837.947 410.909C838.321 411.248 838.289 411.478 838.475 411.466C838.655 411.462 838.834 411.426 839.003 411.362C839.145 411.295 839.573 411.309 839.73 411.466C839.887 411.623 840.301 411.637 840.543 411.637C840.785 411.637 841.27 412.008 840.643 412.264C840.015 412.521 839.502 413.061 839.63 413.405C839.758 413.75 840.158 414.09 840.472 414.521C840.786 414.952 840.957 415.748 841.242 415.833C841.528 415.918 843.11 417.259 842.611 419.212C842.112 421.166 842.183 420.795 842.027 420.838C841.871 420.881 841.812 421.223 841.841 421.579C841.87 421.935 841.627 422.363 841.37 422.549C841.113 422.735 840.766 423.399 840.329 423.59C839.819 423.814 840.286 424.018 839.901 424.06C839.517 424.102 839.074 424.388 838.874 424.446C838.675 424.503 838.746 424.616 838.646 424.745C838.547 424.873 837.704 425.102 837.248 425.586C836.792 426.071 835.521 426.727 835.095 426.257C834.668 425.786 834.338 425.46 833.899 425.586C833.46 425.713 832.344 426.528 832.672 427.411C832.999 428.295 834.984 429.793 835.054 430.234C835.124 430.676 835.653 430.976 835.612 431.518C835.572 432.06 835.97 432.156 835.983 432.545C835.997 432.934 835.912 433.942 835.627 434.042C835.341 434.143 835.142 434.626 834.614 434.798C834.086 434.969 834.258 435.524 833.645 435.725C833.031 435.925 833.672 436.195 833.216 436.309C832.76 436.423 832.531 436.765 832.232 435.91C831.932 435.056 831.633 434.727 831.447 434.715C831.261 434.703 831.148 434.077 831.119 433.959C831.091 433.841 830.391 432.918 830.064 432.989C829.736 433.061 829.236 432.761 829.093 433.26C828.951 433.759 828.695 433.745 828.609 434.33C828.522 434.915 828.437 434.9 828.509 435.214C828.581 435.527 828.551 435.656 828.708 435.556C828.865 435.457 828.88 435.343 829.022 435.614C829.165 435.885 829.393 435.841 829.262 436.241C829.13 436.641 829.19 436.369 829.421 436.754C829.652 437.139 829.72 437.542 829.948 437.481L830.177 437.42L830.171 437.403Z" fill="#E9F3F1"/>
<path id="Vector_27" d="M848.316 413.352C847.931 413.523 847.732 413.809 847.547 414.149C847.362 414.489 847.318 414.734 847.162 414.89C847.005 415.046 846.962 415.475 847.162 415.788C847.362 416.102 847.703 416.687 847.959 416.787C848.215 416.887 848.288 417.015 848.315 417.158C848.343 417.3 849.043 417.072 849.043 416.701C849.043 416.33 849.228 415.86 849.457 415.788C849.686 415.717 850.342 415.262 850.755 415.39C851.169 415.518 851.868 415.077 851.968 414.677C852.069 414.278 852.424 414.207 852.765 414.164C853.107 414.121 853.592 414.079 853.836 413.85C854.079 413.621 854.277 413.523 854.149 412.995C854.02 412.467 854.149 411.07 853.764 410.785C853.379 410.501 853.407 410.171 853.407 409.929C853.407 409.687 853.207 409.345 852.979 409.102C852.751 408.859 852.494 408.176 852.751 408.047C853.008 407.918 853.465 407.762 853.692 407.419C853.919 407.077 854.234 406.835 854.02 406.623C853.807 406.41 853.564 406.053 853.536 405.91C853.507 405.767 853.364 405.696 852.836 405.724C852.309 405.753 851.067 405.24 850.882 405.012C850.697 404.784 849.998 404.669 850.085 405.382C850.172 406.096 850.427 405.924 850.324 406.295C850.221 406.666 849.881 407.079 850.253 407.336C850.62 407.575 850.908 407.917 851.081 408.319C851.251 408.733 851.737 409.246 851.665 409.603C851.593 409.96 851.994 409.888 851.936 410.241C851.879 410.593 852.065 411.054 851.166 411.553C850.267 412.051 850.608 412.137 850.282 412.494C849.956 412.851 849.484 413.264 848.969 413.092C848.453 412.921 848.312 413.349 848.312 413.349L848.316 413.352Z" fill="#E9F3F1"/>
</g>
<path id="Ellipse 1" d="M791 431.5C791 467.675 761.675 497 725.5 497C689.325 497 660 467.675 660 431.5C660 395.325 689.325 366 725.5 366C761.675 366 791 395.325 791 431.5Z" fill="#C4C4C4"/>
</g>
<path id="small2" d="M721.94 446.88C731.296 446.88 738.88 439.296 738.88 429.94C738.88 420.584 731.296 413 721.94 413C712.584 413 705 420.584 705 429.94C705 439.296 712.584 446.88 721.94 446.88Z" fill="#848EC2"/>
<path id="small" d="M721.94 446.88C731.296 446.88 738.88 439.296 738.88 429.94C738.88 420.584 731.296 413 721.94 413C712.584 413 705 420.584 705 429.94C705 439.296 712.584 446.88 721.94 446.88Z" fill="#4D5275"/>
<path id="Vector_28" d="M714.06 167L714.4 689.27" stroke="#4D5275" stroke-miterlimit="10"/>
<path id="Vector_29" d="M714.06 167L714.4 689.27" stroke="#4D5275" stroke-miterlimit="10"/>
<g id="Frame" clip-path="url(#clip0_1_2)">
<path id="Vector_30" d="M721.38 447.88C730.736 447.88 738.32 440.296 738.32 430.94C738.32 421.584 730.736 414 721.38 414C712.024 414 704.44 421.584 704.44 430.94C704.44 440.296 712.024 447.88 721.38 447.88Z" fill="#4D5275"/>
<g id="Frame_2" clip-path="url(#clip1_1_2)">
<path id="right" d="M798.06 479.58C798.06 474.5 798.093 467.947 798.16 459.92C798.24 451.92 798.33 434.2 798.43 428.08H786.23C786.23 434.28 786.28 450.95 786.38 456.87C786.48 462.79 786.53 468.44 786.53 473.8H774.53H755.3C748.4 473.8 742.03 473.8 736.19 473.8H726.55C726.555 473.809 726.558 473.819 726.558 473.83C726.558 473.841 726.555 473.851 726.55 473.86H715.03C715.03 474.5 715.03 475.13 715.03 475.74C715.03 483.12 715.03 489.437 715.03 494.69C715.04 494.766 715.04 494.844 715.03 494.92C715.03 499.48 715 503.217 714.94 506.13C714.94 506.51 714.94 506.87 714.94 507.21C714.827 513.43 714.753 517.763 714.72 520.21H726.87C726.87 517.78 726.75 513.66 726.68 507.85C726.68 505.583 726.66 502.9 726.62 499.8C726.62 499.24 726.62 498.67 726.62 498.08C726.62 493.587 726.62 488.303 726.62 482.23H737.74C744.57 482.23 750.41 482.23 755.29 482.23C759.33 482.23 765.37 482.23 773.41 482.23H786.57C786.57 492.003 786.53 500.167 786.45 506.72C786.38 513.28 786.32 530.44 786.28 532.88H798.47C798.47 530.42 798.35 513.35 798.25 506.99C798.15 500.63 798.06 491.51 798.06 479.58Z" fill="#848EC2"/>
<path id="left" d="M727.15 499.96C727.15 499.4 727.15 498.83 727.15 498.24C727.15 493.033 727.133 487.033 727.1 480.24C727.1 478.61 727.1 476.55 727.1 474.04H715.3C715.4 482.28 715.49 489.23 715.53 494.88C715.54 494.956 715.54 495.034 715.53 495.11C715.583 499.677 715.61 503.393 715.61 506.26L715.44 506.32C701.77 492.98 687.15 478.6 671.77 463.02C655.58 446.61 634.95 428.36 634.95 428.36V442.81C635.11 451.39 635.213 459.517 635.26 467.19C635.307 474.863 635.337 481.01 635.35 485.63C635.35 497.23 635.293 506.28 635.18 512.78C635.08 519.28 634.96 531.28 634.95 532.37H647.47C647.47 529.81 647.3 512.01 647.11 495.42C646.92 478.83 646.83 464.84 646.83 453.42L646.99 453.36C649.19 455.527 657.317 463.587 671.37 477.54C685.43 491.54 727.37 532.47 727.37 532.47V520.38C727.37 519.913 727.313 516.123 727.2 509.01C727.193 506.35 727.177 503.333 727.15 499.96Z" fill="#848EC2"/>
<path id="Vector_31" d="M635.18 558.36V548.81H632V546.61H640.68V548.81H637.51V558.34L635.18 558.36Z" fill="#4D5275"/>
<path id="Vector_32" d="M649.93 558.36V553.44H644.77V558.36H642.47V546.63H644.77V551.24H649.91V546.63H652.24V558.36H649.93Z" fill="#4D5275"/>
<path id="Vector_33" d="M654.71 558.36V546.63H662.41V548.81H657.02V551.36H662.29V553.51H657.02V556.24H662.41V558.4L654.71 558.36Z" fill="#4D5275"/>
<g id="Frame_3" clip-path="url(#clip2_1_2)">
<path id="Vector_34" d="M721.38 447.88C730.736 447.88 738.32 440.296 738.32 430.94C738.32 421.584 730.736 414 721.38 414C712.024 414 704.44 421.584 704.44 430.94C704.44 440.296 712.024 447.88 721.38 447.88Z" fill="#4D5275"/>
<g id="the">
<path id="t" d="M635.18 558.36V548.81H632V546.61H640.68V548.81H637.51V558.34L635.18 558.36Z" fill="#4D5275"/>
<path id="h" d="M649.93 558.36V553.44H644.77V558.36H642.47V546.63H644.77V551.24H649.91V546.63H652.24V558.36H649.93Z" fill="#4D5275"/>
<path id="e" d="M654.71 558.36V546.63H662.41V548.81H657.02V551.36H662.29V553.51H657.02V556.24H662.41V558.4L654.71 558.36Z" fill="#4D5275"/>
</g>
<g id="nesting">
<path id="n" d="M676.52 558.36L671.33 550.48V558.36H669.01V546.63H671.39L676.39 554.23V546.63H678.77V558.36H676.52Z" fill="#4D5275"/>
<path id="e_2" d="M681.21 558.36V546.63H688.91V548.81H683.53V551.36H688.77V553.51H683.5V556.24H688.88V558.4L681.21 558.36Z" fill="#4D5275"/>
<path id="Vector_35" d="M691.56 554.81C691.991 555.305 692.522 555.702 693.119 555.974C693.716 556.247 694.364 556.389 695.02 556.39C696.29 556.39 696.91 555.74 696.91 555.07C696.91 554.19 695.96 553.89 694.71 553.58C692.93 553.14 690.64 552.58 690.64 549.99C690.64 547.99 692.21 546.45 694.77 546.45C695.551 546.421 696.33 546.552 697.059 546.834C697.788 547.116 698.451 547.543 699.01 548.09L697.77 549.92C696.943 549.098 695.826 548.635 694.66 548.63C693.66 548.63 693.06 549.13 693.06 549.83C693.06 550.53 693.97 550.83 695.23 551.18C697.02 551.62 699.31 552.18 699.31 554.81C699.31 556.95 697.89 558.57 694.95 558.57C694.093 558.607 693.239 558.461 692.443 558.14C691.648 557.819 690.931 557.331 690.34 556.71L691.56 554.81Z" fill="#4D5275"/>
<path id="Vector_36" d="M703.53 558.36V548.81H700.35V546.61H709.03V548.81H705.86V558.34L703.53 558.36Z" fill="#4D5275"/>
<path id="Vector_37" d="M710.82 558.36V546.63H713.14V558.36H710.82Z" fill="#4D5275"/>
<path id="Vector_38" d="M723.11 558.36L717.92 550.48V558.36H715.6V546.63H717.98L722.98 554.23V546.63H725.3V558.36H723.11Z" fill="#4D5275"/>
<path id="Vector_39" d="M733.07 546.43C733.985 546.405 734.889 546.631 735.685 547.084C736.48 547.537 737.136 548.2 737.58 549L735.65 550.13C735.386 549.68 735.009 549.307 734.556 549.048C734.104 548.788 733.592 548.651 733.07 548.65C731.07 548.65 729.67 550.29 729.67 552.5C729.67 554.71 731.1 556.36 733.07 556.36C733.938 556.363 734.776 556.042 735.42 555.46V554.03H732.52V551.89H737.71V556.37C737.156 557.069 736.451 557.632 735.647 558.016C734.843 558.401 733.961 558.597 733.07 558.59C731.518 558.501 730.058 557.822 728.991 556.691C727.924 555.561 727.329 554.065 727.329 552.51C727.329 550.955 727.924 549.459 728.991 548.329C730.058 547.198 731.518 546.519 733.07 546.43V546.43Z" fill="#4D5275"/>
<path id="Vector_40" d="M733.07 546.43C733.985 546.405 734.889 546.631 735.685 547.084C736.48 547.537 737.136 548.2 737.58 549L735.65 550.13C735.386 549.68 735.009 549.307 734.556 549.048C734.104 548.788 733.592 548.651 733.07 548.65C731.07 548.65 729.67 550.29 729.67 552.5C729.67 554.71 731.1 556.36 733.07 556.36C733.938 556.363 734.776 556.042 735.42 555.46V554.03H732.52V551.89H737.71V556.37C737.156 557.069 736.451 557.632 735.647 558.016C734.843 558.401 733.961 558.597 733.07 558.59C731.518 558.501 730.058 557.822 728.991 556.691C727.924 555.561 727.329 554.065 727.329 552.51C727.329 550.955 727.924 549.459 728.991 548.329C730.058 547.198 731.518 546.519 733.07 546.43V546.43Z" fill="#4D5275"/>
</g>
<g id="Frame_4" clip-path="url(#clip3_1_2)">
<g id="house">
<path id="Vector_41" d="M751.77 558.36V553.44H746.63V558.36H744.32V546.63H746.63V551.24H751.77V546.63H754.1V558.36H751.77Z" fill="#4D5275"/>
<path id="Vector_42" d="M761.77 546.43C765.06 546.43 767.46 548.97 767.46 552.5C767.46 556.03 765.06 558.57 761.77 558.57C758.48 558.57 756.09 556.04 756.09 552.5C756.09 548.96 758.46 546.43 761.77 546.43ZM761.77 548.65C759.77 548.65 758.47 550.3 758.47 552.5C758.47 554.7 759.76 556.36 761.77 556.36C763.78 556.36 765.08 554.68 765.08 552.5C765.08 550.32 763.77 548.65 761.77 548.65V548.65Z" fill="#4D5275"/>
<path id="Vector_43" d="M769.37 546.63H771.77V553.63C771.77 555.27 772.6 556.4 774.3 556.4C776 556.4 776.79 555.27 776.79 553.63V546.63H779.14V553.63C779.14 556.55 777.59 558.54 774.3 558.54C771.01 558.54 769.42 556.54 769.42 553.65L769.37 546.63Z" fill="#4D5275"/>
<path id="Vector_44" d="M782.08 554.81C782.512 555.303 783.044 555.699 783.64 555.972C784.237 556.244 784.884 556.387 785.54 556.39C786.81 556.39 787.43 555.74 787.43 555.07C787.43 554.19 786.43 553.89 785.23 553.58C783.45 553.14 781.17 552.58 781.17 549.99C781.17 547.99 782.73 546.45 785.29 546.45C786.071 546.421 786.85 546.552 787.579 546.834C788.308 547.116 788.972 547.543 789.53 548.09L788.25 549.92C787.418 549.1 786.298 548.637 785.13 548.63C784.13 548.63 783.53 549.13 783.53 549.83C783.53 550.53 784.44 550.83 785.7 551.18C787.49 551.62 789.78 552.18 789.78 554.81C789.78 556.95 788.36 558.57 785.42 558.57C784.557 558.613 783.694 558.469 782.892 558.148C782.089 557.827 781.365 557.337 780.77 556.71L782.08 554.81Z" fill="#4D5275"/>
<path id="Vector_45" d="M791.65 558.36V546.63H799.35V548.81H793.97V551.36H799.24V553.51H793.97V556.24H799.35V558.4L791.65 558.36Z" fill="#4D5275"/>
</g>
</g>
</g>
</g>
</g>
<path id="house2" d="M822.19 415.81H793.97L771.39 396.29L720.59 352.38L693.84 375.51L669.8 396.29L647.22 415.81H619L644.12 394.1L669.8 371.91L694.57 350.5L720.59 328L744.92 349.02L771.39 371.91L789.35 387.43L822.19 415.81Z" fill="#97C9C0"/>
<path id="house1" d="M781.44 417.51H764.54L751.02 405.82L738.1 394.65L720.59 379.52L703.4 394.39L690.17 405.82L676.65 417.51H659.74L676.71 402.85L690.17 391.22L706.7 376.93L720.59 364.92L751.02 391.22L762.57 401.21L781.44 417.51Z" fill="#97C9C0"/>
</g>
<defs>
<clipPath id="clip0_1_2">
<rect width="167.35" height="256.46" fill="white" transform="translate(632 414)"/>
</clipPath>
<clipPath id="clip1_1_2">
<rect width="167.35" height="226.43" fill="white" transform="translate(632 414)"/>
</clipPath>
<clipPath id="clip2_1_2">
<rect width="167.35" height="188.4" fill="white" transform="translate(632 414)"/>
</clipPath>
<clipPath id="clip3_1_2">
<rect width="167.35" height="144.59" fill="white" transform="translate(632 414)"/>
</clipPath>
</defs>
</svg>
