<svg width="1440" height="840" viewBox="0 0 1440 840" fill="none" xmlns="http://www.w3.org/2000/svg">
<g id="Frame 1">
<rect width="1440" height="840" fill="white"/>
<path id="Vector" d="M702.28 382.6C694.778 385.988 688.07 390.914 682.592 397.058C677.114 403.203 672.988 410.429 670.48 418.27C669.584 421.034 668.899 423.862 668.43 426.73C667.612 431.623 667.424 436.6 667.87 441.54" stroke="#DF3589" stroke-width="10" stroke-miterlimit="10" stroke-linecap="round"/>
<path id="Vector_2" d="M745.97 378.84C735.403 375.448 724.094 375.105 713.341 377.85C702.588 380.595 692.827 386.318 685.18 394.36C681.722 397.993 678.748 402.056 676.33 406.45" stroke="#2A358D" stroke-width="10" stroke-miterlimit="10" stroke-linecap="round"/>
<path id="Vector_3" d="M781.12 409.58C774.484 395.641 762.641 384.864 748.139 379.569C733.637 374.275 717.636 374.885 703.58 381.27" stroke="#00A159" stroke-width="10" stroke-miterlimit="10" stroke-linecap="round"/>
<path id="Vector_4" d="M769.66 476.66C775.343 470.974 779.804 464.186 782.769 456.714C785.734 449.242 787.141 441.243 786.903 433.207C786.665 425.171 784.788 417.269 781.386 409.986C777.984 402.702 773.129 396.19 767.12 390.85" stroke="#E13A30" stroke-width="10" stroke-miterlimit="10" stroke-linecap="round"/>
<path id="Vector_5" d="M709.47 492.1C713.269 493.324 717.182 494.162 721.15 494.6C734.652 496.062 748.245 492.818 759.632 485.415C771.018 478.012 779.498 466.904 783.64 453.97" stroke="#00ABEA" stroke-width="10" stroke-miterlimit="10" stroke-linecap="round"/>
<path id="Vector_6" d="M681.61 473.89C689.246 482.994 699.458 489.576 710.903 492.771C722.348 495.966 734.492 495.624 745.74 491.79" stroke="#E13A30" stroke-width="10" stroke-miterlimit="10" stroke-linecap="round"/>
<path id="Vector_7" d="M667.79 441.2C668.881 453.227 673.623 464.634 681.38 473.89" stroke="#FFF047" stroke-width="10" stroke-miterlimit="10" stroke-linecap="round"/>
<path id="Vector_8" d="M668 441C669.233 454.578 675.123 467.312 684.671 477.044C694.219 486.776 706.838 492.908 720.39 494.4" stroke="#97C354" stroke-width="10" stroke-miterlimit="10" stroke-linecap="round"/>
<path id="Vectorrr" d="M757.54 352.41C758.634 352.41 759.52 351.524 759.52 350.43C759.52 349.336 758.634 348.45 757.54 348.45C756.446 348.45 755.56 349.336 755.56 350.43C755.56 351.524 756.446 352.41 757.54 352.41Z" fill="#8691C3"/>
<path id="Ellipse 1" d="M698 424.5C698 410.618 703.188 397.952 711.734 388.328C716.506 382.953 722.325 378.529 728.868 375.376C736.015 371.931 744.029 370 752.5 370C762.932 370 772.673 372.929 780.954 378.008C789.549 383.28 796.571 390.87 801.148 399.904C804.89 407.291 807 415.646 807 424.5C807 437.252 802.623 448.976 795.287 458.26C789.958 465.005 783.069 470.459 775.167 474.078C768.267 477.238 760.592 479 752.5 479C741.455 479 731.182 475.716 722.599 470.073C715.732 465.558 709.947 459.533 705.716 452.472C700.817 444.296 698 434.73 698 424.5Z" stroke="#848EC2" stroke-width="4"/>
<path id="Vector_9" d="M717.873 171L718.213 693.27" stroke="#4D5275" stroke-miterlimit="10"/>
<path id="Cool" d="M723.23 497.12C724.324 497.12 725.21 496.234 725.21 495.14C725.21 494.046 724.324 493.16 723.23 493.16C722.136 493.16 721.25 494.046 721.25 495.14C721.25 496.234 722.136 497.12 723.23 497.12Z" fill="#4D5275"/>
<path id="bird2" d="M747 370.035C775.268 383.362 793.025 408.515 792.22 434.603C791.616 454.212 780.724 468.295 775.69 474C782.058 471.181 787.804 467.266 792.633 462.458C805.72 449.367 807.521 433.895 807.864 429.021C808.424 421.299 807.25 413.553 804.417 406.284C801.584 399.015 797.155 392.385 791.417 386.824C785.679 381.264 778.761 376.896 771.109 374.003C763.458 371.111 755.244 369.759 747 370.035Z" stroke="#848EC2" stroke-width="3" stroke-miterlimit="10" stroke-linejoin="round"/>
<path id="bird1" d="M684 440C695.327 444.294 706.897 447.917 718.65 450.85C727.45 453.03 733.22 454.03 739.98 454.24C746.014 454.516 752.059 454.052 757.98 452.86C767.796 450.785 777.052 446.625 785.12 440.66C783.398 450.603 779.491 460.04 773.68 468.29C770.57 472.69 765.25 480.02 755.87 485.37C751.35 487.95 747.65 489.06 740.23 491.28C734.718 492.931 729.107 494.23 723.43 495.17C724.78 494.76 732.82 492.17 736.43 484.25C737.916 480.853 738.455 477.118 737.99 473.44C737.773 470.685 736.887 468.025 735.41 465.69C734.312 464.106 732.961 462.714 731.41 461.57C729.41 459.97 727.34 458.89 723.13 456.71C719.919 454.98 716.551 453.56 713.07 452.47V452.47C709.105 451.236 705.216 449.774 701.42 448.09C693.56 444.72 685.36 440.72 684 440Z" stroke="#4E5376" stroke-width="3" stroke-miterlimit="10" stroke-linejoin="round"/>
</g>
</svg>
