<svg width="1440" height="840" viewBox="0 0 1440 840" fill="none" xmlns="http://www.w3.org/2000/svg">
<g id="Frame 1">
<rect width="1440" height="840" fill="white"/>
<path id="new1" d="M747.058 371.453C745.843 381.595 748.238 391.865 753.835 400.523C759.432 409.181 767.888 415.694 777.77 418.959" stroke="#97C354" stroke-width="5" stroke-miterlimit="10" stroke-linecap="round"/>
<path id="Vector" d="M702.28 382.6C694.778 385.988 688.07 390.914 682.592 397.058C677.114 403.203 672.988 410.429 670.48 418.27C669.584 421.034 668.899 423.862 668.43 426.73C667.612 431.623 667.424 436.6 667.87 441.54" stroke="#DF3589" stroke-width="10" stroke-miterlimit="10" stroke-linecap="round"/>
<path id="Vector_2" d="M745.97 378.84C735.403 375.448 724.094 375.105 713.341 377.85C702.588 380.595 692.827 386.318 685.18 394.36C681.722 397.993 678.748 402.056 676.33 406.45" stroke="#2A358D" stroke-width="10" stroke-miterlimit="10" stroke-linecap="round"/>
<path id="Vector_3" d="M781.12 409.58C774.484 395.641 762.641 384.864 748.139 379.569C733.637 374.275 717.636 374.885 703.58 381.27" stroke="#00A159" stroke-width="10" stroke-miterlimit="10" stroke-linecap="round"/>
<path id="Vector_4" d="M769.66 476.66C775.343 470.974 779.804 464.186 782.769 456.714C785.734 449.242 787.141 441.243 786.903 433.207C786.665 425.171 784.788 417.269 781.386 409.986C777.984 402.702 773.129 396.19 767.12 390.85" stroke="#E13A30" stroke-width="10" stroke-miterlimit="10" stroke-linecap="round"/>
<path id="Vector_5" d="M709.47 492.1C713.269 493.324 717.182 494.162 721.15 494.6C734.652 496.062 748.245 492.818 759.632 485.415C771.018 478.012 779.498 466.904 783.64 453.97" stroke="#00ABEA" stroke-width="10" stroke-miterlimit="10" stroke-linecap="round"/>
<path id="Vector_6" d="M681.61 473.89C689.246 482.994 699.458 489.576 710.903 492.771C722.348 495.966 734.492 495.624 745.74 491.79" stroke="#E13A30" stroke-width="10" stroke-miterlimit="10" stroke-linecap="round"/>
<path id="Vector_7" d="M667.79 441.2C668.881 453.227 673.623 464.634 681.38 473.89" stroke="#FFF047" stroke-width="10" stroke-miterlimit="10" stroke-linecap="round"/>
<path id="Vector_8" d="M668 441C669.233 454.578 675.123 467.312 684.671 477.044C694.219 486.776 706.838 492.908 720.39 494.4" stroke="#97C354" stroke-width="10" stroke-miterlimit="10" stroke-linecap="round"/>
<path id="new8" d="M781.715 333.892C775.68 335.182 769.986 337.721 765.004 341.343C760.022 344.965 755.861 349.589 752.793 354.917C751.702 356.793 750.756 358.749 749.963 360.769C748.596 364.211 747.678 367.814 747.231 371.49" stroke="#DF3589" stroke-width="5" stroke-miterlimit="10" stroke-linecap="round"/>
<path id="new7" d="M817.622 339.488C810.201 334.995 801.657 332.596 792.971 332.567C784.286 332.539 775.811 334.882 768.52 339.327C765.224 341.334 762.217 343.749 759.573 346.512" stroke="#2A358D" stroke-width="5" stroke-miterlimit="10" stroke-linecap="round"/>
<path id="new6" d="M836.18 366.041C833.505 354.854 826.528 345.151 816.75 339.02C806.971 332.889 795.174 330.821 783.896 333.261" stroke="#00A159" stroke-width="5" stroke-miterlimit="10" stroke-linecap="round"/>
<path id="new5" d="M816.599 414C821.711 410.692 826.093 406.374 829.476 401.311C832.86 396.249 835.174 390.548 836.275 384.559C837.377 378.57 837.243 372.419 835.883 366.484C834.523 360.549 831.964 354.954 828.364 350.044" stroke="#E13A30" stroke-width="5" stroke-miterlimit="10" stroke-linecap="round"/>
<path id="new4" d="M770.19 416.154C772.75 417.651 775.454 418.88 778.261 419.822C787.818 423.005 798.188 422.721 807.619 419.017C817.05 415.314 824.963 408.417 830.02 399.494" stroke="#00ABEA" stroke-width="5" stroke-miterlimit="10" stroke-linecap="round"/>
<path id="new3" d="M752.565 398.205C756.7 406.171 763.123 412.667 770.989 416.84C778.855 421.012 787.796 422.666 796.639 421.585" stroke="#E13A30" stroke-width="5" stroke-miterlimit="10" stroke-linecap="round"/>
<path id="new11" d="M746.99 372.278C745.991 381.603 747.825 390.884 752.25 398.902C756.675 406.92 763.485 413.3 771.784 417.205" stroke="#874062" stroke-width="5" stroke-miterlimit="10" stroke-linecap="round"/>
<path id="Vectorrr4" d="M827.455 351.895C828.805 352.185 830.135 351.325 830.424 349.975C830.714 348.625 829.855 347.296 828.505 347.006C827.155 346.716 825.826 347.576 825.536 348.926C825.246 350.276 826.105 351.605 827.455 351.895Z" fill="#8691C3"/>
<path id="Vectorrr3" d="M827.455 351.895C828.805 352.185 830.135 351.325 830.424 349.975C830.714 348.625 829.855 347.296 828.505 347.006C827.155 346.716 825.826 347.576 825.536 348.926C825.246 350.276 826.105 351.605 827.455 351.895Z" fill="#4E5376"/>
<path id="Vector_9" d="M717.873 171L718.213 693.27" stroke="#4D5275" stroke-miterlimit="10"/>
<path id="Cool" d="M723.23 497.12C724.324 497.12 725.21 496.234 725.21 495.14C725.21 494.046 724.324 493.16 723.23 493.16C722.136 493.16 721.25 494.046 721.25 495.14C721.25 496.234 722.136 497.12 723.23 497.12Z" fill="#4D5275"/>
<path id="bird2" d="M747 370.035C775.268 383.362 793.025 408.515 792.22 434.603C791.616 454.212 780.724 468.295 775.69 474C782.058 471.181 787.804 467.266 792.633 462.458C805.72 449.367 807.521 433.895 807.864 429.021C808.424 421.299 807.25 413.553 804.417 406.284C801.584 399.015 797.155 392.385 791.417 386.824C785.679 381.264 778.761 376.896 771.109 374.003C763.458 371.111 755.244 369.759 747 370.035Z" stroke="#848EC2" stroke-width="3" stroke-miterlimit="10" stroke-linejoin="round"/>
<path id="bird1" d="M684 440C695.327 444.294 706.897 447.917 718.65 450.85C727.45 453.03 733.22 454.03 739.98 454.24C746.014 454.516 752.059 454.052 757.98 452.86C767.796 450.785 777.052 446.625 785.12 440.66C783.398 450.603 779.491 460.04 773.68 468.29C770.57 472.69 765.25 480.02 755.87 485.37C751.35 487.95 747.65 489.06 740.23 491.28C734.718 492.931 729.107 494.23 723.43 495.17C724.78 494.76 732.82 492.17 736.43 484.25C737.916 480.853 738.455 477.118 737.99 473.44C737.773 470.685 736.887 468.025 735.41 465.69C734.312 464.106 732.961 462.714 731.41 461.57C729.41 459.97 727.34 458.89 723.13 456.71C719.919 454.98 716.551 453.56 713.07 452.47V452.47C709.105 451.236 705.216 449.774 701.42 448.09C693.56 444.72 685.36 440.72 684 440Z" stroke="#4E5376" stroke-width="3" stroke-miterlimit="10" stroke-linejoin="round"/>
<path id="new9" d="M801.605 420.305C807.569 419.082 813.221 416.652 818.213 413.165C823.205 409.679 827.433 405.209 830.636 400.03C833.839 394.851 835.95 389.072 836.84 383.048C837.73 377.024 837.38 370.883 835.811 365" stroke="#36664C" stroke-width="5" stroke-miterlimit="10" stroke-linecap="round"/>
<path id="new10" d="M765.049 412.433C772.305 417.884 781.069 421.027 790.189 421.448C799.308 421.87 808.357 419.552 816.147 414.797" stroke="#9E30E1" stroke-width="5" stroke-miterlimit="10" stroke-linecap="round"/>
<path id="fill2" d="M748 370.035C776.268 383.362 794.025 408.515 793.22 434.603C792.616 454.212 781.724 468.295 776.69 474C783.058 471.181 788.804 467.266 793.633 462.458C806.72 449.367 808.521 433.895 808.864 429.021C809.424 421.299 808.25 413.553 805.417 406.284C802.584 399.015 798.155 392.385 792.417 386.824C786.679 381.264 779.761 376.896 772.109 374.003C764.458 371.111 756.244 369.759 748 370.035V370.035Z" fill="#848EC2"/>
<path id="fill1" d="M684 440.007C695.327 444.301 706.897 447.924 718.65 450.857C727.45 453.037 733.22 454.037 739.98 454.247C746.014 454.523 752.059 454.059 757.98 452.867C767.796 450.792 777.052 446.632 785.12 440.667C783.398 450.61 779.491 460.047 773.68 468.297C770.57 472.697 765.25 480.027 755.87 485.377C751.35 487.957 747.65 489.067 740.23 491.287C734.718 492.938 729.107 494.237 723.43 495.177C724.78 494.767 732.82 492.177 736.43 484.257C737.916 480.86 738.455 477.125 737.99 473.447C737.773 470.692 736.887 468.032 735.41 465.697C734.312 464.113 732.961 462.721 731.41 461.577C729.41 459.977 727.34 458.897 723.13 456.717C719.919 454.987 716.551 453.567 713.07 452.477V452.477C709.105 451.243 705.216 449.781 701.42 448.097C693.56 444.727 685.36 440.727 684 440.007Z" fill="#4E5376"/>
<path id="dot" d="M815.98 416.96C817.074 416.96 817.96 416.074 817.96 414.98C817.96 413.886 817.074 413 815.98 413C814.886 413 814 413.886 814 414.98C814 416.074 814.886 416.96 815.98 416.96Z" fill="#4E5376"/>
<path id="beak" d="M809.102 406.34C812.054 410.401 813.903 415.158 814.469 420.146C814.619 421.591 814.652 423.045 814.567 424.494L826.333 409.534L809.102 406.34Z" fill="#4D5275"/>
<path id="path1" d="M723.5 495.5C732 495.833 756.8 490.9 788 468.5C796.167 462.5 813.4 443.3 817 414.5" stroke="black" stroke-width="0.2"/>
</g>
</svg>
