<svg width="1440" height="840" viewBox="0 0 1440 840" fill="none" xmlns="http://www.w3.org/2000/svg">
<g id="Frame 78">
<rect width="1440" height="840" fill="white"/>
<path id="Vector1" d="M667.63 446.01C670.739 446.01 673.26 443.489 673.26 440.38C673.26 437.271 670.739 434.75 667.63 434.75C664.521 434.75 662 437.271 662 440.38C662 443.489 664.521 446.01 667.63 446.01Z" fill="#4D5275"/>
<path id="Vector2" d="M687.172 464.895C689.072 462.755 688.792 459.575 686.272 457.085C682.113 453.023 678.517 448.422 675.582 443.405C674.858 442.032 673.658 440.97 672.208 440.417C670.757 439.865 669.155 439.861 667.702 440.405C665.012 441.545 664.212 444.405 665.842 447.545C669.3 453.897 673.738 459.664 678.992 464.635C681.562 467.135 685.252 467.135 687.172 464.895Z" fill="#4D5275"/>
<path id="Vector3" d="M680.239 465.5C688.861 473.745 699.782 479.178 711.559 481.08C714.929 481.62 717.309 479.99 717.659 476.95C717.979 474.12 715.919 471.54 712.659 471.04C704.817 469.848 697.401 466.697 691.099 461.88C688.207 459.66 685.556 457.143 683.189 454.37C681.059 451.9 678.249 451.26 675.869 452.93C673.659 454.47 673.349 457.5 675.259 460.05C676.735 462.027 678.403 463.852 680.239 465.5Z" fill="#4D5275"/>
<path id="Vector4" d="M706.398 479.621C717.829 482.95 729.932 482.782 741.275 479.139C744.474 478.09 745.748 475.604 744.565 472.783C743.471 470.161 740.412 468.84 737.333 469.868C729.82 472.368 721.844 472.95 714.072 471.567C710.472 470.93 706.941 469.925 703.529 468.567C700.46 467.371 697.702 468.074 696.438 470.602C695.274 472.94 696.488 475.73 699.397 477.094C701.652 478.159 703.995 479.005 706.398 479.621Z" fill="#4D5275"/>
<g id="Vector5">
<path d="M775.597 418L773.047 418.12C772.544 418.409 771.941 418.624 771.5 419C771.043 419.385 770.755 419.938 770.387 420.41C770.107 422.99 769.807 425.72 769.387 429.63C768.997 433.06 768.657 435.83 767.057 439.06L766.667 439.82L766.497 440.38C766.567 440.55 766.497 440.64 766.357 440.71L766.207 441.27C766.157 441.38 766.097 441.5 766.047 441.62C763.374 448.662 759.09 454.98 753.537 460.07C748.019 465.216 741.177 468.724 733.777 470.2C731.027 470.75 729.387 472.37 729.057 474.87C728.587 478.5 731.057 481.43 734.347 480.95C739.29 480.165 744.062 478.542 748.457 476.15C750.735 474.977 752.924 473.64 755.007 472.15C759.312 468.996 763.191 465.299 766.547 461.15C768.592 458.592 770.456 455.896 772.127 453.08C773.349 451.058 774.46 448.972 775.457 446.83C776.584 444.482 777.53 442.052 778.287 439.56C778.837 437.73 779.117 436.35 779.697 433.61C780.176 431.715 780.51 429.786 780.697 427.84C780.817 425.94 780.86 425.76 781 423C781.09 421 780.957 420.83 780.687 420.22C780.417 419.61 779.347 418.28 775.597 418Z" fill="#4D5275"/>
<path d="M766.017 441.61C766.067 441.49 766.127 441.37 766.177 441.26C766.137 441.36 766.077 441.48 766.017 441.61Z" fill="#4D5275"/>
</g>
<path id="Vector6" d="M776.403 445.975C778.292 442.096 779.708 438.013 780.623 433.81C781.274 431.228 781.717 428.6 781.948 425.949C782.091 419.493 782.03 413.057 780.562 406.84C778.429 397.502 773.865 388.86 767.311 381.753C766.631 380.897 765.794 380.171 764.845 379.611C763.681 379.007 762.331 378.844 761.052 379.153C759.773 379.462 758.655 380.221 757.914 381.285C757.143 382.339 756.761 383.617 756.829 384.911C756.898 386.205 757.413 387.437 758.291 388.408C762.413 392.505 765.663 397.362 767.852 402.695C771.435 411.27 772.332 420.692 770.43 429.765C769.64 434.07 768.369 438.276 766.639 442.309C765.265 445.479 763.461 448.455 761.277 451.156C760.064 452.611 758.923 454.145 757.689 455.57C752.135 462 744.889 466.824 736.733 469.518C735.785 469.837 734.817 470.096 733.858 470.435C732.588 470.928 731.523 471.823 730.834 472.977C730.145 474.131 729.871 475.478 730.057 476.801C730.12 477.449 730.323 478.077 730.651 478.644C730.978 479.21 731.425 479.703 731.96 480.09C732.495 480.477 733.108 480.75 733.758 480.89C734.408 481.031 735.081 481.036 735.734 480.906C739.813 479.945 743.744 478.461 747.425 476.493C758.607 470.711 767.773 461.803 773.753 450.907C774.711 449.263 775.649 447.669 776.403 445.975Z" fill="#4D5275"/>
<path id="Vector7" d="M746.153 364.419C758.125 370.375 766.773 378.391 772.969 388.892C781.789 403.889 784.251 419.901 779.97 436.668C776.507 450.751 768.076 463.076 756.257 471.332C755.648 471.797 754.953 472.134 754.213 472.325C753.473 472.515 752.703 472.555 751.948 472.442C751.193 472.328 750.468 472.064 749.815 471.664C749.162 471.265 748.594 470.738 748.145 470.114C747.684 469.506 747.35 468.809 747.163 468.067C746.977 467.324 746.941 466.551 747.059 465.794C747.178 465.037 747.447 464.312 747.851 463.664C748.255 463.015 748.785 462.456 749.41 462.021C754.739 458.15 759.289 453.29 762.817 447.701C766.209 442.247 768.524 436.182 769.636 429.841C771.386 420.2 770.246 410.251 766.361 401.268C762.507 391.886 755.912 383.912 747.456 378.41C737.369 371.536 725.164 368.569 713.084 370.056C704.56 371.008 696.425 374.173 689.473 379.243C682.522 384.313 676.989 391.115 673.416 398.987C672.334 401.404 670.543 402.941 667.67 402.854C666.731 402.823 665.815 402.564 664.996 402.1C664.177 401.636 663.481 400.98 662.966 400.188C662.451 399.396 662.131 398.49 662.035 397.548C661.938 396.605 662.068 395.652 662.412 394.771C664.867 388.738 668.381 383.202 672.784 378.43C679.936 370.568 688.948 364.67 698.975 361.287C709.002 357.905 719.716 357.149 730.112 359.091C736.059 360.203 741.815 361.972 746.153 364.419Z" fill="#4D5275"/>
<g id="Vector8">
<path d="M657.042 422.159C656.608 409.069 659.55 397.891 665.813 387.735C674.772 373.224 687.599 363.75 704.254 359.765C718.175 356.312 732.867 357.96 745.685 364.412C746.37 364.717 746.988 365.157 747.5 365.707C748.012 366.256 748.408 366.904 748.665 367.611C748.921 368.319 749.032 369.071 748.992 369.822C748.951 370.574 748.76 371.309 748.429 371.985C748.103 372.668 747.645 373.278 747.081 373.781C746.517 374.284 745.858 374.668 745.143 374.911C744.429 375.155 743.673 375.252 742.921 375.198C742.168 375.144 741.434 374.94 740.762 374.597C734.862 371.751 728.484 370.036 721.956 369.543C715.603 369.108 709.226 369.882 703.16 371.824C693.958 374.702 685.811 380.248 679.742 387.763C673.376 395.348 669.505 404.725 668.661 414.606C667.621 425.291 670.043 436.028 675.566 445.222C681.09 454.416 689.42 461.577 699.321 465.642C706.312 468.526 713.866 469.775 721.409 469.295C724.04 469.125 726.228 469.986 727.492 472.466C727.902 473.3 728.105 474.222 728.082 475.152C728.059 476.082 727.812 476.992 727.361 477.805C726.91 478.618 726.269 479.309 725.494 479.818C724.718 480.327 723.831 480.64 722.909 480.729C716.489 481.373 710.006 480.867 703.763 479.234C695.342 477.152 687.451 473.318 680.601 467.98C670.908 460.477 663.702 450.21 659.928 438.524C658.098 432.826 656.938 427.034 657.042 422.159Z" fill="#4D5275"/>
<path d="M680.393 389.987L681.289 387.044C680.978 388.047 680.676 389.022 680.346 389.978L680.393 389.987Z" fill="#4D5275"/>
<path d="M668.68 450.006C671.612 450.006 673.989 447.62 673.989 444.677C673.989 441.734 671.612 439.348 668.68 439.348C665.747 439.348 663.37 441.734 663.37 444.677C663.37 447.62 665.747 450.006 668.68 450.006Z" fill="#4D5275"/>
</g>
</g>
</svg>
