<svg width="1440" height="840" viewBox="0 0 1440 840" fill="none" xmlns="http://www.w3.org/2000/svg">
<g id="Frame 2">
<rect width="1440" height="840" fill="white"/>
<g id="Vector">
<path d="M679.06 387.6L680.01 384.49C679.68 385.55 679.36 386.58 679.01 387.59L679.06 387.6Z" fill="#4D5275"/>
<path d="M684.13 466.76C686.03 464.62 685.75 461.44 683.23 458.95C679.071 454.889 675.476 450.287 672.54 445.27C671.816 443.897 670.617 442.835 669.166 442.283C667.716 441.731 666.114 441.726 664.66 442.27C661.97 443.41 661.17 446.27 662.8 449.41C666.258 455.762 670.696 461.53 675.95 466.5C678.52 469 682.21 469 684.13 466.76Z" fill="#4D5275"/>
</g>
</g>
</svg>
