<svg width="1440" height="840" viewBox="0 0 1440 840" fill="none" xmlns="http://www.w3.org/2000/svg">
<g id="Frame 1">
<rect width="1440" height="840" fill="white"/>
<path id="new1" d="M747.058 371.453C745.843 381.595 748.238 391.865 753.835 400.523C759.432 409.181 767.888 415.694 777.77 418.959" stroke="#97C354" stroke-width="5" stroke-miterlimit="10" stroke-linecap="round"/>
<path id="Vector" d="M702.28 382.6C694.778 385.988 688.07 390.914 682.592 397.058C677.114 403.203 672.988 410.429 670.48 418.27C669.584 421.034 668.899 423.862 668.43 426.73C667.612 431.623 667.424 436.6 667.87 441.54" stroke="#DF3589" stroke-width="10" stroke-miterlimit="10" stroke-linecap="round"/>
<path id="Vector_2" d="M745.97 378.84C735.403 375.448 724.094 375.105 713.341 377.85C702.588 380.595 692.827 386.318 685.18 394.36C681.722 397.993 678.748 402.056 676.33 406.45" stroke="#2A358D" stroke-width="10" stroke-miterlimit="10" stroke-linecap="round"/>
<path id="Vector_3" d="M781.12 409.58C774.484 395.641 762.641 384.864 748.139 379.569C733.637 374.275 717.636 374.885 703.58 381.27" stroke="#00A159" stroke-width="10" stroke-miterlimit="10" stroke-linecap="round"/>
<path id="Vector_4" d="M769.66 476.66C775.343 470.974 779.804 464.186 782.769 456.714C785.734 449.242 787.141 441.243 786.903 433.207C786.665 425.171 784.788 417.269 781.386 409.986C777.984 402.702 773.129 396.19 767.12 390.85" stroke="#E13A30" stroke-width="10" stroke-miterlimit="10" stroke-linecap="round"/>
<path id="Vector_5" d="M709.47 492.1C713.269 493.324 717.182 494.162 721.15 494.6C734.652 496.062 748.245 492.818 759.632 485.415C771.018 478.012 779.498 466.904 783.64 453.97" stroke="#00ABEA" stroke-width="10" stroke-miterlimit="10" stroke-linecap="round"/>
<path id="Vector_6" d="M681.61 473.89C689.246 482.994 699.458 489.576 710.903 492.771C722.348 495.966 734.492 495.624 745.74 491.79" stroke="#E13A30" stroke-width="10" stroke-miterlimit="10" stroke-linecap="round"/>
<path id="Vector_7" d="M667.79 441.2C668.881 453.227 673.623 464.634 681.38 473.89" stroke="#FFF047" stroke-width="10" stroke-miterlimit="10" stroke-linecap="round"/>
<path id="Vector_8" d="M668 441C669.233 454.578 675.123 467.312 684.671 477.044C694.219 486.776 706.838 492.908 720.39 494.4" stroke="#97C354" stroke-width="10" stroke-miterlimit="10" stroke-linecap="round"/>
<path id="new8" d="M781.715 333.892C775.68 335.182 769.986 337.721 765.004 341.343C760.022 344.965 755.861 349.589 752.793 354.917C751.702 356.793 750.756 358.749 749.963 360.769C748.596 364.211 747.678 367.814 747.231 371.49" stroke="#DF3589" stroke-width="5" stroke-miterlimit="10" stroke-linecap="round"/>
<path id="new7" d="M817.622 339.488C810.201 334.995 801.657 332.596 792.971 332.567C784.286 332.539 775.811 334.882 768.52 339.327C765.224 341.334 762.217 343.749 759.573 346.512" stroke="#2A358D" stroke-width="5" stroke-miterlimit="10" stroke-linecap="round"/>
<path id="new6" d="M836.18 366.041C833.505 354.854 826.528 345.151 816.75 339.02C806.971 332.889 795.174 330.821 783.896 333.261" stroke="#00A159" stroke-width="5" stroke-miterlimit="10" stroke-linecap="round"/>
<path id="new5" d="M816.599 414C821.711 410.692 826.093 406.374 829.476 401.311C832.86 396.249 835.174 390.548 836.275 384.559C837.377 378.57 837.243 372.419 835.883 366.484C834.523 360.549 831.964 354.954 828.364 350.044" stroke="#E13A30" stroke-width="5" stroke-miterlimit="10" stroke-linecap="round"/>
<path id="new4" d="M770.19 416.154C772.75 417.651 775.454 418.88 778.261 419.822C787.818 423.005 798.188 422.721 807.619 419.017C817.05 415.314 824.963 408.417 830.02 399.494" stroke="#00ABEA" stroke-width="5" stroke-miterlimit="10" stroke-linecap="round"/>
<path id="new3" d="M752.565 398.205C756.7 406.171 763.123 412.667 770.989 416.84C778.855 421.012 787.796 422.666 796.639 421.585" stroke="#E13A30" stroke-width="5" stroke-miterlimit="10" stroke-linecap="round"/>
<path id="new11" d="M746.99 372.278C745.991 381.603 747.825 390.884 752.25 398.902C756.675 406.92 763.485 413.3 771.784 417.205" stroke="#874062" stroke-width="5" stroke-miterlimit="10" stroke-linecap="round"/>
<path id="Vectorrr4" d="M827.455 351.895C828.805 352.185 830.135 351.325 830.424 349.975C830.714 348.625 829.855 347.296 828.505 347.006C827.155 346.716 825.826 347.576 825.536 348.926C825.246 350.276 826.105 351.605 827.455 351.895Z" fill="#8691C3"/>
<path id="Vectorrr3" d="M827.455 351.895C828.805 352.185 830.135 351.325 830.424 349.975C830.714 348.625 829.855 347.296 828.505 347.006C827.155 346.716 825.826 347.576 825.536 348.926C825.246 350.276 826.105 351.605 827.455 351.895Z" fill="#4E5376"/>
<path id="Vector_9" d="M717.873 171L718.213 693.27" stroke="#4D5275" stroke-miterlimit="10"/>
<path id="Cool" d="M723.23 497.12C724.324 497.12 725.21 496.234 725.21 495.14C725.21 494.046 724.324 493.16 723.23 493.16C722.136 493.16 721.25 494.046 721.25 495.14C721.25 496.234 722.136 497.12 723.23 497.12Z" fill="#4D5275"/>
<path id="bird2" d="M747 370.035C775.268 383.362 793.025 408.515 792.22 434.603C791.616 454.212 780.724 468.295 775.69 474C782.058 471.181 787.804 467.266 792.633 462.458C805.72 449.367 807.521 433.895 807.864 429.021C808.424 421.299 807.25 413.553 804.417 406.284C801.584 399.015 797.155 392.385 791.417 386.824C785.679 381.264 778.761 376.896 771.109 374.003C763.458 371.111 755.244 369.759 747 370.035Z" stroke="#848EC2" stroke-width="3" stroke-miterlimit="10" stroke-linejoin="round"/>
<path id="bird1" d="M684 440C695.327 444.294 706.897 447.917 718.65 450.85C727.45 453.03 733.22 454.03 739.98 454.24C746.014 454.516 752.059 454.052 757.98 452.86C767.796 450.785 777.052 446.625 785.12 440.66C783.398 450.603 779.491 460.04 773.68 468.29C770.57 472.69 765.25 480.02 755.87 485.37C751.35 487.95 747.65 489.06 740.23 491.28C734.718 492.931 729.107 494.23 723.43 495.17C724.78 494.76 732.82 492.17 736.43 484.25C737.916 480.853 738.455 477.118 737.99 473.44C737.773 470.685 736.887 468.025 735.41 465.69C734.312 464.106 732.961 462.714 731.41 461.57C729.41 459.97 727.34 458.89 723.13 456.71C719.919 454.98 716.551 453.56 713.07 452.47V452.47C709.105 451.236 705.216 449.774 701.42 448.09C693.56 444.72 685.36 440.72 684 440Z" stroke="#4E5376" stroke-width="3" stroke-miterlimit="10" stroke-linejoin="round"/>
<path id="new9" d="M801.605 420.305C807.569 419.082 813.221 416.652 818.213 413.165C823.205 409.679 827.433 405.209 830.636 400.03C833.839 394.851 835.95 389.072 836.84 383.048C837.73 377.024 837.38 370.883 835.811 365" stroke="#36664C" stroke-width="5" stroke-miterlimit="10" stroke-linecap="round"/>
<path id="new10" d="M765.049 412.433C772.305 417.884 781.069 421.027 790.189 421.448C799.308 421.87 808.357 419.552 816.147 414.797" stroke="#9E30E1" stroke-width="5" stroke-miterlimit="10" stroke-linecap="round"/>
<path id="fill2" d="M748 370.035C776.268 383.362 794.025 408.515 793.22 434.603C792.616 454.212 781.724 468.295 776.69 474C783.058 471.181 788.804 467.266 793.633 462.458C806.72 449.367 808.521 433.895 808.864 429.021C809.424 421.299 808.25 413.553 805.417 406.284C802.584 399.015 798.155 392.385 792.417 386.824C786.679 381.264 779.761 376.896 772.109 374.003C764.458 371.111 756.244 369.759 748 370.035V370.035Z" fill="#848EC2"/>
<path id="fill1" d="M684 440.007C695.327 444.301 706.897 447.924 718.65 450.857C727.45 453.037 733.22 454.037 739.98 454.247C746.014 454.523 752.059 454.059 757.98 452.867C767.796 450.792 777.052 446.632 785.12 440.667C783.398 450.61 779.491 460.047 773.68 468.297C770.57 472.697 765.25 480.027 755.87 485.377C751.35 487.957 747.65 489.067 740.23 491.287C734.718 492.938 729.107 494.237 723.43 495.177C724.78 494.767 732.82 492.177 736.43 484.257C737.916 480.86 738.455 477.125 737.99 473.447C737.773 470.692 736.887 468.032 735.41 465.697C734.312 464.113 732.961 462.721 731.41 461.577C729.41 459.977 727.34 458.897 723.13 456.717C719.919 454.987 716.551 453.567 713.07 452.477V452.477C709.105 451.243 705.216 449.781 701.42 448.097C693.56 444.727 685.36 440.727 684 440.007Z" fill="#4E5376"/>
<path id="dot" d="M815.98 416.96C817.074 416.96 817.96 416.074 817.96 414.98C817.96 413.886 817.074 413 815.98 413C814.886 413 814 413.886 814 414.98C814 416.074 814.886 416.96 815.98 416.96Z" fill="#4E5376"/>
<path id="beak" d="M809.102 406.34C812.054 410.401 813.903 415.158 814.469 420.146C814.619 421.591 814.652 423.045 814.567 424.494L826.333 409.534L809.102 406.34Z" fill="#4D5275"/>
<path id="earth" d="M725.76 377C714.13 377.01 702.764 380.468 693.1 386.936C683.435 393.405 675.905 402.594 671.461 413.341C667.018 424.089 665.861 435.913 668.137 447.318C670.413 458.723 676.019 469.197 684.246 477.416C692.474 485.635 702.954 491.231 714.361 493.495C725.769 495.759 737.591 494.59 748.334 490.136C759.077 485.682 768.258 478.142 774.717 468.471C781.176 458.799 784.622 447.43 784.62 435.8C784.619 428.074 783.095 420.423 780.136 413.286C777.177 406.149 772.84 399.664 767.374 394.204C761.908 388.743 755.419 384.413 748.279 381.461C741.138 378.509 733.486 376.993 725.76 377ZM724.22 458.8C723.65 460.98 722.04 460.8 719.57 464.07C717.84 466.34 718.43 466.67 716.01 470.89C713.59 475.11 712.58 475.44 712.75 476.89C713.11 479.79 717.17 480.82 716.75 482.89C716.619 483.329 716.381 483.729 716.056 484.052C715.731 484.375 715.33 484.612 714.89 484.74C711.89 485.74 706.89 481.14 704.37 476.23C701.31 470.28 703.98 468.07 700.96 463.37C697.67 458.27 693.21 458.89 692.29 454.85C691.37 450.81 695.68 448.53 694.45 444.79C693.71 442.52 691.74 442.15 686.09 438.6C680.94 435.36 678.37 433.74 677.24 432.21C671.96 425.06 677.24 411.76 681.14 405.78C683.184 402.813 685.461 400.015 687.95 397.41C689.352 395.779 690.951 394.328 692.71 393.09C694.558 391.624 696.727 390.616 699.04 390.15C702.72 389.59 707.59 390.82 708.04 392.93C708.58 395.63 701.45 397.25 701.04 402.22C700.87 404.56 702.25 407.22 703.83 407.47C706.16 407.86 707.32 402.78 710.48 402.67C713.39 402.58 716.61 406.82 715.89 409.17C715.49 410.49 714.12 410.31 712.49 412.41C710.86 414.51 711.72 415.26 710.4 416.92C708.47 419.34 706.4 418.08 703.58 420.8C701.99 422.32 702.1 423.24 700.48 424.04C698.58 424.97 697.48 424.2 696.62 425.13C695.31 426.58 697.44 429.27 696.15 430.7C695.28 431.7 693.36 431.53 692.15 431.02C689.89 430.02 690.15 427.91 688.28 427.14C686.15 426.25 682.28 427.59 681.78 430.23C681.637 431.222 681.841 432.234 682.359 433.092C682.876 433.951 683.675 434.604 684.62 434.94C686.37 435.41 687.62 433.72 689.26 434.48C689.91 434.77 690.11 435.22 690.96 436.48C693.47 440.18 693.7 440.35 694.06 440.48C695.63 441.25 696.82 439.61 699.79 438.94C701.492 438.591 703.246 438.589 704.948 438.932C706.651 439.276 708.267 439.959 709.7 440.94C712.5 442.94 711.44 444.26 714.7 447.13C718.08 450.13 720 449.33 722.28 452.25C722.62 452.94 724.98 455.84 724.22 458.8ZM775.68 438.41C774.03 440.54 774.81 441.88 773.37 444.3C772.05 446.52 770.72 446.54 769.26 448.15C766.46 451.24 768.39 454.39 767.21 459.15C765.77 464.94 760.53 468.31 750.04 475.03C748.72 475.88 745.98 477.59 745.17 476.84C744.06 475.84 748.17 471.63 747.22 466.58C746.7 463.93 745.39 464.21 743.88 460.94C740.88 454.43 744.57 450.02 741.32 446.33C740.21 445.07 738.7 444.46 735.68 443.25C731.63 441.62 730.58 442.3 729.01 441.25C725.36 438.67 724.47 430.4 728.01 425.87C730.62 422.51 733.4 424.08 739.01 419.97C740.01 419.27 747.21 413.97 746.19 409.46C745.47 406.25 741.33 406.36 740.8 403.31C740.21 399.77 744.98 394.83 749.8 394.59C751.8 394.49 753.3 395.27 756.72 397.41C766.72 403.7 771.82 406.93 774.63 411.41C776.296 414.109 777.541 417.046 778.32 420.12C779.04 423.03 778.32 421.97 779.32 429.67C779.67 432.39 779.92 433.81 779.06 435.31C778.2 436.81 777.06 436.61 775.68 438.41Z" fill="#4D5275"/>
<path id="path" d="M819 414C821.833 411.833 836.3 399.7 839.5 390.5C842.7 381.3 846 373.5 846 358.5C846 343.5 837.321 326.046 828.5 316C810.5 295.5 790 287 749.5 287C717 287 696.833 305.333 684.5 316C664.5 333.297 650.8 405.4 708 413C748 414 790.5 443 795.5 474.5C805 514 779.2 558.3 740 563.5C700.8 568.7 674.5 562.5 647.5 539.5C634.5 528.426 614.3 503.5 625.5 455.5C636.7 407.5 685.667 392.167 708 406.5" stroke="black" stroke-width="0.2"/>
<path id="point" d="M707.5 371C714.403 371 720 378.093 720 386.854C720 392.192 717.751 397.432 714.028 402.402C712.805 404.039 711.472 405.589 710.039 407.04C709.555 407.519 709.108 407.948 708.709 408.267C708.31 408.586 708.298 408.648 708.189 408.734C707.997 408.905 707.75 409 707.494 409C707.238 409 706.991 408.905 706.799 408.734C706.702 408.648 706.521 408.5 706.279 408.267C706.037 408.034 705.445 407.482 704.961 407.04C703.524 405.589 702.187 404.039 700.96 402.402C697.249 397.493 695 392.192 695 386.854C695.024 378.093 700.597 371 707.5 371Z" fill="#848EC2"/>
<path id="drop1" d="M705.111 309C716.771 309 726.231 320.81 726.231 335.37C726.231 344.26 722.421 352.97 716.151 361.25C714.082 363.97 711.827 366.543 709.401 368.95C708.591 369.75 707.841 370.46 707.171 371.07L706.281 371.84C705.957 372.125 705.541 372.282 705.111 372.282C704.68 372.282 704.264 372.125 703.941 371.84C703.771 371.7 703.471 371.44 703.061 371.07C702.391 370.46 701.641 369.75 700.831 368.95C698.405 366.543 696.149 363.97 694.081 361.25C687.811 352.97 684.001 344.25 684.001 335.37C684.031 320.81 693.481 309 705.111 309Z" fill="#848EC2"/>
<path id="drop2" d="M645.941 352.3C652.381 345.8 664.181 347.04 672.311 355.08C677.311 359.98 680.031 366.92 681.181 374.98C681.559 377.63 681.752 380.303 681.761 382.98C681.761 383.88 681.761 384.68 681.761 385.4C681.761 385.83 681.761 386.14 681.711 386.32C681.687 386.657 681.543 386.974 681.304 387.213C681.065 387.452 680.748 387.596 680.411 387.62L679.501 387.69C678.781 387.69 677.971 387.76 677.081 387.76C674.406 387.782 671.733 387.621 669.081 387.28C661.001 386.21 654.081 383.53 649.081 378.62C640.881 370.61 639.511 358.81 645.941 352.3Z" fill="#A4AACA"/>
<path id="drop3" d="M625.563 403.669C627.956 396.526 637.25 393.121 646.319 396.051C651.848 397.853 656.501 401.944 660.355 407.45C661.61 409.27 662.736 411.173 663.727 413.145C664.064 413.797 664.356 414.394 664.592 414.936L664.896 415.632C665.016 415.887 665.033 416.178 664.943 416.445C664.853 416.712 664.664 416.936 664.412 417.07L663.749 417.446C663.232 417.744 662.625 418.054 661.974 418.385C659.975 419.385 657.91 420.249 655.793 420.973C649.353 423.184 643.15 423.715 637.61 421.924C628.586 418.982 623.18 410.812 625.563 403.669Z" fill="#B7BDDF"/>
<path id="drop4" d="M629.216 460.403C628.181 454.248 633.62 448.161 641.353 446.882C646.07 446.107 651.03 447.363 655.979 449.965C657.613 450.821 659.185 451.793 660.682 452.872C661.175 453.23 661.61 453.561 661.998 453.867L662.487 454.264C662.66 454.417 662.774 454.626 662.81 454.853C662.847 455.081 662.804 455.315 662.688 455.515C662.587 455.699 662.476 455.878 662.355 456.051C662.097 456.464 661.784 456.922 661.426 457.415C660.361 458.917 659.191 460.342 657.925 461.678C654.085 465.732 649.794 468.518 645.078 469.283C637.34 470.521 630.241 466.558 629.216 460.403Z" fill="#D2D7F3"/>
<path id="drop5" d="M651.743 493.637C649.049 490.715 649.832 485.609 653.479 482.246C655.967 480.179 659.063 478.983 662.294 478.841C663.453 478.732 664.619 478.7 665.782 478.747C666.167 478.824 666.521 478.791 666.836 478.828L667.221 478.904C667.367 478.918 667.504 478.985 667.604 479.093C667.704 479.201 667.76 479.342 667.762 479.489C667.747 479.564 667.723 479.688 667.773 479.891C667.822 480.095 667.771 480.549 667.759 480.933C667.718 482.102 667.59 483.266 667.376 484.416C666.964 487.629 665.504 490.616 663.223 492.914C659.577 496.2 654.438 496.558 651.743 493.637Z" fill="#DDE2FC"/>
<path id="drop6" d="M678.56 506.095C675.818 505.159 674.545 501.615 675.714 498.192C676.59 496.003 678.158 494.16 680.179 492.946C680.884 492.473 681.62 492.048 682.382 491.674C682.655 491.589 682.871 491.445 683.086 491.359L683.359 491.275C683.457 491.232 683.568 491.228 683.67 491.262C683.771 491.297 683.857 491.368 683.909 491.461C683.925 491.514 683.953 491.602 684.055 491.715C684.158 491.828 684.283 492.137 684.409 492.388C684.788 493.151 685.111 493.942 685.374 494.753C686.226 496.955 686.329 499.376 685.666 501.642C684.472 505.015 681.302 507.031 678.56 506.095Z" fill="#ECEFFE"/>
<g id="Frame 79">
<g id="Group 1">
<g id="Frame" clip-path="url(#clip0_1_2)">
<path id="Vector_10" d="M850.448 368H602V500H850.448V368Z" fill="#4D5275"/>
<g id="Group">
<path id="Vector_11" d="M636.324 384.629C635.609 384.506 635.066 384.179 634.839 384.224C634.612 384.269 633.939 383.774 633.444 383.729C632.95 383.684 631.509 384.134 630.25 383.729C628.99 383.325 627.558 382.906 625.916 383.265C624.476 383.579 624.101 383.265 623.185 383.55C622.371 383.801 622.421 383.909 621.986 384.014C621.551 384.119 621.026 384.104 620.801 384.329C620.577 384.553 618.806 384.794 618.477 384.853C618.148 384.912 617.801 385.123 617.592 386.007C617.382 386.891 615.567 386.951 614.862 387.041C614.157 387.13 613.961 387.277 613.827 388.046C613.707 388.735 613.977 388.525 614.457 388.48C614.938 388.436 615.327 388.36 614.938 388.762C614.378 389.343 614.262 389.079 614.007 389.244C613.752 389.409 613.692 389.469 613.378 389.469C613.063 389.469 611.983 390.218 611.443 390.323C610.903 390.427 610.269 390.335 610.269 391.402C610.269 391.552 610.195 391.432 610.03 391.552C609.865 391.673 609.798 392.491 610.33 392.87C610.539 393.02 610.195 393.11 610.539 393.215C610.884 393.319 611.44 393.17 611.305 393.605C611.17 394.04 610.84 394.009 610.689 394.084C610.539 394.158 608.335 395.268 607.915 395.447C607.495 395.627 607.81 396.167 608.515 396.017C609.22 395.867 611.125 394.818 611.904 394.579C612.684 394.339 615.789 392.975 616.209 392.931C616.629 392.886 617.109 392.781 617.499 392.901C617.888 393.02 620.378 392.271 620.453 392.001C620.527 391.731 621.068 391.222 621.517 391.357C621.967 391.492 622.492 391.746 622.691 391.896C622.89 392.046 623.278 391.896 623.666 391.971C624.054 392.045 625.405 392.151 625.646 392.751C625.886 393.35 626.245 393.588 626.321 393.814C626.396 394.04 626.572 394.294 626.5 394.444C626.428 394.594 626.815 394.638 626.815 394.788C626.815 394.938 626.469 397.236 626.635 398.1C626.71 398.489 626.336 398.924 626.245 399.254C626.155 399.584 626.336 399.733 625.855 400.003C625.375 400.272 626.245 401.246 626.442 401.576C626.639 401.906 626.577 403.251 624.346 405.862C623.462 406.893 623.191 407.375 623.147 407.872C623.102 408.368 622.247 408.8 622.232 409.1C622.216 409.4 622.337 409.46 622.277 409.64C622.216 409.819 622.03 410.468 622.352 411.078C622.532 411.42 622.442 411.648 622.397 411.842C622.351 412.037 622.277 412.596 622.487 412.921C622.698 413.246 622.366 413.79 622.517 414.177C622.667 414.564 623.237 414.403 623.432 414.567C623.627 414.731 624.346 414.985 624.286 415.526C624.226 416.066 624.601 417.743 624.571 418.238C624.541 418.733 625.217 419.182 625.217 419.526C625.217 419.871 625.202 419.945 624.932 420.067C624.662 420.188 624.616 421.1 625.247 421.385C625.877 421.669 625.846 421.624 625.846 421.85C625.846 422.075 625.831 423.138 626.146 423.257C626.48 423.402 626.764 423.641 626.963 423.946C627.143 424.231 627.563 424.951 627.953 424.306C628.342 423.661 627.398 423.062 627.308 423.002C627.218 422.942 627.428 422.613 627.263 422.358C627.098 422.103 627.143 421.863 626.993 421.324C626.843 420.784 626.423 420.095 626.406 419.556C626.389 419.016 626.271 419.151 626.181 418.612C626.092 418.072 625.971 417.174 626.541 417.098C627.111 417.023 626.946 418.072 626.96 418.342C626.974 418.612 626.735 419.046 627.635 419.945C627.828 420.169 627.948 420.446 627.98 420.74C627.995 420.979 628.43 421.399 628.475 421.669C628.52 421.938 628.25 422.373 628.82 422.628C629.39 422.882 629.975 423.976 630.035 424.321C630.095 424.666 630.605 424.95 630.622 425.174C630.638 425.399 630.831 425.969 630.696 426.164C630.561 426.358 630.231 427.363 630.636 427.839C631.041 428.314 631.162 428.09 631.474 428.318C631.787 428.547 631.624 428.905 632.375 429.112C633.125 429.32 632.989 429.352 633.095 429.517C633.2 429.682 635.134 430.565 635.569 430.67C636.004 430.775 636.349 431.256 637.533 431.089C638.41 430.967 638.388 430.722 638.988 431.122C639.589 431.523 640.233 432.737 641.283 433.036C642.332 433.335 642.077 433.471 642.663 433.516C643.248 433.561 643.848 433.636 644.088 434.146C644.327 434.656 644.358 434.745 644.523 434.983C644.688 435.222 644.447 435.523 644.643 435.868C644.838 436.213 645.167 436.572 645.648 436.616C646.13 436.661 646.248 436.842 646.398 437.186C646.548 437.53 646.773 438.01 647.493 438.01C648.213 438.01 648.032 438.519 648.363 438.639C648.693 438.759 649.572 438.77 649.353 438.085C649.218 437.667 649.488 437.77 649.503 437.621C649.518 437.471 649.682 436.901 649.084 436.916C648.485 436.931 648.229 437.11 647.854 436.857C647.479 436.603 646.369 435.927 646.729 434.763C647.089 433.599 647.058 433.624 647.074 433.369C647.114 433.027 647.221 432.696 647.389 432.395C647.539 432.156 647.419 431.406 647.029 431.332C646.639 431.257 646.579 430.822 646.249 430.807C645.918 430.793 643.684 431.106 643.744 430.373C643.803 429.639 643.894 429.024 644.404 428.575C644.915 428.126 644.869 427.076 644.869 426.9C644.869 426.723 645.349 426.435 645.334 426.256C645.319 426.076 645.409 425.566 644.328 425.686C643.248 425.806 643.155 425.746 642.933 425.926C642.712 426.106 642.604 426.061 642.498 426.076C642.393 426.091 641.943 426.81 641.869 427.544C641.794 428.277 641.359 428.381 641.118 428.398C640.878 428.415 639.693 428.383 639.442 428.488C639.19 428.594 637.598 428.668 637.147 426.015C636.925 424.704 637.521 422.704 637.901 422.27C638.281 421.836 638.081 421.116 638.153 420.906C638.225 420.695 638.618 420.007 639.143 419.783C639.667 419.558 641.032 418.913 641.182 418.763C641.332 418.613 641.917 418.524 642.157 418.674C642.397 418.824 642.787 418.868 642.967 418.809C643.147 418.749 643.135 418.809 643.237 418.943C643.339 419.078 643.807 419.003 644.031 419.003C644.256 419.003 644.691 419.254 644.767 419.138C644.831 419.016 644.877 418.884 644.902 418.748C644.932 418.629 645.321 418.224 645.488 418.254C645.656 418.284 646.583 418.179 646.793 418.014C647.002 417.849 647.528 418.149 647.678 418.479C647.828 418.809 648.233 418.763 648.398 418.674C648.563 418.584 649.478 418.841 649.328 419.511C649.178 420.181 649.552 421.593 649.778 421.863C650.003 422.133 650.227 422.403 650.183 422.567C650.138 422.731 650.588 422.735 650.722 422.597C650.857 422.46 651.682 421.608 651.442 420.305C651.201 419.002 650.947 417.923 651.322 417.443C651.697 416.964 651.667 416.559 652.177 416.259C652.687 415.959 653.422 415.376 653.752 415.181C654.082 414.985 654.577 414.791 654.952 414.566C655.326 414.341 655.641 414.461 655.852 414.207C656.062 413.952 656.031 413.652 656.166 413.547C656.301 413.443 656.691 413.113 656.812 412.274C656.932 411.434 657.756 410.821 657.996 410.625C658.236 410.43 658.536 409.742 658.896 409.592C659.255 409.442 659.359 408.754 659.931 408.543C660.546 408.318 660.44 408.258 660.845 408.258C661.172 408.257 661.493 408.17 661.776 408.007C661.944 407.902 662.315 407.755 662.346 407.527C662.377 407.3 662.144 406.464 663.485 406.028C664.085 405.834 663.92 406.028 664.295 405.61C664.67 405.191 665.57 405.535 665.779 405.64C665.989 405.744 665.9 406.226 666.11 406.239C666.319 406.253 666.575 406.344 666.935 405.955C667.294 405.565 667.473 405.326 668.254 405.326C668.659 405.326 668.63 405.176 668.749 405.146C668.869 405.115 669.77 405.115 670.007 404.935C670.244 404.755 670.322 404.217 669.755 404.141C669.189 404.066 668.03 403.902 668.27 403.063C668.448 402.442 668.795 401.924 668.99 401.759C669.184 401.594 669.02 401.04 669.005 400.875C668.99 400.71 669.335 400.53 669.56 400.441C669.785 400.351 671.045 400.321 671.375 400.456C671.705 400.59 672.124 400.41 672.245 400.351C672.366 400.291 673.175 400.245 672.979 400.845C672.784 401.445 672.274 401.46 672.124 401.864C671.974 402.269 671.78 402.523 671.93 402.688C672.08 402.853 673.187 402.868 673.369 402.823C673.551 402.779 674.368 402.811 674.735 403.074C675.124 403.359 675.769 403.449 675.992 403.404C676.215 403.36 676.606 402.97 676.622 402.714C676.637 402.459 676.277 401.905 676.426 401.472C676.575 401.038 676.831 400.992 676.517 400.737C676.202 400.482 675.722 400.542 675.722 399.868C675.722 399.194 676.202 398.384 676.186 398.13C676.171 397.875 676.186 397.261 675.767 397.021C675.348 396.782 675.872 396.647 675.647 396.452C675.423 396.256 674.237 396.317 674.237 395.118C674.237 393.92 674.103 392.522 673.728 392.121C673.353 391.72 673.218 391.687 672.973 391.87C672.729 392.052 671.234 393.353 670.71 393.143C670.186 392.934 669.872 392.574 670.08 392.245C670.288 391.916 670.56 391.36 670.26 391.18C669.96 391 669.086 390.027 668.82 389.952C668.553 389.876 666.735 389.488 666.045 389.907C665.355 390.327 665.686 390.521 665.596 390.671C665.505 390.821 665.116 391.001 665.085 391.15C665.054 391.299 665.1 392.259 664.756 392.323C664.411 392.386 663.541 392.832 663.646 393.076C663.751 393.321 664.233 393.645 664.051 394.005C663.869 394.365 663.511 395.384 662.057 395.848C660.602 396.312 660.841 396.537 660.812 396.853C660.783 397.168 660.393 397.587 660.451 397.812C660.51 398.036 660.347 398.531 659.987 398.681C659.627 398.831 658.667 399.37 658.697 398.276C658.727 397.183 659.102 397.137 659.207 396.898C659.311 396.658 659.717 396.359 659.626 396.163C659.534 395.968 658.996 395.729 658.546 395.759C658.096 395.789 657.211 395.55 656.821 395.205C656.43 394.859 656.281 394.485 655.906 394.38C655.532 394.276 654.692 394.246 654.587 393.886C654.482 393.527 654.481 392.897 654.335 392.822C654.19 392.746 654.125 392.223 654.41 391.984C654.695 391.746 656.569 390.157 658.175 389.947C659.78 389.736 659.348 389.123 659.749 389.048C660.15 388.974 661.384 388.809 661.864 389.363C662.343 389.917 662.778 389.227 663.019 389.153C663.26 389.078 663.558 388.793 664.008 388.943C664.458 389.093 664.908 389.303 665.074 388.988C665.239 388.673 665.074 388.494 664.848 388.389C664.623 388.284 664.669 387.864 664.549 387.789C664.429 387.715 664.534 387.119 665.058 387.159C665.583 387.2 666.993 386.246 667.053 385.917C667.112 385.587 667.668 385.272 667.818 385.092C667.968 384.912 667.953 384.505 668.298 384.478C668.644 384.45 668.942 384.388 669.258 384.448C669.574 384.507 669.888 384.402 670.067 384.388C670.247 384.374 670.877 384.493 670.893 384.837C670.909 385.181 671.342 385.423 671.563 385.467C671.785 385.51 671.923 386.137 671.548 386.304C671.174 386.472 670.334 386.903 670.198 387.383C670.062 387.863 669.059 387.683 668.728 387.563C668.398 387.443 667.769 387.383 667.471 387.847C667.173 388.311 667.081 388.627 667.591 388.601C668.101 388.575 668.521 388.721 668.731 388.706C668.941 388.69 669.495 388.721 669.615 388.616C669.735 388.511 670.081 388.766 670.276 389.155C670.471 389.545 671.114 390.16 671.671 390.279C672.227 390.398 672.15 390.684 672.631 390.714C673.111 390.744 674.235 389.876 674.37 389.664C674.505 389.453 675.225 389.051 674.94 388.451C674.655 387.851 674.31 387.207 674.625 387.148C674.939 387.088 675.51 387.702 675.585 387.942C675.659 388.181 676.339 388.301 676.56 388.031C676.782 387.762 677.734 387.268 677.734 387.103C677.734 386.938 677.854 386.473 677.584 386.248C677.314 386.024 677.239 385.529 676.804 385.589C676.369 385.649 676.174 384.93 676.234 384.81C676.295 384.691 676.402 383.911 676.099 383.686C675.797 383.462 674.842 382.849 674.36 382.832C673.878 382.815 673.294 381.783 673.186 381.588C673.078 381.394 671.731 381.064 670.787 381.17C669.843 381.275 669.647 381.394 669.182 381.394C668.717 381.394 667.022 381.409 666.617 381.394C666.212 381.379 664.847 382.533 664.742 382.743C664.638 382.954 664.278 383.133 664.517 383.672C664.756 384.211 664.562 384.342 664.349 384.436C664.136 384.53 663.12 384.556 663 384.077C662.88 383.598 662.97 382.788 662.46 382.713C661.95 382.639 660.9 382.964 660.616 383.253C660.332 383.541 659.791 383.792 659.881 384.046C659.97 384.301 660.091 385.095 659.806 385.23C659.521 385.365 658.876 385.53 658.471 385.366C658.067 385.201 657.271 385.35 657.241 385.5C657.211 385.65 655.066 385.695 654.726 385.605C654.386 385.515 653.016 384.661 651.096 385.245C649.177 385.829 648.217 385.021 647.947 384.856C647.677 384.691 647.002 384.736 646.702 384.811C646.402 384.887 646.072 384.077 645.142 384.001C644.213 383.926 643.549 383.957 643.163 383.852C642.777 383.748 641.989 383.601 641.57 383.852C641.151 384.103 640.371 383.987 639.875 383.942C639.38 383.897 639.185 383.837 638.601 384.122C638.017 384.407 637.506 384.373 637.056 384.392C636.606 384.41 636.573 384.689 636.321 384.643L636.324 384.629Z" fill="#E9F3F1"/>
</g>
<path id="Vector_12" d="M646.817 425.38C647.089 425.065 647.717 424.561 648.297 424.458C648.876 424.356 649.577 424.04 650.017 424.319C650.457 424.597 651.516 424.917 651.736 424.937C651.956 424.958 652.836 425.657 653.077 425.896C653.319 426.136 654.177 426.636 654.397 426.695C654.616 426.755 655.257 427.215 654.9 427.435C654.542 427.654 654.68 427.854 654.34 427.794C654.001 427.735 653.837 427.415 653.44 427.375C653.043 427.336 652.9 427.515 652.72 427.515C652.54 427.515 652.18 427.616 652.217 427.176C652.254 426.736 652.037 426.596 651.697 426.517C651.358 426.437 651.457 426.277 651.194 426.177C650.932 426.077 651.054 425.877 650.795 425.758C650.535 425.639 649.855 425.439 649.475 425.439C649.095 425.439 649.195 425.299 648.795 425.299C648.696 425.299 648.404 425.215 648.225 425.313C647.73 425.583 646.876 425.9 646.815 425.778C646.736 425.618 646.648 425.572 646.815 425.379L646.817 425.38Z" fill="#E9F3F1"/>
<path id="Vector_13" d="M655.615 427.257C655.783 427.146 656.555 427.457 656.735 427.417C656.916 427.377 657.115 427.158 657.315 427.257C657.516 427.357 657.675 427.577 657.795 427.638C657.915 427.698 658.616 427.797 658.775 427.957C658.934 428.117 659.155 428.157 659.175 428.297C659.194 428.436 659.455 428.715 659.175 428.816C658.895 428.916 658.355 428.996 658.169 428.976C657.983 428.956 657.599 429.025 657.509 429.116C657.419 429.206 657.159 429.367 657.006 429.306C656.854 429.245 654.324 429.215 654.537 428.656C654.749 428.096 655.636 428.477 655.794 428.396C655.952 428.316 655.954 428.117 655.784 427.978C655.614 427.839 655.214 427.528 655.616 427.258L655.615 427.257Z" fill="#E9F3F1"/>
<path id="Vector_14" d="M652.656 436.218C652.446 436.578 652.056 436.937 651.636 436.997C651.216 437.056 650.646 436.847 650.379 436.997C650.111 437.146 650.139 437.776 650.379 437.926C650.479 437.982 650.561 438.065 650.614 438.166C650.667 438.267 650.69 438.382 650.679 438.496C650.649 438.676 651.639 439.752 651.219 441.043C650.799 442.333 650.38 442.931 649.961 443.171C649.542 443.41 648.762 444.609 648.582 445.088C648.401 445.568 648.072 446.976 648.431 447.517C648.564 447.721 648.62 447.965 648.59 448.206C648.561 448.446 648.448 448.669 648.271 448.835C648.042 449.016 647.768 449.974 648.103 450.634C648.438 451.294 649.753 452.192 649.812 453.002C649.872 453.812 650.986 454.593 651.132 455.04C651.279 455.486 652.272 456.715 652.332 457.133C652.391 457.552 652.962 458.725 653.531 458.961C654.101 459.197 653.892 459.411 654.37 459.59C654.848 459.769 657.34 460.846 657.61 461.928C657.693 462.278 657.899 462.734 657.969 463.603C658.117 465.419 658.108 468.126 658.209 469.058C658.359 470.436 658.3 470.346 658.209 470.615C658.118 470.885 658.209 472.833 658.539 473.343C658.87 473.853 659.229 475.89 658.539 477.988C658.217 478.97 659.17 479.877 659.17 480.655C659.17 481.434 659.529 482.665 659.799 482.843C660.069 483.021 661.029 484.701 661.119 485.84C661.208 486.979 661.479 486.709 661.629 487.338C661.704 487.653 661.782 488.375 662.058 489.086C662.335 489.797 662.813 490.499 662.98 490.755C663.311 491.264 664.16 492.982 664.86 493.022C665.56 493.062 665.72 492.938 665.939 492.882C666.159 492.826 667.08 493.122 667.159 493.481C667.239 493.839 667.179 494.3 667.7 494.3C668.19 494.316 668.675 494.403 669.139 494.56C669.319 494.643 670.659 494.72 670.64 494.34C670.62 493.96 670.519 493.801 670.279 493.721C670.039 493.642 669.039 493.541 668.28 492.842C667.52 492.143 667.777 492.363 667.7 492.043C667.623 491.723 667.46 491.584 667.26 491.443C667.059 491.303 666.52 490.784 666.54 490.545C666.56 490.305 666.68 489.825 666.779 489.766C666.879 489.706 666.899 489.386 666.88 489.107C666.861 488.828 667.54 488.566 667.619 488.287C667.699 488.007 667.68 487.408 667.36 487.308C667.039 487.207 666.82 487.149 666.8 486.989C666.774 486.844 666.704 486.711 666.599 486.608C666.5 486.489 666.4 486.029 666.58 485.829C666.76 485.63 667.02 485.25 666.96 484.95C666.899 484.65 666.86 484.252 667.22 483.912C667.579 483.572 667.68 483.013 667.639 482.813C667.598 482.613 668.178 482.154 668.258 481.754C668.338 481.355 668.499 480.435 669.096 480.335C669.694 480.236 670.946 479.462 670.996 478.458C671.035 477.639 671.796 477.159 671.918 476.939C672.04 476.72 672.898 475.9 673.158 475.161C673.418 474.423 674.038 473.103 674.415 472.864C674.561 472.78 674.683 472.661 674.77 472.518C674.858 472.375 674.909 472.212 674.918 472.044C674.938 471.785 675.398 471.225 675.658 471.026C675.918 470.827 675.718 469.327 675.559 468.967C675.399 468.607 675.458 467.25 677.078 466.85C678.699 466.451 678.42 466.291 678.538 466.191C678.656 466.091 680.058 466.191 680.258 465.951C680.458 465.71 680.417 465.431 680.677 465.332C680.937 465.232 681.218 464.772 681.137 464.432C681.057 464.092 681.397 463.595 681.597 463.314C681.798 463.034 681.857 462.555 681.837 462.235C681.817 461.916 681.837 461.555 682.097 461.416C682.357 461.277 682.097 460.277 682.297 459.998C682.498 459.718 682.238 459.118 682.178 458.919C682.117 458.72 681.877 457.9 682.137 457.36C682.397 456.821 683.117 455.802 683.597 455.143C684.076 454.484 685.997 452.825 684.777 450.028C684.382 449.124 683.737 449.809 683.257 449.389C682.778 448.969 681.677 447.83 681.218 447.691C680.758 447.551 679.658 447.711 679.118 447.431C678.578 447.151 675.498 445.533 674.958 445.493C674.419 445.453 673.239 444.714 673.039 443.895C672.838 443.076 672.299 442.736 672.319 442.336C672.338 441.937 671.939 441.058 671.639 441.018C671.339 440.979 670.939 440.159 670.319 440.058C669.7 439.958 669.459 439.659 669.062 439.699C668.665 439.739 667.482 439.779 667.042 439.197C666.602 438.615 666.12 437.638 665.623 437.618C665.126 437.598 664.543 436.739 664.822 436.209C665.101 435.68 664.703 435.341 664.063 435.361C663.422 435.381 662.603 435.239 662.143 435.361C661.683 435.483 661.883 435.722 661.623 435.762C661.363 435.802 660.623 435.781 660.423 435.502C660.223 435.222 660.124 435.242 659.724 435.312C659.324 435.381 658.466 434.962 658.363 434.783C658.26 434.604 657.924 434.663 657.744 434.443C657.564 434.223 656.284 433.724 655.624 434.283C654.964 434.843 654.524 434.923 654.283 434.822C654.041 434.722 653.863 434.923 653.562 435.082C653.262 435.241 652.783 435.522 652.743 435.722C652.702 435.922 652.659 436.211 652.659 436.211L652.656 436.218Z" fill="#E9F3F1"/>
<path id="Vector_15" d="M702.688 386.966C701.878 386.946 701.654 387.056 701.068 386.786C700.482 386.516 699.944 387.145 699.944 387.372C699.944 387.599 700.168 387.552 700.393 388.136C700.618 388.72 700.259 389.308 700.98 389.308C701.701 389.308 702.014 389.039 702.509 389.489C703.003 389.938 703.589 389.174 703.904 388.994C704.218 388.814 705.388 388.258 705.838 388.176C706.289 388.094 706.558 387.51 706.019 387.241C705.479 386.971 705.074 386.524 704.128 386.725C703.183 386.926 703.094 386.981 702.689 386.971L702.688 386.966Z" fill="#E9F3F1"/>
<path id="Vector_16" d="M694.499 375.414C693.557 375.527 692.295 375.773 691.575 375.638C690.856 375.503 689.685 375.135 689.144 375.544C688.604 375.953 688.335 376.177 687.48 376.13C686.625 376.084 686.67 376.176 684.87 376.491C683.07 376.805 682.755 376.85 682.621 377.161C682.487 377.471 681.496 377.747 680.731 377.747C679.965 377.747 678.256 377.926 678.3 378.241C678.343 378.556 678.57 379.545 679.379 379.68C680.189 379.815 682.619 379.41 683.655 380.039C684.69 380.668 684.645 381.792 684.284 382.331C683.924 382.871 684.194 383.681 684.555 384.085C684.915 384.49 685.184 384.894 684.599 384.984C684.014 385.073 682.575 385.57 682.799 387.591C683.024 389.612 683.295 390.378 683.609 390.782C683.924 391.187 684.15 391.277 684.689 391.187C685.228 391.097 685.454 391.142 685.635 391.547C685.815 391.952 686.443 392.217 686.984 391.817C687.525 391.416 688.109 390.333 688.514 389.974C688.919 389.616 689.548 389.659 689.639 389.03C689.729 388.401 690.044 387.774 690.763 387.774C691.482 387.774 691.753 387.729 692.158 387.639C692.563 387.55 694.858 386.695 695.308 386.246C695.758 385.796 695.803 385.752 696.702 385.706C697.602 385.661 699.672 385.347 700.167 384.897C700.661 384.448 701.382 384.448 701.741 384.311C702.1 384.175 702.596 383.322 702.462 382.648C702.328 381.974 702.912 381.749 703.496 381.614C704.081 381.48 705.117 380.041 705.296 379.456C705.475 378.872 704.981 378.284 705.656 378.018C706.33 377.753 707.005 377.164 707.5 377.074C707.994 376.985 709.659 376.714 709.794 376.399C709.929 376.084 709.885 375.995 709.3 375.995C708.714 375.995 707.514 376.13 706.314 375.816C705.115 375.501 702.595 374.692 701.426 374.916C700.256 375.141 698.276 375.816 697.332 375.455C696.387 375.095 695.217 375.323 694.497 375.411L694.499 375.414Z" fill="#E9F3F1"/>
<path id="Vector_17" d="M708.087 396.181C708.357 395.957 709.344 395.821 709.616 395.957C709.889 396.092 710.382 396.586 710.067 396.9C709.751 397.215 709.572 397.215 709.527 397.844C709.481 398.474 709.763 398.923 709.128 398.923C708.492 398.923 707.683 398.968 707.592 399.282C707.501 399.596 706.647 399.508 706.647 399.282C706.647 399.057 706.377 398.249 706.647 398.069C706.917 397.889 707.278 397.44 707.007 397.215C706.736 396.989 706.512 396.628 707.097 396.545C707.448 396.491 707.784 396.369 708.087 396.185V396.181Z" fill="#E9F3F1"/>
<path id="Vector_18" d="M711.777 393.079C711.292 393.079 711.237 392.809 710.787 393.079C710.337 393.349 710.404 393.349 710.168 393.709C709.932 394.069 709.788 394.024 709.86 394.428C709.932 394.833 709.429 395.057 709.86 395.462C710.292 395.866 711.057 396.451 711.057 396.675C711.057 396.9 711.643 397.035 711.462 397.395C711.281 397.754 710.382 397.664 710.471 397.981C710.561 398.297 710.136 398.879 710.168 399.237C710.2 399.595 709.82 400.41 710.168 400.451C710.516 400.492 711.372 400.271 711.777 400.136C712.182 400.001 713.261 400.091 713.666 399.821C714.071 399.55 714.431 399.416 714.296 399.235C714.162 399.053 714.206 398.92 714.521 398.83C714.836 398.74 715.017 397.721 714.521 397.691C714.026 397.661 713.801 397.706 713.801 397.122C713.801 396.537 713.801 396.493 713.396 396.267C712.991 396.042 712.947 396.313 712.856 395.413C712.766 394.514 712.767 393.076 711.777 393.076V393.079Z" fill="#E9F3F1"/>
<path id="Vector_19" d="M749.931 458.032C749.481 458.841 748.851 459.288 747.951 459.38C747.052 459.473 746.778 461.089 746.961 461.539C747.145 461.988 747.306 463.516 746.908 463.786C746.511 464.055 745.612 465.584 746.154 466.393C746.696 467.202 746.975 468.551 747.96 468.461C748.944 468.37 749.663 467.204 749.934 466.303C750.204 465.402 750.833 462.887 751.283 462.257C751.733 461.627 751.552 461.085 751.913 460.459C752.273 459.834 752.272 458.391 751.913 457.223C751.553 456.055 751.283 455.784 750.923 456.234C750.562 456.684 749.934 458.032 749.934 458.032H749.931Z" fill="#E9F3F1"/>
<path id="Vector_20" d="M704.848 417.938C704.488 418.701 703.723 419.421 703.272 419.646C702.822 419.871 702.643 419.781 702.373 420.41C702.103 421.039 701.428 421.309 701.293 421.893C701.158 422.478 700.888 423.242 700.438 423.556C699.988 423.87 699.181 425.22 699.359 425.715C699.536 426.21 699.269 427.018 699.629 427.692C699.988 428.366 699.988 429.94 699.629 430.389C699.269 430.838 698.234 432.644 699.089 434.033C699.944 435.423 701.113 435.559 701.52 436.502C701.926 437.446 702.285 439.11 703.5 439.559C704.714 440.009 705.704 441.177 706.019 441.402C706.335 441.626 707.234 441.267 707.639 441.042C708.044 440.816 708.764 440.502 709.304 440.682C709.844 440.862 710.878 441.131 711.193 441.087C711.508 441.043 712.048 440.501 712.633 440.368C713.218 440.234 714.253 439.469 715.243 439.648C716.233 439.827 716.683 440.457 716.773 440.821C716.862 441.184 717.222 441.81 718.213 441.675C719.204 441.54 720.237 441.81 720.192 442.888C720.147 443.967 720.057 444.372 719.877 444.956C719.697 445.541 719.112 446.529 720.507 447.743C721.902 448.958 721.947 449.991 722.037 450.256C722.127 450.521 722.708 451.29 722.756 452.054C722.805 452.818 723.252 454.437 723.432 455.111C723.612 455.785 722.982 456.414 722.711 456.774C722.44 457.134 722.306 459.066 721.947 459.337C721.589 459.607 721.631 461.045 721.767 461.27C721.903 461.495 722.91 464.461 723.464 464.821C724.018 465.181 723.883 466.034 723.883 466.439C723.883 466.843 724.108 467.787 724.153 468.102C724.197 468.417 724.378 470.755 725.278 470.979C726.177 471.203 725.772 472.013 725.948 472.418C726.124 472.822 726.488 473.451 726.399 473.991C726.309 474.53 726.488 476.058 726.803 476.193C727.119 476.328 728.289 476.733 729.863 476.193C731.437 475.654 731.302 476.193 732.022 475.969C732.742 475.744 735.487 474.845 736.342 472.821C737.197 470.798 737.781 471.339 737.917 470.26C738.053 469.182 738.366 468.74 738.682 468.466C738.997 468.191 740.886 466.843 740.436 464.91C739.986 462.977 740.391 462.888 740.932 462.482C741.472 462.075 742.236 460.818 743.136 460.728C744.036 460.638 745.026 458.616 744.845 457.851C744.665 457.087 744.753 456.412 744.867 455.829C744.981 455.245 744.261 453.941 744.036 453.311C743.81 452.681 744.306 451.288 743.72 450.524C743.135 449.759 743.99 449.445 744.351 448.636C744.711 447.827 744.8 447.605 745.341 447.199C745.881 446.793 747.545 443.916 748.084 443.736C748.623 443.556 750.739 442.171 751.235 440.365C751.557 439.186 752.945 437.173 752.989 436.005C753.034 434.837 753.754 434.072 752.179 434.522C750.605 434.971 747.68 436.095 747.365 435.24C747.05 434.386 747.365 434.477 746.915 433.984C746.465 433.492 744.8 431.377 744.261 431.555C743.722 431.734 743.27 430.656 743.316 429.892C743.361 429.128 743.091 428.589 742.461 428.184C741.832 427.78 742.011 426.117 741.606 425.667C741.201 425.217 741.156 424.543 740.661 424.411C740.165 424.278 738.727 421.396 738.772 420.814C738.817 420.233 738.817 418.747 738.096 417.938C737.376 417.129 737.017 416.544 735.802 417.039C734.588 417.534 733.958 416.99 733.642 416.856C733.326 416.723 732.338 416.773 731.887 416.454C731.437 416.136 730.943 416.364 730.718 416.094C730.493 415.825 729.545 415.376 729.233 415.555C728.921 415.734 727.523 415.87 727.748 416.589C727.973 417.309 727.883 417.668 727.523 417.713C727.164 417.758 726.541 417.174 725.975 416.948C725.409 416.723 724.824 416.948 724.644 416.278C724.464 415.608 723.699 415.342 723.204 415.518C722.708 415.694 721.36 415.559 721.224 414.841C721.088 414.122 720.729 414.48 721.09 414.121C721.45 413.762 721.134 413.132 721.269 412.682C721.404 412.233 721.449 411.199 719.874 411.558C718.299 411.918 718.21 411.738 717.4 411.963C716.589 412.187 716.77 411.828 716.05 411.873C715.33 411.918 714.385 412.323 713.935 412.188C713.485 412.053 713.171 412.233 712.946 412.638C712.721 413.043 712.946 412.907 712.136 413.132C711.327 413.357 710.156 413.718 709.705 413.537C709.254 413.355 709.3 412.95 708.806 413.087C708.311 413.223 708.175 413.042 708.175 413.582C708.175 414.121 708.13 414.346 707.771 414.57C707.411 414.794 706.241 415.245 705.881 415.874C705.522 416.503 704.846 417.942 704.846 417.942L704.848 417.938Z" fill="#E9F3F1"/>
<path id="Vector_21" d="M788.22 440.053C787.904 440.234 787.95 440.503 788.22 440.908C788.49 441.312 789.884 441.986 789.839 442.661C789.794 443.335 790.514 443.331 790.694 443.875C790.874 444.419 792.179 445.942 792.359 446.707C792.539 447.471 792.854 448.46 793.439 448.46C794.024 448.46 794.026 449.269 794.653 449.717C795.281 450.164 795.598 451.155 796.138 451.379C796.678 451.603 797.312 451.829 797.312 451.829C797.312 451.829 798.121 452.233 798.796 452.233C799.471 452.233 800.011 452.819 801.181 452.907C802.351 452.995 802.261 452.638 802.666 452.907C803.07 453.177 803.565 452.982 803.701 452.922C803.837 452.863 803.835 453.006 804.15 453.046C804.465 453.087 804.737 452.324 804.15 452.233C803.563 452.143 802.755 451.739 802.755 451.424C802.755 451.109 802.215 450.795 801.766 450.974C801.317 451.154 800.461 450.705 800.056 450.929C799.651 451.154 799.469 451.109 799.201 451.065C798.933 451.021 797.671 450.929 797.491 450.615C797.311 450.301 796.456 448.996 796.772 448.458C797.087 447.919 797.086 447.064 796.591 446.974C796.097 446.883 796.141 446.614 795.827 446.03C795.513 445.445 795.107 444.457 794.162 444.097C793.217 443.737 791.958 442.568 791.507 441.939C791.057 441.311 790.334 441.085 790.292 440.816C790.25 440.546 789.303 440.051 788.762 440.051L788.22 440.053Z" fill="#E9F3F1"/>
<path id="Vector_22" d="M804.492 439.559C804.147 440.053 803.517 440.774 803.157 440.862C802.796 440.951 802.707 441.177 802.486 441.582C802.266 441.986 800.776 442.886 800.237 443.065C799.698 443.244 798.887 443.735 798.98 444.189C799.072 444.643 799.249 445.088 799.204 445.403C799.16 445.718 799.294 446.482 799.744 446.976C800.194 447.47 799.789 448.1 800.24 448.149C800.69 448.197 801.004 448.103 801.184 448.373C801.365 448.643 801.724 448.284 801.994 448.373C802.264 448.463 802.849 448.552 803.299 448.868C803.749 449.184 804.078 448.913 804.499 448.868C804.92 448.824 805.098 448.688 805.054 448.282C805.009 447.876 804.796 447.114 805.06 446.798C805.323 446.482 805.278 446.169 805.73 446.079C806.182 445.99 806.27 445.54 806.317 445.269C806.364 444.999 806.767 444.91 806.947 444.683C807.126 444.456 807.262 444.233 806.947 444.013C806.631 443.793 805.957 442.725 806.226 442.178C806.496 441.631 806.181 441.765 806.677 441.361C807.172 440.956 807.85 440.552 807.442 440.327C807.034 440.103 806.451 439.967 806.092 439.563C805.732 439.158 805.371 438.39 805.147 438.754C804.953 439.039 804.737 439.31 804.502 439.563L804.492 439.559Z" fill="#E9F3F1"/>
<path id="Vector_23" d="M810.58 444.145C809.951 444.055 809.681 444.369 809.411 444.145C809.141 443.92 808.781 443.572 808.512 443.836C808.242 444.099 807.791 444.099 807.746 444.549C807.701 444.999 807.365 445.403 807.555 445.722C807.745 446.04 807.252 446.402 807.161 446.559C807.071 446.717 807.206 446.939 807.161 447.298C807.116 447.657 806.532 447.702 806.757 448.107C806.983 448.511 807.344 448.677 807.344 449.021C807.344 449.366 807.074 450.175 807.254 450.309C807.434 450.444 808.019 450.579 808.154 450.309C808.289 450.04 808.559 449.455 809.098 449.723C809.638 449.991 809.594 450.529 809.999 450.463C810.404 450.397 810.943 450.082 810.585 449.453C810.227 448.824 809.416 447.637 809.866 447.108C810.316 446.578 810.285 446.438 810.704 446.263C811.124 446.088 810.812 445.588 810.901 445.363C810.991 445.138 811.127 445.048 811.577 444.599C812.027 444.149 812.342 443.386 812.026 443.386C811.711 443.386 811.487 443.532 811.261 443.841C811.036 444.15 810.586 444.15 810.586 444.15L810.58 444.145Z" fill="#E9F3F1"/>
<path id="Vector_24" d="M807.555 428.411C806.908 428.559 806.834 428.546 806.705 429.4C806.576 430.255 806.118 431.019 806.705 431.873C807.292 432.727 807.971 433.129 808.376 433.086C808.584 433.069 808.793 433.11 808.978 433.206C809.164 433.301 809.319 433.447 809.426 433.626C809.636 433.986 810.491 434.075 810.671 433.941C810.851 433.806 810.761 433.266 810.671 432.907C810.581 432.549 810.041 432.232 809.816 432.321C809.59 432.41 809.051 432.185 808.781 432.276C808.512 432.366 808.241 432.141 808.286 431.736C808.331 431.332 808.405 430.792 808.594 430.702C808.782 430.611 809.051 430.432 808.961 429.803C808.871 429.174 808.939 428.095 807.555 428.41V428.411Z" fill="#E9F3F1"/>
<g id="Group_2">
<path id="Vector_25" d="M824.978 447.47C823.988 447.021 823.539 447.273 823.179 446.922C822.818 446.571 822.009 446.264 821.559 446.552C821.109 446.841 820.569 446.573 820.386 446.954C820.202 447.336 819.846 447.92 819.621 447.246C819.396 446.572 819.171 446.437 819.306 446.167C819.441 445.898 819.036 445.763 818.635 445.673C818.235 445.583 817.462 445.448 817.195 445.673C816.929 445.898 816.701 446.212 816.476 446.032C816.251 445.852 815.666 446.032 815.936 446.302C816.206 446.572 817.11 446.553 817.193 446.922C817.277 447.29 817.374 447.696 817.193 447.876C817.013 448.056 817.509 448.055 817.598 448.594C817.688 449.134 818.273 449.494 818.499 449.224C818.724 448.954 818.634 448.625 819.169 449.015C819.705 449.404 820.07 449.629 820.654 449.719C821.238 449.809 822.498 450.753 821.689 452.19C820.88 453.628 822.229 452.86 822.679 452.777C823.129 452.693 823.804 452.912 824.164 453.407C824.523 453.902 825.739 453.993 825.918 453.631C826.098 453.269 826.459 452.192 826.864 452.283C827.269 452.373 827.403 452.057 827.898 452.687C828.394 453.317 828.888 454.664 829.607 454.575C830.327 454.485 830.373 454.269 830.781 454.575C831.189 454.881 831.771 455.2 832.038 454.84C832.306 454.48 831.229 453.357 830.913 453.312C830.598 453.267 829.699 452.726 829.788 452.324C829.878 451.922 830.283 450.338 829.338 450.273C828.394 450.209 828.124 449.436 827.899 449.012C827.674 448.588 826.909 448.098 826.369 448.007C825.829 447.917 824.974 447.467 824.974 447.467L824.978 447.47Z" fill="#E9F3F1"/>
<path id="Vector_26" d="M842.481 476.105C842.108 476.508 842.661 478.083 842.211 478.847C841.761 479.612 841.266 480.103 840.816 480.376C840.366 480.648 840.681 480.735 840.321 481.05C839.962 481.365 839.196 481.41 838.656 481.636C838.117 481.862 838.432 481.771 837.982 482.175C837.531 482.58 836.947 482.67 836.587 483.254C836.226 483.839 834.337 484.468 833.167 484.963C831.998 485.458 830.918 486.176 831.053 486.49C831.187 486.804 831.547 487.12 832.222 487.03C832.897 486.939 833.077 486.85 833.618 486.67C834.158 486.49 834.922 485.547 835.686 485.414C836.451 485.281 836.305 485.055 836.761 484.92C837.217 484.785 837.935 484.47 838.206 484.111C838.478 483.752 839.38 483.392 839.871 482.807C840.402 482.18 841.176 482.807 841.761 482.043C841.996 481.736 842.796 480.871 843.38 480.604C843.964 480.338 845.224 479.93 845.27 479.301C845.316 478.672 845.54 478.312 844.684 478.402C843.827 478.491 843.649 478.671 843.649 477.862C843.649 477.053 843.514 476.606 843.199 476.469C842.884 476.331 843.019 475.525 842.479 476.109L842.481 476.105Z" fill="#E9F3F1"/>
</g>
<path id="Vector_27" d="M807.657 461.811C806.846 462.62 806.307 462.89 805.632 462.934C804.957 462.978 804.282 463.52 803.697 463.653C803.113 463.787 802.524 463.923 802.482 464.24C802.44 464.556 801.627 464.779 801.308 464.826C800.99 464.873 801.218 465.859 800.678 466.309C800.138 466.759 799.238 468.916 799.959 469.636C800.68 470.355 800.048 472.826 800.318 473.367C800.588 473.907 800.318 474.805 799.913 475.209C799.509 475.614 798.523 476.198 799.691 476.692C800.858 477.187 801.578 477.098 801.938 476.692C802.298 476.287 803.188 476.198 803.395 476.106C803.602 476.014 803.932 475.687 804.485 475.897C805.037 476.106 806.029 475.702 806.434 475.297C806.838 474.893 807.829 474.125 808.368 474.308C808.907 474.491 810.212 474.218 810.618 474.038C811.024 473.858 811.923 473.364 812.598 473.769C813.273 474.173 813.948 474.218 814.083 474.757C814.218 475.295 814.488 475.117 814.398 475.611C814.308 476.105 814.888 476.692 815.857 477.028C816.826 477.364 816.737 478.038 816.648 478.803C816.558 479.568 819.482 480.916 821.147 480.511C822.812 480.107 822.181 480.107 822.856 479.841C823.531 479.576 823.325 479.212 823.968 479.122C824.612 479.032 824.296 479.212 825.016 478.133C825.736 477.053 825.603 477.368 825.961 477.054C826.319 476.74 825.87 476.065 826.906 475.526C827.941 474.986 828.66 474.537 828.705 474.087C828.751 473.637 829.2 473.593 829.376 473.233C829.552 472.873 829.467 472.514 830.096 471.749C830.726 470.985 830.658 469.727 831.03 469.277C831.402 468.827 831.311 467.075 830.546 466.805C829.782 466.535 828.612 462.759 827.937 462.49C827.532 462.328 826.991 462.13 826.991 462.13C826.861 461.804 827.279 461.313 827.352 461.006C827.532 460.242 826.765 459.029 826.681 458.534C826.597 458.039 825.601 456.287 825.601 455.882C825.601 455.478 825.015 454.938 824.657 455.387C824.299 455.836 824.116 456.511 824.161 456.826C824.206 457.141 823.666 457.999 823.756 458.489C823.847 458.98 823.169 459.478 823.036 460.197C822.903 460.916 822.449 460.647 822.091 460.512C821.734 460.377 821.012 459.613 820.517 459.478C820.023 459.342 819.752 458.265 820.067 457.86C820.382 457.454 820.337 457.19 820.427 456.961C820.516 456.732 820.651 456.107 820.381 455.972C820.111 455.837 818.447 455.792 818.042 455.522C817.637 455.252 816.784 454.733 816.512 455.217C816.24 455.701 815.125 456.416 814.902 456.776C814.678 457.136 814.137 457.948 814.182 458.169C814.228 458.391 813.687 458.484 813.552 458.08C813.417 457.675 812.697 457.136 812.112 457.494C811.527 457.851 809.907 458.572 809.727 459.201C809.547 459.83 808.828 459.787 808.513 460.101C808.199 460.414 807.658 461.809 807.658 461.809L807.657 461.811Z" fill="#E9F3F1"/>
<path id="Vector_28" d="M792.943 438.656C793.53 438.93 794.564 440.324 794.653 440.683C794.743 441.043 794.878 441.986 794.923 442.436C794.969 442.886 795.553 443.572 795.373 443.836C795.194 444.099 794.643 444.055 794.176 443.65C793.709 443.244 792.583 442.301 792.404 441.582C792.32 441.233 792.221 440.666 791.954 440.204C791.671 439.713 791.217 439.33 791.144 439.11C790.994 438.657 790.672 438.44 790.334 438.121C790.166 437.966 790.394 436.53 790.434 436.348C790.473 436.165 790.274 435.609 790.394 435.329C790.514 435.049 790.414 433.671 790.134 433.351C789.854 433.031 789.274 431.652 789.296 431.373C789.318 431.093 788.817 430.614 788.496 430.734C788.176 430.854 787.696 430.974 787.658 431.214C787.62 431.453 787.218 431.194 787.138 431.034C787.057 430.874 786.478 431.452 786.498 430.813C786.518 430.174 786.898 429.795 785.639 427.597C785.355 427.104 785.555 427.997 785.136 427.318C784.717 426.638 784.214 426.339 784.297 426.119C784.381 425.9 784.058 425.26 783.258 425.479C782.458 425.699 781.478 425.72 781.258 425.839C781.037 425.959 780.558 426.278 780.618 426.698C780.679 427.117 780.138 427.437 779.918 427.577C779.699 427.717 779.099 427.977 778.879 428.477C778.659 428.977 778.299 428.856 778.259 429.276C778.218 429.695 777.337 429.778 777.337 430.197C777.337 430.616 776.456 430.856 776.136 431.375C775.816 431.895 776.196 432.654 776.136 433.173C776.076 433.693 775.697 435.131 775.836 435.531C775.975 435.93 775.876 436.011 775.656 436.09C775.435 436.17 775.716 436.47 775.297 436.81C774.969 437.065 774.667 437.353 774.397 437.669C774.117 437.989 773.677 438.285 773.197 437.327C772.718 436.37 772.537 435.234 772.216 435.072C771.896 434.91 771.537 433.816 771.477 433.374C771.417 432.931 770.858 431.815 770.578 431.635C770.298 431.455 769.498 429.198 769.618 428.739C769.738 428.28 769.517 427.979 769.357 427.72C769.197 427.46 769.537 427.16 769.357 426.941C769.177 426.721 768.977 426.421 768.658 426.501C768.339 426.581 767.82 427.06 767.317 426.281C766.814 425.501 766.577 425.881 766.457 425.682C766.336 425.483 765.954 424.883 766.058 424.563C766.162 424.243 765.197 424.164 765.098 423.924C764.999 423.685 764.437 423.003 764.157 422.805C763.877 422.607 762.757 422.425 762.317 422.665C761.877 422.906 759.924 423.627 757.12 422.226C756.88 422.106 756.72 421.287 756.54 421.186C756.36 421.086 755.88 421.007 755.921 421.287C755.961 421.566 755.241 421.606 755.06 421.526C754.88 421.447 753.216 420.904 752.916 420.605C752.636 420.325 752.497 420.395 752.376 420.38C752.256 420.365 751.866 419.586 751.836 419.375C751.805 419.164 751.236 418.28 750.861 418.295C750.485 418.31 749.796 418.295 749.901 418.955C750.006 419.615 750.562 420.513 751.086 420.663C751.611 420.813 752.016 421.262 752.106 421.457C752.195 421.651 752.631 421.607 752.692 422.043C752.754 422.479 752.918 422.972 752.723 423.017C752.527 423.062 752.677 423.317 752.797 423.362C752.917 423.407 753.971 423.632 754.432 423.377C754.893 423.123 755.077 422.912 755.197 422.673C755.317 422.433 756.082 422.103 756.398 422.567C756.713 423.031 757.042 423.796 757.487 423.796C757.932 423.796 758.282 423.886 758.523 424.276C758.763 424.665 759.243 424.845 759.197 425.235C759.152 425.624 758.823 426.613 758.492 426.957C758.162 427.302 757.952 427.827 758.043 428.171C758.134 428.515 757.743 428.456 757.593 428.607C757.443 428.757 756.903 429.46 756.483 429.46C756.063 429.46 755.957 429.745 755.943 429.91C755.929 430.075 755.718 430.06 755.538 430.077C755.359 430.095 754.788 430.556 754.473 430.571C754.158 430.586 753.918 430.871 753.843 431.036C753.769 431.201 753.858 431.245 753.708 431.441C753.558 431.636 752.883 431.995 752.673 431.995C752.463 431.995 752.044 432.01 751.684 432.295C751.324 432.58 750.889 432.834 750.678 432.804C750.467 432.774 749.898 433.044 749.733 433.239C749.569 433.434 748.758 433.448 748.608 433.553C748.458 433.657 748.158 434.273 747.559 433.763C746.959 433.253 746.928 432.819 746.794 432.354C746.659 431.89 746.284 431.89 746.104 430.946C745.923 430.001 745.309 429.271 745.129 429.133C744.948 428.996 745.159 428.623 744.994 428.429C744.829 428.235 744.169 427.256 743.764 427.173C743.359 427.089 742.954 425.809 742.969 425.27C742.984 424.731 742.249 423.772 741.994 423.679C741.74 423.586 741.44 422.989 741.365 422.75C741.29 422.51 740.494 421.311 740.191 421.087C739.889 420.862 739.876 420.338 739.772 420.217C739.668 420.097 739.521 419.423 739.412 419.349C739.303 419.274 738.588 417.386 738.887 416.981C739.186 416.577 739.138 416.202 739.247 415.947C739.348 415.695 739.394 415.424 739.382 415.153C739.367 414.928 739.757 414.539 739.772 414.254C739.787 413.97 739.637 413.249 739.712 413.16C739.786 413.072 739.622 412.471 739.307 412.516C738.992 412.56 738.438 412.501 738.242 412.8C738.047 413.1 737.387 412.968 737.236 412.876C737.086 412.784 737.086 412.696 737.086 412.636C737.086 412.577 736.262 412.726 735.992 412.426C735.722 412.126 735.901 412.726 735.676 412.696C735.45 412.666 735.001 412.8 734.491 412.456C733.981 412.112 733.892 412.408 733.653 412.342C733.414 412.277 732.468 411.497 732.378 410.751C732.287 410.005 732.529 409.327 732.244 409.103C731.959 408.878 731.569 408.698 731.343 408.698C731.118 408.698 730.757 408.818 730.699 409.133C730.641 409.448 730.654 410.166 730.819 410.496C730.984 410.826 730.889 411.366 730.666 411.396C730.443 411.426 730.519 411.86 730.444 412.175C730.369 412.49 729.934 412.594 729.634 412.46C729.334 412.326 728.943 412.041 728.914 411.485C728.885 410.93 727.924 410.511 727.759 409.837C727.594 409.163 727.489 409.313 727.369 409.238C727.249 409.162 727.474 408.4 727.294 408.084C727.114 407.769 726.539 406.811 725.971 406.706C725.403 406.601 725.87 406.526 725.468 406.346C725.067 406.166 724.328 405.852 724.237 405.462C724.147 405.073 723.623 404.847 723.294 404.758C722.964 404.668 722.588 404.413 722.455 404.863C722.399 405.064 722.408 405.279 722.48 405.475C722.553 405.671 722.686 405.84 722.86 405.956C723.159 406.136 723.355 406.45 723.385 406.676C723.415 406.901 724.195 407.485 724.36 407.47C724.525 407.455 724.959 407.605 725.155 407.8C725.35 407.995 726.475 408.518 726.609 408.759C726.743 408.999 726.984 409.328 726.789 409.463C726.594 409.598 726.264 409.448 726.175 409.342C726.085 409.237 725.694 409.091 725.635 409.223C725.575 409.354 725.394 409.568 725.559 409.672C725.725 409.777 725.964 410.182 725.709 410.426C725.455 410.671 725.542 410.86 725.424 410.965C725.307 411.071 724.645 411.46 724.586 411.384C724.528 411.309 724.419 411.654 724.481 411.924C724.544 412.193 724.166 412.433 723.792 412.208C723.417 411.984 723.237 411.833 722.921 411.743C722.606 411.654 721.915 411.279 722.306 410.965C722.697 410.651 723.672 410.994 723.851 410.934C724.03 410.875 724.481 410.904 724.571 410.695C724.661 410.486 724.751 410.365 724.751 410.065C724.751 409.765 724.151 408.941 723.836 408.852C723.521 408.762 721.257 407.338 720.957 406.919C720.656 406.499 720.552 405.93 720.177 405.81C719.802 405.69 719.727 405.495 719.382 405.825C719.038 406.155 718.932 406.11 718.603 406.214C718.273 406.319 718.332 406.694 718.122 406.709C717.913 406.724 717.222 406.542 716.949 406.44C716.675 406.337 715.775 406.364 715.719 406.934C715.663 407.503 715.694 408.098 715.058 408.252C714.815 408.311 714.684 408.642 714.038 408.642C713.859 408.642 713.619 409.376 713.439 409.48C713.259 409.584 713.02 409.78 713.049 410.005C713.078 410.23 713.319 410.454 713.139 410.675C712.959 410.896 712.674 411.004 712.659 411.244C712.645 411.485 712.719 411.678 712.408 411.753C712.097 411.829 711.809 412.293 711.524 412.398C711.238 412.502 710.518 412.638 710.309 412.547C710.1 412.457 709.769 412.578 709.694 412.715C709.618 412.852 708.839 412.805 708.704 412.67C708.569 412.535 708.164 412.145 707.939 412.083C707.714 412.021 706.904 412.068 706.709 412.068C706.515 412.068 706.274 411.604 706.304 411.019C706.335 410.434 705.974 410.6 705.959 410.48C705.944 410.359 706.304 409.76 706.47 409.307C706.635 408.854 706.649 408.018 706.649 407.703C706.649 407.388 706.724 407.389 706.739 407.164C706.754 406.939 706.409 406.52 706.829 406.385C707.249 406.25 707.339 406.085 707.399 405.996C707.46 405.906 707.774 405.77 708.029 405.92C708.284 406.07 709.498 405.861 709.694 406.025C709.889 406.189 711.043 406.055 711.238 406.16C711.434 406.265 711.733 406.43 711.959 406.25C712.184 406.07 712.303 405.651 712.244 405.441C712.184 405.232 712.544 404.969 712.495 404.598C712.446 404.227 712.165 403.193 711.715 403.028C711.264 402.863 711.115 402.399 710.59 402.474C710.064 402.549 710.268 402.13 710.166 401.995C710.065 401.86 709.675 401.56 710.23 401.485C710.785 401.41 711.805 401.5 712.03 401.006C712.254 400.512 712.9 400.497 713.05 400.647C713.2 400.796 713.485 401.006 713.74 400.691C713.995 400.376 714.19 400.553 714.31 400.457C714.482 400.308 714.598 400.105 714.639 399.882C714.67 399.642 715.194 399.373 715.478 399.238C715.761 399.103 716.148 399.013 716.422 398.623C716.696 398.234 717.353 397.32 717.832 397.395C718.312 397.469 718.718 397.227 718.972 396.87C719.227 396.514 719.077 395.986 719.047 395.746C719.017 395.507 718.927 394.653 719.438 394.443C719.948 394.234 720.024 393.874 720.322 394.024C720.62 394.175 720.622 394.144 720.666 394.504C720.711 394.863 720.772 395.223 720.637 395.612C720.502 396.002 720.682 396.682 721.012 396.709C721.342 396.737 721.506 396.892 721.747 396.709C721.988 396.527 722.527 396.271 722.722 396.467C722.917 396.662 723.036 396.916 723.247 396.991C723.457 397.065 723.786 397.08 724.296 396.811C724.806 396.541 725.512 396.287 725.961 396.332C726.41 396.377 727.4 396.347 727.536 395.432C727.672 394.518 727.506 393.725 728.793 393.769C730.081 393.813 729.483 392.825 729.273 392.586C729.063 392.346 727.953 392.061 727.863 391.792C727.772 391.522 727.383 391.402 727.458 391.133C727.533 390.863 727.443 390.907 727.398 390.683C727.352 390.458 727.264 390.383 727.278 390.024C727.292 389.664 727.668 389.05 728.208 388.959C728.748 388.869 728.583 388.45 728.963 388.3C729.343 388.15 729.337 388.165 729.397 387.941C729.457 387.716 729.488 387.611 729.157 387.626C728.827 387.641 728.243 387.551 727.972 387.746C727.701 387.94 727.297 388.3 727.297 388.675C727.297 389.049 726.968 389.154 726.502 389.364C726.037 389.573 724.748 389.844 725.183 390.772C725.618 391.701 725.378 391.267 725.633 391.402C725.889 391.537 726.487 392.181 726.173 392.346C725.859 392.511 726.082 392.66 725.948 392.81C725.749 393.043 725.489 393.214 725.197 393.305C724.807 393.425 724.778 394.114 724.718 394.653C724.657 395.193 724.792 395.478 724.073 395.478C723.354 395.478 723.563 395.432 723.429 395.658C723.294 395.883 721.958 396.212 721.614 396.167C721.269 396.122 721.223 395.581 721.446 395.508C721.669 395.435 721.881 395.118 722.076 395.089C722.27 395.06 722.376 394.654 722.001 394.385C721.626 394.115 721.266 393.365 721.101 393.291C720.936 393.216 720.771 392.826 720.501 392.872C720.231 392.918 720.006 392.977 719.736 393.337C719.466 393.697 717.771 394.131 717.546 392.812C717.322 391.493 717.295 391.703 717.201 391.344C717.107 390.984 717.007 390.25 718.086 389.935C719.166 389.62 718.941 389.336 719.26 389.216C719.578 389.095 720.729 388.706 721.254 388.062C721.779 387.418 722.874 385.68 723.984 385.185C725.095 384.691 724.854 384.451 725.108 384.316C725.297 384.23 725.45 384.082 725.543 383.897C725.648 383.717 726.653 383.882 727.013 383.778C727.373 383.673 727.358 383.268 727.943 383.253C728.529 383.238 731.663 383.298 732.038 383.493C732.412 383.688 732.727 383.66 732.893 383.838C733.058 384.015 733.402 383.852 733.642 384.108C733.882 384.363 733.762 384.392 734.887 384.541C736.012 384.691 737.857 385.128 738.216 385.515C738.576 385.903 739.39 386.055 739.761 385.876C740.133 385.696 740.301 385.366 740.751 385.141C741.201 384.917 741.306 384.917 741.711 385.171C742.116 385.426 741.963 385.411 742.176 385.576C742.39 385.741 742.926 385.815 743.511 385.606C744.096 385.397 744.23 385.355 744.546 385.321C744.862 385.288 745.026 384.767 745.52 384.797C746.015 384.827 747.276 384.767 747.561 384.917C747.846 385.067 748.49 384.886 748.85 384.665C749.209 384.444 749.36 383.871 749.93 383.961C750.5 384.052 750.754 384.036 751.28 384.081C751.805 384.126 752.286 383.691 752.479 383.346C752.673 383.001 752.869 382.867 753.004 382.837C753.139 382.807 752.66 382.372 753.004 382.118C753.349 381.863 754.414 381.518 755.074 381.908C755.734 382.299 755.568 382.357 755.899 382.357C756.229 382.357 756.619 382.163 757.039 382.106C757.459 382.049 757.458 382.091 757.924 382.076C758.39 382.061 759.014 382.055 759.093 381.736C759.173 381.417 759.124 381.233 759.708 381.252C760.292 381.27 760.263 381.073 761.043 380.982C761.824 380.892 761.462 380.308 762.573 380.233C763.684 380.159 762.618 379.829 763.368 379.799C764.117 379.769 765.287 379.738 765.38 379.559C765.472 379.38 766.459 379.289 766.685 379.379C766.91 379.469 766.924 379.379 767.344 379.128C767.764 378.877 769.129 378.408 769.834 378.633C770.539 378.857 771.049 378.884 771.724 379.098C772.398 379.311 772.478 379.248 773.044 379.265C773.61 379.283 775.398 379.516 775.984 380.404C776.57 381.292 776.57 381.242 776.958 381.288C777.347 381.334 778.353 381.423 778.878 381.468C779.404 381.513 779.432 381.198 779.778 381.228C780.123 381.258 782.087 380.977 782.897 381.243C783.707 381.508 785.792 381.692 786.226 381.618C786.661 381.543 787.712 381.947 788.251 382.322C788.79 382.697 790.066 383.086 791.176 382.547C792.287 382.007 792.916 381.877 793.875 382.037C794.835 382.198 797.55 382.187 797.983 382.397C798.416 382.606 799.063 382.771 799.378 382.786C799.693 382.801 800.262 383.266 800.743 383.266C801.223 383.266 801.717 383.433 802.377 383.281C803.037 383.129 804.372 383.146 804.808 383.416C805.244 383.686 805.408 383.475 805.663 383.536C805.918 383.596 806.038 383.775 806.218 383.954C806.398 384.134 809.083 384.494 810.403 384.206C811.722 383.918 811.317 383.966 812.068 383.981C812.818 383.996 817.091 383.981 817.796 384.445C818.501 384.909 819.011 384.85 819.626 384.835C820.241 384.819 822.836 385.588 823.391 385.884C823.946 386.18 824.261 386.273 824.95 386.288C825.639 386.304 827.575 386.768 827.86 387.247C828.145 387.727 828.46 388.237 828.175 388.461C827.89 388.685 826.99 388.865 826.795 388.685C826.6 388.505 826.645 388.491 826.12 388.371C825.595 388.252 824.546 388.102 824.546 387.953C824.546 387.804 824.605 387.742 823.99 387.862C823.375 387.982 822.625 388.657 823.87 389.001C825.115 389.345 826.105 389.795 825.128 390.155C824.15 390.515 824.289 390.005 823.584 390.619C822.878 391.233 822.293 392.267 821.453 392.148C820.613 392.028 820.363 392.088 820.148 392.267C819.934 392.447 819.189 392.373 819.293 392.792C819.398 393.212 819.639 393.886 819.924 393.991C820.209 394.096 820.973 394.905 821.034 395.565C821.094 396.225 821.589 395.519 821.633 396.374C821.677 397.228 821.513 398.396 821.381 398.951C821.25 399.505 821.022 399.999 820.512 399.537C820.003 399.075 818.607 398.024 818.382 397.574C818.158 397.124 817.842 396.904 817.348 396.66C816.853 396.416 815.218 394.727 815.653 393.645C816.088 392.563 816.208 392.327 816.132 392.117C816.057 391.906 816.522 391.922 816.267 391.712C816.012 391.502 815.833 391.398 815.442 391.461C815.052 391.524 814.978 391.401 814.933 391.341C814.887 391.281 814.453 391.509 814.346 391.206C814.239 390.904 812.539 390.087 812.576 391.401C812.591 391.941 812.921 392.03 813.026 392.21C813.13 392.39 813.265 392.689 813.026 392.839C812.786 392.989 811.555 393.258 811.301 393.109C811.046 392.96 810.791 392.858 810.476 392.705C810.16 392.551 809.576 392.63 809.096 392.645C808.616 392.66 807.986 392.478 807.822 392.72C807.657 392.962 807.191 392.63 806.757 392.63C806.323 392.63 804.897 392.48 804.972 393.709C805.046 394.937 804.672 394.638 804.506 395.042C804.341 395.447 803.787 395.342 804.387 395.807C804.986 396.271 805.781 396.99 806.097 396.87C806.412 396.751 806.906 396.703 807.626 396.825C808.346 396.947 808.436 396.96 808.766 396.84C809.095 396.72 809.336 396.436 809.666 397.035C809.996 397.635 809.981 397.844 810.386 397.919C810.791 397.993 810.491 397.844 810.941 398.444C811.391 399.044 811.586 398.788 811.856 399.373C812.127 399.957 811.856 399.762 812.366 400.197C812.876 400.631 812.771 400.377 813.235 400.783C813.7 401.189 813.611 401.232 813.716 401.517C813.82 401.801 814.105 402.401 814.33 402.925C814.555 403.45 815.155 403.719 814.498 403.974C813.84 404.229 813.659 404.169 813.298 403.525C812.937 402.881 812.278 401.277 811.483 401.817C810.689 402.356 811.244 404.078 810.868 404.634C810.492 405.19 810.583 406.132 810.329 406.567C810.075 407.002 809.053 407.316 808.619 407.237C808.185 407.158 807.959 407.476 807.899 408.091C807.838 408.706 806.76 409.529 807.014 409.799C807.268 410.068 808.528 410.825 808.634 411.293C808.74 411.761 810.073 412.841 809.849 413.365C809.624 413.889 809.309 413.964 808.933 414.035C808.558 414.105 808.543 414.574 808.139 414.41C807.734 414.246 807.552 414.17 807.449 413.601C807.346 413.032 806.939 412.102 806.324 411.803C805.708 411.504 805.094 411.099 805.094 410.484C805.094 409.869 804.554 409.615 804.119 409.675C803.684 409.735 803.085 409.914 802.946 410.244C802.806 410.574 802.286 410.573 802.241 410.214C802.195 409.855 802.046 409.705 802.136 409.57C802.225 409.435 801.91 408.94 801.371 409.135C800.832 409.331 800.726 410.454 801.116 410.81C801.505 411.167 801.476 411.409 801.671 411.397C801.86 411.392 802.048 411.355 802.225 411.287C802.376 411.217 802.826 411.232 802.99 411.397C803.154 411.562 803.59 411.576 803.845 411.576C804.1 411.576 804.61 411.965 803.95 412.235C803.289 412.505 802.75 413.073 802.885 413.434C803.02 413.796 803.44 414.154 803.77 414.603C804.101 415.052 804.28 415.892 804.58 415.981C804.88 416.071 806.545 417.479 806.02 419.532C805.496 421.585 805.57 421.195 805.405 421.241C805.24 421.286 805.18 421.645 805.211 422.02C805.241 422.394 804.985 422.844 804.715 423.039C804.445 423.234 804.079 423.932 803.62 424.133C803.084 424.368 803.575 424.582 803.17 424.627C802.765 424.671 802.3 424.972 802.09 425.032C801.881 425.092 801.956 425.211 801.851 425.346C801.746 425.481 800.861 425.721 800.38 426.231C799.9 426.74 798.566 427.429 798.117 426.935C797.669 426.441 797.322 426.097 796.86 426.231C796.398 426.364 795.225 427.22 795.57 428.148C795.914 429.077 798.001 430.651 798.074 431.115C798.148 431.579 798.705 431.895 798.661 432.464C798.618 433.034 799.036 433.134 799.051 433.543C799.066 433.951 798.976 435.011 798.676 435.116C798.376 435.222 798.166 435.73 797.611 435.91C797.056 436.09 797.237 436.674 796.591 436.884C795.946 437.095 796.622 437.378 796.141 437.498C795.661 437.618 795.422 437.977 795.107 437.079C794.792 436.182 794.477 435.836 794.282 435.823C794.088 435.811 793.967 435.153 793.937 435.029C793.907 434.905 793.172 433.935 792.827 434.01C792.481 434.085 791.958 433.771 791.808 434.295C791.657 434.819 791.388 434.804 791.298 435.419C791.207 436.033 791.118 436.018 791.192 436.348C791.267 436.677 791.237 436.812 791.403 436.708C791.568 436.603 791.583 436.483 791.732 436.768C791.881 437.053 792.122 437.007 791.984 437.427C791.845 437.847 791.909 437.562 792.151 437.966C792.393 438.371 792.466 438.794 792.706 438.73L792.946 438.667L792.943 438.656Z" fill="#E9F3F1"/>
<path id="Vector_29" d="M812.021 413.382C811.616 413.563 811.406 413.862 811.211 414.22C811.015 414.578 810.97 414.835 810.806 414.999C810.642 415.163 810.595 415.614 810.806 415.943C811.016 416.272 811.376 416.887 811.644 416.992C811.912 417.097 811.989 417.232 812.019 417.382C812.049 417.531 812.783 417.292 812.783 416.902C812.783 416.511 812.979 416.018 813.219 415.943C813.46 415.867 814.148 415.389 814.583 415.524C815.018 415.659 815.757 415.195 815.858 414.775C815.96 414.356 816.338 414.281 816.696 414.236C817.054 414.191 817.567 414.146 817.821 413.906C818.076 413.666 818.286 413.562 818.152 413.007C818.017 412.453 818.152 410.984 817.747 410.685C817.342 410.386 817.371 410.04 817.371 409.785C817.371 409.531 817.162 409.171 816.921 408.916C816.68 408.661 816.411 407.943 816.681 407.807C816.951 407.672 817.432 407.508 817.671 407.148C817.911 406.788 818.241 406.534 818.017 406.311C817.792 406.087 817.536 405.712 817.506 405.562C817.476 405.412 817.327 405.337 816.772 405.367C816.217 405.397 814.912 404.858 814.716 404.618C814.521 404.378 813.787 404.258 813.878 405.007C813.97 405.757 814.238 405.577 814.13 405.966C814.021 406.356 813.664 406.79 814.055 407.06C814.44 407.312 814.743 407.671 814.924 408.094C815.104 408.528 815.614 409.068 815.54 409.443C815.465 409.818 815.884 409.743 815.825 410.113C815.765 410.483 815.959 410.967 815.014 411.491C814.069 412.016 814.427 412.105 814.084 412.48C813.742 412.856 813.246 413.289 812.705 413.109C812.163 412.929 812.015 413.379 812.015 413.379L812.021 413.382Z" fill="#E9F3F1"/>
</g>
</g>
<circle id="clip-path" cx="728" cy="434" r="66" fill="#C4C4C4"/>
</g>
</g>
<defs>
<clipPath id="clip0_1_2">
<rect width="248.448" height="132" fill="white" transform="translate(602 368)"/>
</clipPath>
</defs>
</svg>
