<svg width="1440" height="840" viewBox="0 0 1440 840" fill="none" xmlns="http://www.w3.org/2000/svg">
<g id="Frame 17">
<rect width="1440" height="840" fill="white"/>
<g id="Frame" clip-path="url(#clip0_16_448)">
<path id="Vector" d="M807.98 410.67C807.6 434.23 792.63 455.56 769.98 462.76C759.094 466.235 747.394 466.212 736.522 462.695C725.65 459.178 716.152 452.344 709.365 443.152C702.577 433.959 698.839 422.872 698.677 411.446C698.515 400.02 701.936 388.831 708.46 379.45C720.64 361.95 742.17 353.39 763.06 356.79C789.06 361.02 807.61 384.89 808.06 410.67C808.06 413.08 811.85 413.09 811.81 410.67C811.666 398.342 807.703 386.362 800.468 376.38C793.233 366.397 783.081 358.904 771.41 354.93C750.26 347.86 725.53 354.74 710.52 370.93C702.257 379.849 696.983 391.125 695.435 403.185C693.886 415.244 696.139 427.487 701.88 438.205C707.621 448.923 716.563 457.582 727.461 462.975C738.358 468.368 750.666 470.226 762.67 468.29C790.97 463.82 811.36 438.93 811.81 410.62C811.77 408.26 808.02 408.25 807.98 410.67Z" fill="#848EC2"/>
<path id="Vector_2" d="M722.33 159L722.68 681.27" stroke="#4D5275" stroke-miterlimit="10"/>
<path id="Vector_3" d="M726.36 485.43C727.454 485.43 728.34 484.544 728.34 483.45C728.34 482.356 727.454 481.47 726.36 481.47C725.266 481.47 724.38 482.356 724.38 483.45C724.38 484.544 725.266 485.43 726.36 485.43Z" fill="#4D5275"/>
</g>
<path id="Vector_4" d="M748.833 354.485C768.913 364.795 785.593 382.365 791.053 404.695C796.003 424.895 789.953 445.695 776.953 461.615C776.645 461.941 776.464 462.366 776.441 462.813C776.419 463.261 776.557 463.701 776.831 464.056C777.105 464.411 777.496 464.656 777.935 464.747C778.373 464.839 778.83 464.771 779.223 464.555C788.831 459.846 796.978 452.612 802.791 443.629C808.604 434.645 811.864 424.25 812.223 413.555C812.52 405.274 811.109 397.02 808.079 389.306C805.049 381.593 800.463 374.587 794.608 368.722C788.753 362.858 781.753 358.261 774.045 355.218C766.337 352.175 758.085 350.752 749.803 351.035C747.393 351.095 747.383 354.845 749.803 354.785C762.011 354.444 774.007 358.025 784.03 365.003C794.053 371.981 801.576 381.988 805.493 393.555C814.333 419.895 802.493 449.155 777.333 461.365L779.603 464.315C793.183 447.725 799.713 426.315 794.983 405.085C789.683 381.285 771.983 362.225 750.723 351.295C748.573 350.145 746.633 353.385 748.833 354.485Z" fill="#848EC2"/>
<path id="Vector_5" d="M685.113 430.285C702.223 436.685 720.953 443.405 739.353 444.485C756.457 445.641 773.43 440.8 787.353 430.795L785.152 429.095C782.695 442.997 776.015 455.804 766.023 465.775C755.083 476.415 739.122 480.085 724.502 482.555L725.303 485.445C739.303 481.095 747.463 461.835 735.523 450.705C729.963 445.525 722.053 442.195 714.923 439.855C705.033 436.605 695.622 432.125 686.282 427.545C684.552 426.695 683.033 429.285 684.763 430.135C691.263 433.325 697.812 436.445 704.492 439.225C711.702 442.225 719.012 444.305 725.962 447.955C733.292 451.795 738.713 457.155 738.073 466.055C737.503 474.055 731.972 480.235 724.502 482.555C724.13 482.671 723.817 482.926 723.629 483.269C723.442 483.611 723.396 484.013 723.5 484.389C723.604 484.765 723.85 485.085 724.187 485.283C724.523 485.48 724.924 485.538 725.303 485.445C740.483 482.875 756.783 478.945 768.143 467.895C778.518 457.571 785.465 444.304 788.043 429.895C788.253 428.745 787.042 427.365 785.842 428.205C771.976 438.199 754.98 442.877 737.953 441.385C720.323 440.015 702.353 433.545 685.953 427.385C684.103 426.715 683.323 429.615 685.113 430.285Z" fill="#4E5376"/>
</g>
<defs>
<clipPath id="clip0_16_448">
<rect width="116.73" height="522.27" fill="white" transform="translate(695 159)"/>
</clipPath>
</defs>
</svg>
