<svg width="1440" height="840" viewBox="0 0 1440 840" fill="none" xmlns="http://www.w3.org/2000/svg">
<g id="Frame 1">
<rect width="1440" height="840" fill="white"/>
<path id="Vector" d="M667.63 446.01C670.739 446.01 673.26 443.489 673.26 440.38C673.26 437.271 670.739 434.75 667.63 434.75C664.521 434.75 662 437.271 662 440.38C662 443.489 664.521 446.01 667.63 446.01Z" fill="#4D5275"/>
<g id="Frame" clip-path="url(#clip0_1_2)">
<path id="Vector_2" d="M662.17 440.64C663.495 454.104 668.797 466.869 677.4 477.31C681.97 482.92 689.89 474.92 685.4 469.31C678.731 461.095 674.587 451.122 673.47 440.6C672.71 433.47 661.47 433.4 662.22 440.6L662.17 440.64Z" fill="#E13A30"/>
<path id="Vector_3" d="M662.17 440.64C663.495 454.104 668.797 466.869 677.4 477.31C681.97 482.92 689.89 474.92 685.4 469.31C678.731 461.095 674.587 451.122 673.47 440.6C672.71 433.47 661.47 433.4 662.22 440.6L662.17 440.64Z" fill="#FFF047"/>
<path id="Vector_4" d="M677.63 477.31C686.05 487.016 697.142 494.027 709.521 497.468C721.9 500.909 735.019 500.628 747.24 496.66C754.1 494.44 751.16 483.57 744.24 485.81C733.937 489.241 722.842 489.506 712.387 486.572C701.931 483.638 692.594 477.64 685.58 469.35C680.84 463.86 672.91 471.85 677.58 477.35L677.63 477.31Z" fill="#E13A30"/>
<path id="Vector_5" d="M707.98 496.97C724.304 501.929 741.92 500.313 757.069 492.467C772.219 484.62 783.702 471.164 789.07 454.97C791.38 448.1 780.52 445.15 778.22 451.97C773.689 465.317 764.119 476.364 751.553 482.75C738.988 489.137 724.423 490.357 710.97 486.15C704.03 484.03 701.06 494.88 707.97 497L707.98 496.97Z" fill="#00ABEA"/>
<path id="Vector_6" d="M773.64 480.07C779.738 473.803 784.518 466.376 787.697 458.23C790.875 450.083 792.388 441.382 792.146 432.641C791.903 423.899 789.911 415.296 786.286 407.338C782.66 399.38 777.476 392.23 771.04 386.31C765.71 381.44 757.73 389.37 763.09 394.31C768.495 399.176 772.862 405.082 775.931 411.676C778.999 418.269 780.706 425.414 780.949 432.682C781.192 439.95 779.965 447.193 777.344 453.976C774.722 460.76 770.758 466.944 765.69 472.16C760.63 477.35 768.58 485.31 773.64 480.16V480.07Z" fill="#E13A30"/>
<path id="Vector_7" d="M786.01 406.19C770.34 374.52 732.8 361.89 700.77 375.85C694.15 378.74 699.87 388.43 706.45 385.57C733.15 373.92 763.58 386.17 776.3 411.86C779.51 418.35 789.21 412.66 786.01 406.19V406.19Z" fill="#00A159"/>
<path id="Vector_8" d="M747.47 372.86C733.256 368.519 717.989 369.143 704.177 374.63C690.365 380.116 678.831 390.139 671.47 403.05C667.88 409.35 677.59 415.05 681.18 408.73C687.273 397.944 696.884 389.577 708.405 385.027C719.927 380.476 732.661 380.019 744.48 383.73C751.42 385.84 754.39 374.99 747.48 372.88L747.47 372.86Z" fill="#2A358D"/>
<path id="Vector_9" d="M699.45 377.18C687.532 382.815 677.598 391.925 670.957 403.313C664.315 414.701 661.276 427.832 662.24 440.98C662.77 448.16 674.03 448.22 673.49 440.98C672.551 429.804 675.086 418.612 680.747 408.93C686.408 399.249 694.92 391.552 705.12 386.89C711.67 383.82 705.97 374.12 699.45 377.18V377.18Z" fill="#DF3589"/>
<path id="Vector_10" d="M667.63 445.43C670.739 445.43 673.26 442.909 673.26 439.8C673.26 436.691 670.739 434.17 667.63 434.17C664.521 434.17 662 436.691 662 439.8C662 442.909 664.521 445.43 667.63 445.43Z" fill="#4D5275"/>
</g>
</g>
<defs>
<clipPath id="clip0_1_2">
<rect width="130.17" height="129.85" fill="white" transform="translate(662 370)"/>
</clipPath>
</defs>
</svg>
